<svg width="50" height="51" viewBox="0 0 50 51" fill="none" xmlns="http://www.w3.org/2000/svg">
<g id="Published with changes" opacity="0.3" clip-path="url(#clip0_264_2197)">
<path id="Vector" d="M36.7543 20.3594L22.0401 35.0736L13.2157 26.2492L16.1502 23.3147L22.0401 29.2046L33.8198 17.4249L36.7543 20.3594ZM8.32485 25.5C8.32485 20.6508 10.4477 16.301 13.7776 13.2624L18.7309 18.2157V5.72842H6.24363L10.8223 10.3071C6.74312 14.0949 4.16241 19.4853 4.16241 25.5C4.16241 36.3015 12.3832 45.1675 22.8934 46.2081V42.0041C14.6934 40.9843 8.32485 33.9706 8.32485 25.5ZM45.7868 25.5C45.7868 14.6985 37.566 5.83248 27.0558 4.79187V8.99593C35.2558 10.0157 41.6243 17.0294 41.6243 25.5C41.6243 30.3492 39.5015 34.699 36.1716 37.7376L31.2183 32.7843V45.2716H43.7056L39.1269 40.6929C43.2061 36.9051 45.7868 31.5147 45.7868 25.5Z" fill="black"/>
</g>
<defs>
<clipPath id="clip0_264_2197">
<rect width="49.9492" height="49.9492" fill="white" transform="translate(0 0.525391)"/>
</clipPath>
</defs>
</svg>
