<svg id="Capa_1" data-name="Capa 1" xmlns="http://www.w3.org/2000/svg" viewBox="0 0 369.32 404.89"><defs><style>.cls-1{fill:#fff;}</style></defs><title>arrow-1</title><path class="cls-1" d="M187,272.13a3.56,3.56,0,0,0,5.05,0l22.73-22.73a3.57,3.57,0,0,0-5.05-5.05l-20.21,20.2-20.2-20.2a3.57,3.57,0,1,0-5,5.05ZM185.92,141V269.61h7.15V141Z"/><path class="cls-1" d="M193.59,384.68H185.4c-86.06,0-156.08-70-156.08-156.08V191.82c0-86.06,70-156.07,156.08-156.07h8.19c86.06,0,156.08,70,156.08,156.07V228.6C349.67,314.66,279.65,384.68,193.59,384.68ZM185.4,42.75c-82.2,0-149.08,66.87-149.08,149.07V228.6c0,82.2,66.88,149.08,149.08,149.08h8.19c82.2,0,149.08-66.88,149.08-149.08V191.82c0-82.2-66.88-149.07-149.08-149.07Z"/></svg>