<svg id="Capa_1" data-name="Capa 1" xmlns="http://www.w3.org/2000/svg" viewBox="0 0 907.2 222.37"><defs><style>.cls-1{fill:#e6e6e6;}.cls-2,.cls-5{fill:none;}.cls-2{stroke:#191919;stroke-opacity:0.1;stroke-width:1.76px;}.cls-3{opacity:0.4;}.cls-4{fill:#121a1b;opacity:0.2;isolation:isolate;}.cls-5{stroke:#121a1b;stroke-linecap:round;stroke-linejoin:round;stroke-width:3.7px;}.cls-6{fill:#2a2a2a;}.cls-7{fill:#242424;fill-opacity:0.5;}</style></defs><title>bpa y bpg</title><rect class="cls-1" x="485.13" y="24.06" width="387.99" height="174.25" rx="25.63"/><rect class="cls-2" x="486.15" y="25.08" width="385.94" height="172.2" rx="24.6"/><g class="cls-3"><path class="cls-4" d="M568.49,108.72a13.9,13.9,0,1,0-13.9-13.9A13.9,13.9,0,0,0,568.49,108.72Z"/><path class="cls-5" d="M568.49,94.82,596.29,67"/><path class="cls-5" d="M588.15,75.16a27.79,27.79,0,1,0,5.43,7.67"/><path class="cls-5" d="M578.32,85a13.91,13.91,0,1,0,4,9"/></g><path class="cls-6" d="M625.66,122.8V65.7h22.86A25.85,25.85,0,0,1,659,67.57a13.86,13.86,0,0,1,6.33,5.19,13.62,13.62,0,0,1,2.12,7.58,12.32,12.32,0,0,1-1.34,5.88,11.59,11.59,0,0,1-3.68,4.13,15.16,15.16,0,0,1-5.29,2.26v.55a12.88,12.88,0,0,1,6.1,1.84,13.09,13.09,0,0,1,4.66,4.77,14.07,14.07,0,0,1,1.78,7.25,14.8,14.8,0,0,1-2.26,8.11,15.24,15.24,0,0,1-6.6,5.61,25.33,25.33,0,0,1-10.79,2.06Zm12.07-9.87h9.85q5,0,7.36-1.92a6.45,6.45,0,0,0,2.31-5.19,7.46,7.46,0,0,0-4.41-7,11.11,11.11,0,0,0-5-1H637.73Zm0-23.34h8.95a10.58,10.58,0,0,0,4.41-.86,7.25,7.25,0,0,0,3.06-2.51,6.49,6.49,0,0,0,1.15-3.87,6.27,6.27,0,0,0-2.2-5,9.11,9.11,0,0,0-6.19-1.9h-9.18ZM676,122.8V65.7h22.52a23,23,0,0,1,11.07,2.48,16.87,16.87,0,0,1,7,6.83,21.88,21.88,0,0,1,0,20.08,16.91,16.91,0,0,1-7.11,6.77,23.89,23.89,0,0,1-11.21,2.43H683.86V94.61h12.41a12.18,12.18,0,0,0,5.74-1.2,7.9,7.9,0,0,0,3.4-3.37,10.58,10.58,0,0,0,1.14-5,10.29,10.29,0,0,0-1.14-5,7.64,7.64,0,0,0-3.4-3.32,12.41,12.41,0,0,0-5.8-1.2h-8.14V122.8Zm87.12-38.64a12.64,12.64,0,0,0-1.64-3.6,10,10,0,0,0-2.6-2.67,10.92,10.92,0,0,0-3.45-1.71,14.7,14.7,0,0,0-4.27-.58,13.69,13.69,0,0,0-7.69,2.17,14.18,14.18,0,0,0-5.13,6.33,24.7,24.7,0,0,0-1.84,10.1,25.4,25.4,0,0,0,1.81,10.14,14.22,14.22,0,0,0,5.13,6.39,14,14,0,0,0,7.83,2.17,15.47,15.47,0,0,0,7-1.45,10.37,10.37,0,0,0,4.46-4.15,12.35,12.35,0,0,0,1.56-6.33l2.46.36H752V92.24h23.89v7.2a25,25,0,0,1-3.18,12.93,21.68,21.68,0,0,1-8.75,8.31,29.74,29.74,0,0,1-26.88-.64,24.6,24.6,0,0,1-9.48-10.12,33.81,33.81,0,0,1-3.37-15.61,35.76,35.76,0,0,1,2-12.38A26.55,26.55,0,0,1,732,72.67a24.62,24.62,0,0,1,8.5-5.77A29.16,29.16,0,0,1,760,66.34a24,24,0,0,1,7.41,4,21.31,21.31,0,0,1,5.33,6.11,20.62,20.62,0,0,1,2.65,7.75Z"/><path class="cls-7" d="M533.2,159.76v-16.2h5.94a6.29,6.29,0,0,1,2.85.57,3.85,3.85,0,0,1,1.7,1.53,4.24,4.24,0,0,1,.56,2.16,3.6,3.6,0,0,1-.38,1.71,2.92,2.92,0,0,1-1,1.1,4.4,4.4,0,0,1-1.36.61v.15a3.17,3.17,0,0,1,1.57.53,3.55,3.55,0,0,1,1.28,1.35,4.19,4.19,0,0,1,.51,2.14,4.32,4.32,0,0,1-.59,2.23,4,4,0,0,1-1.78,1.55,7.31,7.31,0,0,1-3.1.57Zm2.45-2.09h3.53a3.73,3.73,0,0,0,2.51-.68,2.19,2.19,0,0,0,.76-1.7,2.65,2.65,0,0,0-.39-1.41,2.72,2.72,0,0,0-1.1-1,3.5,3.5,0,0,0-1.7-.38h-3.61Zm0-7.1h3.27a3.25,3.25,0,0,0,1.48-.32,2.46,2.46,0,0,0,1.05-.88,2.32,2.32,0,0,0,.4-1.36,2.26,2.26,0,0,0-.7-1.69,3,3,0,0,0-2.16-.68h-3.34Zm19.19,4.15v-7.11h2.38v12.15h-2.33v-2.1h-.13a3.74,3.74,0,0,1-1.34,1.62,3.89,3.89,0,0,1-2.29.64,4.13,4.13,0,0,1-2.07-.51,3.58,3.58,0,0,1-1.41-1.54,5.68,5.68,0,0,1-.51-2.53v-7.73h2.37v7.45a2.79,2.79,0,0,0,.69,2,2.33,2.33,0,0,0,1.79.73,2.93,2.93,0,0,0,1.32-.33,2.79,2.79,0,0,0,1.1-1A3,3,0,0,0,554.84,154.72ZM565.19,160a6,6,0,0,1-3.1-.77,5.16,5.16,0,0,1-2-2.17,8.11,8.11,0,0,1,0-6.59,5.23,5.23,0,0,1,4.92-3,6.07,6.07,0,0,1,2,.34,4.91,4.91,0,0,1,1.74,1.07,5.17,5.17,0,0,1,1.21,1.89,8,8,0,0,1,.44,2.81v.84h-9.66v-1.77h7.34a3.45,3.45,0,0,0-.38-1.66,2.86,2.86,0,0,0-1.07-1.14,3,3,0,0,0-1.59-.42,3,3,0,0,0-1.74.49,3.29,3.29,0,0,0-1.14,1.26,3.6,3.6,0,0,0-.4,1.69v1.38a4.54,4.54,0,0,0,.43,2.08,3,3,0,0,0,1.21,1.3,3.55,3.55,0,0,0,1.81.45,4,4,0,0,0,1.23-.19,2.63,2.63,0,0,0,.95-.59,2.53,2.53,0,0,0,.62-1l2.24.41a4.11,4.11,0,0,1-1,1.73,4.77,4.77,0,0,1-1.74,1.15A6.45,6.45,0,0,1,565.19,160Zm9.76-7.46v7.21h-2.37V147.61h2.27v2H575a3.52,3.52,0,0,1,1.31-1.55,4.13,4.13,0,0,1,2.28-.59,4.36,4.36,0,0,1,2.17.53,3.47,3.47,0,0,1,1.45,1.53,5.6,5.6,0,0,1,.51,2.52v7.73h-2.36v-7.44a2.94,2.94,0,0,0-.69-2.07,2.44,2.44,0,0,0-1.89-.75,3,3,0,0,0-1.47.36,2.57,2.57,0,0,0-1,1A3.53,3.53,0,0,0,575,152.55ZM589,160a5,5,0,0,1-2.09-.42,3.5,3.5,0,0,1-1.48-1.26,3.6,3.6,0,0,1-.54-2,3.2,3.2,0,0,1,.4-1.69,2.77,2.77,0,0,1,1.07-1,5.28,5.28,0,0,1,1.5-.59,15.71,15.71,0,0,1,1.69-.3l1.77-.21a2.53,2.53,0,0,0,1-.27.68.68,0,0,0,.31-.62v-.06a2.12,2.12,0,0,0-.58-1.6,2.37,2.37,0,0,0-1.73-.57,3,3,0,0,0-1.88.53,2.74,2.74,0,0,0-.94,1.16l-2.23-.5a4.28,4.28,0,0,1,1.16-1.79,4.74,4.74,0,0,1,1.76-1,7,7,0,0,1,2.1-.32,7.15,7.15,0,0,1,1.54.18,4.38,4.38,0,0,1,1.54.62,3.48,3.48,0,0,1,1.18,1.28,4.55,4.55,0,0,1,.46,2.16v8.07h-2.31V158.1h-.1a3.27,3.27,0,0,1-.69.91,3.59,3.59,0,0,1-1.18.73A4.46,4.46,0,0,1,589,160Zm.51-1.89a3.37,3.37,0,0,0,1.68-.39,2.77,2.77,0,0,0,1.07-1,2.69,2.69,0,0,0,.37-1.35v-1.56a1.31,1.31,0,0,1-.49.23,6.79,6.79,0,0,1-.82.18l-.89.14-.73.09a5.81,5.81,0,0,0-1.26.3,2.11,2.11,0,0,0-.9.59,1.48,1.48,0,0,0-.33,1,1.52,1.52,0,0,0,.65,1.33A2.82,2.82,0,0,0,589.5,158.14Zm17.3-7.56-2.15.38a2.46,2.46,0,0,0-.42-.78,2,2,0,0,0-.78-.61,2.78,2.78,0,0,0-1.23-.24,2.91,2.91,0,0,0-1.67.45,1.33,1.33,0,0,0-.68,1.15,1.2,1.2,0,0,0,.46,1,3.61,3.61,0,0,0,1.45.61l1.93.44a5.17,5.17,0,0,1,2.5,1.2,2.77,2.77,0,0,1,.82,2.09,3.2,3.2,0,0,1-.63,1.95,4.13,4.13,0,0,1-1.75,1.33,6.45,6.45,0,0,1-2.58.48,5.82,5.82,0,0,1-3.33-.87,3.69,3.69,0,0,1-1.59-2.49l2.29-.35a2.12,2.12,0,0,0,.88,1.35,3,3,0,0,0,1.73.45,3.23,3.23,0,0,0,1.86-.48,1.44,1.44,0,0,0,.7-1.19,1.27,1.27,0,0,0-.43-1,2.87,2.87,0,0,0-1.29-.59l-2.06-.45a5,5,0,0,1-2.51-1.23,3,3,0,0,1-.81-2.15,3.08,3.08,0,0,1,.6-1.88,3.89,3.89,0,0,1,1.66-1.26,6.19,6.19,0,0,1,2.43-.46,5,5,0,0,1,3.1.86A4,4,0,0,1,606.8,150.58Zm8,9.18v-16.2h5.78a6.39,6.39,0,0,1,3.13.69,4.49,4.49,0,0,1,1.86,1.88,6.08,6.08,0,0,1,0,5.37,4.46,4.46,0,0,1-1.87,1.88,6.35,6.35,0,0,1-3.12.69h-4V152h3.75a4,4,0,0,0,1.94-.41,2.66,2.66,0,0,0,1.09-1.14,4,4,0,0,0,0-3.26,2.53,2.53,0,0,0-1.1-1.12,4.11,4.11,0,0,0-2-.4h-3.08v14.1Zm13.62,0V147.61h2.28v1.93h.13A2.92,2.92,0,0,1,632,148a3.36,3.36,0,0,1,1.92-.57l.52,0a4.59,4.59,0,0,1,.48,0v2.26a3.05,3.05,0,0,0-.51-.09,4.36,4.36,0,0,0-.72,0,3.08,3.08,0,0,0-1.5.35,2.69,2.69,0,0,0-1,1,2.65,2.65,0,0,0-.38,1.4v7.42ZM640,160a5,5,0,0,1-2.09-.42,3.57,3.57,0,0,1-1.48-1.26,3.6,3.6,0,0,1-.54-2,3.3,3.3,0,0,1,.4-1.69,2.77,2.77,0,0,1,1.07-1,5.52,5.52,0,0,1,1.5-.59,15.71,15.71,0,0,1,1.69-.3l1.78-.21a2.65,2.65,0,0,0,1-.27.69.69,0,0,0,.3-.62v-.06a2.12,2.12,0,0,0-.58-1.6,2.37,2.37,0,0,0-1.73-.57,3,3,0,0,0-1.88.53,2.82,2.82,0,0,0-.94,1.16l-2.22-.5a4.17,4.17,0,0,1,1.15-1.79,4.74,4.74,0,0,1,1.76-1,7,7,0,0,1,2.1-.32,7.08,7.08,0,0,1,1.54.18,4.38,4.38,0,0,1,1.54.62,3.48,3.48,0,0,1,1.18,1.28,4.55,4.55,0,0,1,.46,2.16v8.07h-2.31V158.1h-.1a3.27,3.27,0,0,1-.69.91,3.54,3.54,0,0,1-1.17.73A4.54,4.54,0,0,1,640,160Zm.51-1.89a3.37,3.37,0,0,0,1.68-.39,2.7,2.7,0,0,0,1.07-1,2.59,2.59,0,0,0,.37-1.35v-1.56a1.24,1.24,0,0,1-.49.23,7,7,0,0,1-.81.18l-.9.14-.73.09a5.86,5.86,0,0,0-1.25.3,2.09,2.09,0,0,0-.91.59,1.48,1.48,0,0,0-.33,1,1.52,1.52,0,0,0,.65,1.33A2.82,2.82,0,0,0,640.49,158.14ZM640.41,146l1.85-3.65h2.49L642.3,146Zm13.39,14a5.65,5.65,0,0,1-3-.8,5.31,5.31,0,0,1-1.94-2.22,8.08,8.08,0,0,1,0-6.51,5.26,5.26,0,0,1,4.95-3,5.63,5.63,0,0,1,2.47.52,4.42,4.42,0,0,1,1.74,1.42,4.25,4.25,0,0,1,.8,2.15h-2.3a2.79,2.79,0,0,0-.87-1.48,2.57,2.57,0,0,0-1.8-.61,3,3,0,0,0-1.74.52,3.29,3.29,0,0,0-1.14,1.47,5.51,5.51,0,0,0-.41,2.25,5.9,5.9,0,0,0,.4,2.29,3.44,3.44,0,0,0,1.14,1.5,3,3,0,0,0,1.75.53,2.86,2.86,0,0,0,1.22-.25A2.5,2.5,0,0,0,656,157a2.59,2.59,0,0,0,.53-1.12h2.3A4.43,4.43,0,0,1,658,158a4.38,4.38,0,0,1-1.72,1.46A5.63,5.63,0,0,1,653.8,160Zm12.75-12.4v1.9h-6.64v-1.9Zm-4.86-2.91h2.37v11.5a2,2,0,0,0,.21,1,1,1,0,0,0,.53.47,2.09,2.09,0,0,0,.72.12,2.43,2.43,0,0,0,.49,0l.34-.06.42,1.95a3.71,3.71,0,0,1-.58.16,4.85,4.85,0,0,1-2.69-.24,3,3,0,0,1-1.31-1.07,3.21,3.21,0,0,1-.5-1.83Zm7,15.06V147.61h2.37v12.15Zm1.2-14a1.51,1.51,0,0,1-1.06-.41,1.36,1.36,0,0,1-.44-1,1.34,1.34,0,0,1,.44-1,1.48,1.48,0,0,1,1.06-.42,1.46,1.46,0,0,1,1.05.42,1.31,1.31,0,0,1,.44,1,1.32,1.32,0,0,1-.44,1A1.49,1.49,0,0,1,669.92,145.74Zm9,14.27a5.61,5.61,0,0,1-3-.8A5.26,5.26,0,0,1,674,157a7.49,7.49,0,0,1-.68-3.25,7.21,7.21,0,0,1,.7-3.26,5.32,5.32,0,0,1,2-2.23,5.49,5.49,0,0,1,3-.8,5.6,5.6,0,0,1,2.47.52,4.53,4.53,0,0,1,1.75,1.42,4.35,4.35,0,0,1,.8,2.15h-2.3a2.81,2.81,0,0,0-.88-1.48,2.53,2.53,0,0,0-1.8-.61,2.9,2.9,0,0,0-1.73.52,3.3,3.3,0,0,0-1.15,1.47,5.69,5.69,0,0,0-.41,2.25,5.9,5.9,0,0,0,.4,2.29,3.44,3.44,0,0,0,1.14,1.5A3,3,0,0,0,679,158a2.86,2.86,0,0,0,1.22-.25,2.43,2.43,0,0,0,.92-.72,2.72,2.72,0,0,0,.54-1.12h2.3a4.45,4.45,0,0,1-.77,2.1,4.38,4.38,0,0,1-1.72,1.46A5.63,5.63,0,0,1,678.94,160Zm10.62,0a5,5,0,0,1-2.09-.42,3.5,3.5,0,0,1-1.48-1.26,3.6,3.6,0,0,1-.54-2,3.2,3.2,0,0,1,.4-1.69,2.77,2.77,0,0,1,1.07-1,5.4,5.4,0,0,1,1.5-.59,15.71,15.71,0,0,1,1.69-.3l1.77-.21a2.53,2.53,0,0,0,1-.27.68.68,0,0,0,.31-.62v-.06a2.12,2.12,0,0,0-.58-1.6,2.37,2.37,0,0,0-1.73-.57,3,3,0,0,0-1.88.53,2.82,2.82,0,0,0-.94,1.16l-2.23-.5a4.28,4.28,0,0,1,1.16-1.79,4.74,4.74,0,0,1,1.76-1,7,7,0,0,1,2.1-.32,7.08,7.08,0,0,1,1.54.18,4.38,4.38,0,0,1,1.54.62,3.48,3.48,0,0,1,1.18,1.28,4.55,4.55,0,0,1,.46,2.16v8.07h-2.32V158.1h-.09a3.27,3.27,0,0,1-.69.91,3.59,3.59,0,0,1-1.18.73A4.46,4.46,0,0,1,689.56,160Zm.51-1.89a3.37,3.37,0,0,0,1.68-.39,2.7,2.7,0,0,0,1.07-1,2.59,2.59,0,0,0,.37-1.35v-1.56a1.24,1.24,0,0,1-.49.23,6.79,6.79,0,0,1-.82.18l-.89.14-.73.09a5.81,5.81,0,0,0-1.26.3,2.11,2.11,0,0,0-.9.59,1.48,1.48,0,0,0-.33,1,1.52,1.52,0,0,0,.65,1.33A2.82,2.82,0,0,0,690.07,158.14Zm17.3-7.56-2.15.38a2.46,2.46,0,0,0-.42-.78,2,2,0,0,0-.78-.61,2.81,2.81,0,0,0-1.23-.24,2.93,2.93,0,0,0-1.67.45,1.33,1.33,0,0,0-.68,1.15,1.23,1.23,0,0,0,.46,1,3.61,3.61,0,0,0,1.45.61l1.93.44a5.17,5.17,0,0,1,2.5,1.2,2.77,2.77,0,0,1,.82,2.09,3.2,3.2,0,0,1-.63,1.95,4.13,4.13,0,0,1-1.75,1.33,6.45,6.45,0,0,1-2.58.48,5.85,5.85,0,0,1-3.34-.87,3.75,3.75,0,0,1-1.58-2.49l2.29-.35a2.12,2.12,0,0,0,.88,1.35,3,3,0,0,0,1.73.45,3.2,3.2,0,0,0,1.86-.48,1.44,1.44,0,0,0,.7-1.19,1.27,1.27,0,0,0-.43-1,2.87,2.87,0,0,0-1.29-.59l-2.06-.45a5,5,0,0,1-2.51-1.23,3,3,0,0,1-.81-2.15,3.08,3.08,0,0,1,.6-1.88,3.89,3.89,0,0,1,1.66-1.26,6.19,6.19,0,0,1,2.43-.46,5,5,0,0,1,3.1.86A4,4,0,0,1,707.37,150.58Zm19-1.9a5.14,5.14,0,0,0-.62-1.29,4,4,0,0,0-2.12-1.61,5,5,0,0,0-1.48-.21,4.58,4.58,0,0,0-2.47.7,4.84,4.84,0,0,0-1.74,2.07,9,9,0,0,0,0,6.65,4.78,4.78,0,0,0,1.76,2.06,4.64,4.64,0,0,0,2.53.71,4.72,4.72,0,0,0,2.31-.54,3.71,3.71,0,0,0,1.52-1.52,4.7,4.7,0,0,0,.55-2.33l.63.12h-4.63v-2H729v1.85a6.93,6.93,0,0,1-.87,3.54,6,6,0,0,1-2.39,2.31,7.82,7.82,0,0,1-7.35-.2,6.86,6.86,0,0,1-2.58-2.87,10,10,0,0,1-.92-4.43,10.5,10.5,0,0,1,.54-3.48,7.58,7.58,0,0,1,1.51-2.62,6.59,6.59,0,0,1,2.3-1.65,7.12,7.12,0,0,1,2.9-.58,7.49,7.49,0,0,1,2.45.39,6.47,6.47,0,0,1,2,1.1,6.13,6.13,0,0,1,1.48,1.69,6.3,6.3,0,0,1,.8,2.16ZM735,160a5,5,0,0,1-2.09-.42,3.36,3.36,0,0,1-2-3.28,3.3,3.3,0,0,1,.39-1.69,2.77,2.77,0,0,1,1.07-1,5.52,5.52,0,0,1,1.5-.59,15.71,15.71,0,0,1,1.69-.3l1.78-.21a2.65,2.65,0,0,0,1-.27.69.69,0,0,0,.3-.62v-.06a2.12,2.12,0,0,0-.58-1.6,2.37,2.37,0,0,0-1.73-.57,3,3,0,0,0-1.88.53,2.82,2.82,0,0,0-.94,1.16l-2.22-.5a4.17,4.17,0,0,1,1.15-1.79,4.7,4.7,0,0,1,1.77-1,6.87,6.87,0,0,1,2.09-.32,7.24,7.24,0,0,1,1.55.18,4.33,4.33,0,0,1,1.53.62,3.48,3.48,0,0,1,1.18,1.28,4.43,4.43,0,0,1,.46,2.16v8.07h-2.31V158.1h-.1a3.27,3.27,0,0,1-.69.91,3.54,3.54,0,0,1-1.17.73A4.51,4.51,0,0,1,735,160Zm.51-1.89a3.37,3.37,0,0,0,1.68-.39,2.7,2.7,0,0,0,1.07-1,2.59,2.59,0,0,0,.37-1.35v-1.56a1.24,1.24,0,0,1-.49.23,7,7,0,0,1-.81.18l-.9.14-.72.09a5.81,5.81,0,0,0-1.26.3,2.09,2.09,0,0,0-.91.59,1.48,1.48,0,0,0-.33,1,1.52,1.52,0,0,0,.65,1.33A2.84,2.84,0,0,0,735.5,158.14Zm10.56-5.59v7.21h-2.37V147.61H746v2h.15a3.48,3.48,0,0,1,1.32-1.55,4.1,4.1,0,0,1,2.27-.59,4.33,4.33,0,0,1,2.17.53,3.42,3.42,0,0,1,1.45,1.53,5.47,5.47,0,0,1,.52,2.52v7.73h-2.37v-7.44a2.94,2.94,0,0,0-.69-2.07,2.44,2.44,0,0,0-1.89-.75,2.93,2.93,0,0,0-1.46.36,2.6,2.6,0,0,0-1,1A3.53,3.53,0,0,0,746.06,152.55Zm14,7.48a5,5,0,0,1-2.09-.42,3.57,3.57,0,0,1-1.48-1.26,3.6,3.6,0,0,1-.54-2,3.3,3.3,0,0,1,.4-1.69,2.77,2.77,0,0,1,1.07-1A5.52,5.52,0,0,1,759,153a15.71,15.71,0,0,1,1.69-.3l1.78-.21a2.65,2.65,0,0,0,1-.27.69.69,0,0,0,.3-.62v-.06a2.12,2.12,0,0,0-.58-1.6,2.37,2.37,0,0,0-1.73-.57,3,3,0,0,0-1.88.53,2.82,2.82,0,0,0-.94,1.16l-2.22-.5a4.17,4.17,0,0,1,1.15-1.79,4.7,4.7,0,0,1,1.77-1,6.87,6.87,0,0,1,2.09-.32,7.24,7.24,0,0,1,1.55.18,4.33,4.33,0,0,1,1.53.62,3.48,3.48,0,0,1,1.18,1.28,4.43,4.43,0,0,1,.46,2.16v8.07h-2.31V158.1h-.1a3.27,3.27,0,0,1-.69.91,3.65,3.65,0,0,1-1.17.73A4.51,4.51,0,0,1,760.1,160Zm.51-1.89a3.37,3.37,0,0,0,1.68-.39,2.7,2.7,0,0,0,1.07-1,2.59,2.59,0,0,0,.37-1.35v-1.56a1.24,1.24,0,0,1-.49.23,7,7,0,0,1-.81.18l-.9.14-.72.09a5.81,5.81,0,0,0-1.26.3,2.09,2.09,0,0,0-.91.59,1.48,1.48,0,0,0-.33,1,1.52,1.52,0,0,0,.65,1.33A2.82,2.82,0,0,0,760.61,158.14ZM773.35,160a4.7,4.7,0,0,1-2.62-.75,5.16,5.16,0,0,1-1.81-2.16,8.05,8.05,0,0,1-.65-3.38,7.88,7.88,0,0,1,.66-3.37,5,5,0,0,1,1.82-2.14,4.7,4.7,0,0,1,2.62-.75,3.82,3.82,0,0,1,1.82.38,3.28,3.28,0,0,1,1.07.87,9.68,9.68,0,0,1,.61.88H777v-6h2.36v16.2h-2.31v-1.89h-.19a6.67,6.67,0,0,1-.62.89,3.61,3.61,0,0,1-1.09.87A3.83,3.83,0,0,1,773.35,160Zm.52-2a2.74,2.74,0,0,0,1.73-.53,3.48,3.48,0,0,0,1.08-1.51,6.47,6.47,0,0,0,.37-2.25,6,6,0,0,0-.37-2.22,3.27,3.27,0,0,0-1.06-1.48,2.84,2.84,0,0,0-1.75-.53,2.78,2.78,0,0,0-1.77.56,3.32,3.32,0,0,0-1.08,1.51,6.66,6.66,0,0,0,0,4.35,3.48,3.48,0,0,0,1.07,1.54A2.76,2.76,0,0,0,773.87,158Zm13.67,2a6,6,0,0,1-3.09-.77,5.19,5.19,0,0,1-2-2.17,8.21,8.21,0,0,1,0-6.59,5.25,5.25,0,0,1,4.93-3,6.12,6.12,0,0,1,2,.34,5,5,0,0,1,1.73,1.07,5,5,0,0,1,1.21,1.89,7.77,7.77,0,0,1,.45,2.81v.84H783.1v-1.77h7.34a3.56,3.56,0,0,0-.38-1.66,2.86,2.86,0,0,0-1.07-1.14,3,3,0,0,0-1.6-.42,3.08,3.08,0,0,0-1.74.49,3.29,3.29,0,0,0-1.14,1.26,3.72,3.72,0,0,0-.39,1.69v1.38a4.67,4.67,0,0,0,.42,2.08,3.11,3.11,0,0,0,1.21,1.3,3.59,3.59,0,0,0,1.82.45,4,4,0,0,0,1.22-.19,2.77,2.77,0,0,0,1-.59,2.65,2.65,0,0,0,.62-1l2.24.41a4,4,0,0,1-1,1.73,4.81,4.81,0,0,1-1.73,1.15A6.47,6.47,0,0,1,787.54,160Zm7.4-.25V147.61h2.28v1.93h.13a2.92,2.92,0,0,1,1.17-1.54,3.33,3.33,0,0,1,1.91-.57l.53,0a4.59,4.59,0,0,1,.48,0v2.26a3.28,3.28,0,0,0-.51-.09,4.36,4.36,0,0,0-.72,0,3.08,3.08,0,0,0-1.5.35,2.67,2.67,0,0,0-1.41,2.38v7.42Zm11.53.27a5,5,0,0,1-2.09-.42,3.5,3.5,0,0,1-1.48-1.26,3.6,3.6,0,0,1-.54-2,3.2,3.2,0,0,1,.4-1.69,2.77,2.77,0,0,1,1.07-1,5.4,5.4,0,0,1,1.5-.59,15.71,15.71,0,0,1,1.69-.3l1.77-.21a2.53,2.53,0,0,0,1-.27.68.68,0,0,0,.31-.62v-.06a2.12,2.12,0,0,0-.58-1.6,2.37,2.37,0,0,0-1.73-.57,3,3,0,0,0-1.88.53,2.82,2.82,0,0,0-.94,1.16l-2.23-.5a4.28,4.28,0,0,1,1.16-1.79,4.74,4.74,0,0,1,1.76-1,7,7,0,0,1,2.1-.32,7.08,7.08,0,0,1,1.54.18,4.38,4.38,0,0,1,1.54.62,3.48,3.48,0,0,1,1.18,1.28,4.55,4.55,0,0,1,.46,2.16v8.07h-2.31V158.1h-.1a3.27,3.27,0,0,1-.69.91,3.59,3.59,0,0,1-1.18.73A4.46,4.46,0,0,1,806.47,160Zm.51-1.89a3.37,3.37,0,0,0,1.68-.39,2.7,2.7,0,0,0,1.07-1,2.59,2.59,0,0,0,.37-1.35v-1.56a1.24,1.24,0,0,1-.49.23,6.79,6.79,0,0,1-.82.18l-.89.14-.73.09a5.81,5.81,0,0,0-1.26.3,2.11,2.11,0,0,0-.9.59,1.48,1.48,0,0,0-.33,1,1.52,1.52,0,0,0,.65,1.33A2.82,2.82,0,0,0,807,158.14Zm17.3-7.56-2.15.38a2.46,2.46,0,0,0-.42-.78,2,2,0,0,0-.78-.61,2.78,2.78,0,0,0-1.23-.24,3,3,0,0,0-1.67.45,1.32,1.32,0,0,0-.67,1.15,1.22,1.22,0,0,0,.45,1,3.61,3.61,0,0,0,1.45.61l1.93.44a5.17,5.17,0,0,1,2.5,1.2,2.78,2.78,0,0,1,.83,2.09,3.21,3.21,0,0,1-.64,1.95,4.13,4.13,0,0,1-1.75,1.33,6.45,6.45,0,0,1-2.58.48,5.84,5.84,0,0,1-3.33-.87,3.72,3.72,0,0,1-1.59-2.49l2.29-.35a2.16,2.16,0,0,0,.88,1.35,3,3,0,0,0,1.73.45,3.2,3.2,0,0,0,1.86-.48,1.44,1.44,0,0,0,.7-1.19,1.27,1.27,0,0,0-.43-1,2.87,2.87,0,0,0-1.29-.59l-2.06-.45a5,5,0,0,1-2.51-1.23,3,3,0,0,1-.81-2.15,3.08,3.08,0,0,1,.6-1.88,4,4,0,0,1,1.66-1.26,6.19,6.19,0,0,1,2.43-.46,5,5,0,0,1,3.1.86A3.92,3.92,0,0,1,824.28,150.58Z"/><rect class="cls-1" x="37.52" y="24.06" width="387.99" height="174.25" rx="25.63"/><rect class="cls-2" x="38.54" y="25.08" width="385.94" height="172.2" rx="24.6"/><g class="cls-3"><path class="cls-4" d="M120.89,108.72A13.9,13.9,0,1,0,107,94.82,13.91,13.91,0,0,0,120.89,108.72Z"/><path class="cls-5" d="M120.89,94.82,148.69,67"/><path class="cls-5" d="M140.54,75.16A27.75,27.75,0,1,0,146,82.83"/><path class="cls-5" d="M130.71,85a13.89,13.89,0,1,0,4.06,9"/></g><path class="cls-6" d="M178.06,122.8V65.7h22.86a25.88,25.88,0,0,1,10.51,1.87,13.86,13.86,0,0,1,6.33,5.19,13.7,13.7,0,0,1,2.12,7.58,12.44,12.44,0,0,1-1.34,5.88,11.59,11.59,0,0,1-3.68,4.13,15.13,15.13,0,0,1-5.3,2.26v.55A12.92,12.92,0,0,1,215.67,95a13.14,13.14,0,0,1,4.65,4.77,14.07,14.07,0,0,1,1.79,7.25,14.8,14.8,0,0,1-2.26,8.11,15.27,15.27,0,0,1-6.61,5.61,25.29,25.29,0,0,1-10.79,2.06Zm12.07-9.87H200c3.36,0,5.82-.64,7.36-1.92a6.45,6.45,0,0,0,2.31-5.19,7.47,7.47,0,0,0-4.4-7,11.14,11.14,0,0,0-5-1H190.13Zm0-23.34h9a10.57,10.57,0,0,0,4.4-.86,7.28,7.28,0,0,0,3.07-2.51,6.55,6.55,0,0,0,1.14-3.87,6.24,6.24,0,0,0-2.2-5,9.1,9.1,0,0,0-6.19-1.9h-9.17Zm38.26,33.21V65.7h22.53A23,23,0,0,1,262,68.18,16.87,16.87,0,0,1,269,75a20.25,20.25,0,0,1,2.42,10,20,20,0,0,1-2.45,10,16.8,16.8,0,0,1-7.11,6.77,23.83,23.83,0,0,1-11.21,2.43H236.25V94.61h12.41a12.2,12.2,0,0,0,5.75-1.2,8,8,0,0,0,3.4-3.37,10.58,10.58,0,0,0,1.14-5,10.29,10.29,0,0,0-1.14-5,7.69,7.69,0,0,0-3.4-3.32,12.44,12.44,0,0,0-5.8-1.2h-8.14V122.8Zm52.51,0H268l19.71-57.1h15.56l19.68,57.1H310l-14.3-44h-.45Zm-.8-22.44h30.55v9.42H280.1Z"/><path class="cls-7" d="M85.6,159.76v-16.2h5.93a6.36,6.36,0,0,1,2.86.57,3.83,3.83,0,0,1,1.69,1.53,4.14,4.14,0,0,1,.56,2.16,3.6,3.6,0,0,1-.37,1.71,3,3,0,0,1-1,1.1,4.3,4.3,0,0,1-1.36.61v.15a3.2,3.2,0,0,1,1.58.53,3.71,3.71,0,0,1,1.28,1.35,4.19,4.19,0,0,1,.51,2.14,4.32,4.32,0,0,1-.59,2.23,3.93,3.93,0,0,1-1.79,1.55,7.26,7.26,0,0,1-3.09.57ZM88,157.67h3.53a3.78,3.78,0,0,0,2.52-.68,2.22,2.22,0,0,0,.76-1.7,2.65,2.65,0,0,0-.39-1.41,2.74,2.74,0,0,0-1.11-1,3.46,3.46,0,0,0-1.69-.38H88Zm0-7.1h3.28a3.25,3.25,0,0,0,1.48-.32,2.59,2.59,0,0,0,1-.88,2.39,2.39,0,0,0,.4-1.36,2.27,2.27,0,0,0-.71-1.69,3,3,0,0,0-2.16-.68H88Zm19.2,4.15v-7.11h2.37v12.15h-2.32v-2.1h-.13a3.76,3.76,0,0,1-1.35,1.62,3.86,3.86,0,0,1-2.28.64,4.19,4.19,0,0,1-2.08-.51,3.62,3.62,0,0,1-1.4-1.54,5.68,5.68,0,0,1-.51-2.53v-7.73h2.37v7.45a2.83,2.83,0,0,0,.68,2,2.34,2.34,0,0,0,1.79.73,2.87,2.87,0,0,0,1.32-.33,2.73,2.73,0,0,0,1.1-1A3,3,0,0,0,107.24,154.72ZM117.58,160a6,6,0,0,1-3.09-.77,5.16,5.16,0,0,1-2-2.17,8.11,8.11,0,0,1,0-6.59,5.23,5.23,0,0,1,4.92-3,6.12,6.12,0,0,1,2,.34,4.82,4.82,0,0,1,2.94,3,7.77,7.77,0,0,1,.45,2.81v.84h-9.66v-1.77h7.34a3.56,3.56,0,0,0-.38-1.66,2.86,2.86,0,0,0-1.07-1.14,3,3,0,0,0-1.6-.42,3.08,3.08,0,0,0-1.74.49,3.29,3.29,0,0,0-1.14,1.26,3.72,3.72,0,0,0-.39,1.69v1.38a4.67,4.67,0,0,0,.42,2.08,3.11,3.11,0,0,0,1.21,1.3,3.59,3.59,0,0,0,1.82.45,3.9,3.9,0,0,0,1.22-.19,2.77,2.77,0,0,0,1-.59,2.53,2.53,0,0,0,.62-1l2.24.41a4,4,0,0,1-1,1.73,4.81,4.81,0,0,1-1.73,1.15A6.47,6.47,0,0,1,117.58,160Zm9.76-7.46v7.21H125V147.61h2.27v2h.15a3.46,3.46,0,0,1,1.31-1.55,4.1,4.1,0,0,1,2.27-.59,4.4,4.4,0,0,1,2.18.53,3.52,3.52,0,0,1,1.45,1.53,5.6,5.6,0,0,1,.51,2.52v7.73h-2.37v-7.44a3,3,0,0,0-.68-2.07,2.45,2.45,0,0,0-1.9-.75,3,3,0,0,0-1.46.36,2.51,2.51,0,0,0-1,1A3.41,3.41,0,0,0,127.34,152.55Zm14,7.48a5.07,5.07,0,0,1-2.09-.42,3.57,3.57,0,0,1-1.48-1.26,3.68,3.68,0,0,1-.53-2,3.3,3.3,0,0,1,.39-1.69,2.84,2.84,0,0,1,1.07-1,5.52,5.52,0,0,1,1.5-.59,15.89,15.89,0,0,1,1.7-.3l1.77-.21a2.65,2.65,0,0,0,1-.27.7.7,0,0,0,.31-.62v-.06a2.13,2.13,0,0,0-.59-1.6,2.35,2.35,0,0,0-1.72-.57,3,3,0,0,0-1.89.53,2.9,2.9,0,0,0-.94,1.16l-2.22-.5a4.27,4.27,0,0,1,1.15-1.79,4.78,4.78,0,0,1,1.77-1,6.89,6.89,0,0,1,2.1-.32,7.22,7.22,0,0,1,1.54.18,4.26,4.26,0,0,1,1.53.62,3.4,3.4,0,0,1,1.18,1.28,4.43,4.43,0,0,1,.46,2.16v8.07h-2.31V158.1H145a3.46,3.46,0,0,1-1.87,1.64A4.51,4.51,0,0,1,141.38,160Zm.52-1.89a3.35,3.35,0,0,0,1.67-.39,2.7,2.7,0,0,0,1.07-1,2.59,2.59,0,0,0,.37-1.35v-1.56a1.17,1.17,0,0,1-.49.23,6.2,6.2,0,0,1-.81.18l-.89.14-.73.09a5.81,5.81,0,0,0-1.26.3,2,2,0,0,0-.9.59,1.48,1.48,0,0,0-.33,1,1.51,1.51,0,0,0,.64,1.33A2.87,2.87,0,0,0,141.9,158.14Zm17.29-7.56-2.14.38a2.31,2.31,0,0,0-.43-.78,2,2,0,0,0-.77-.61,2.81,2.81,0,0,0-1.23-.24,3,3,0,0,0-1.68.45,1.32,1.32,0,0,0-.67,1.15,1.22,1.22,0,0,0,.45,1,3.66,3.66,0,0,0,1.46.61l1.93.44a5.17,5.17,0,0,1,2.5,1.2,2.77,2.77,0,0,1,.82,2.09,3.2,3.2,0,0,1-.63,1.95,4.19,4.19,0,0,1-1.75,1.33,6.5,6.5,0,0,1-2.59.48,5.84,5.84,0,0,1-3.33-.87,3.68,3.68,0,0,1-1.58-2.49l2.28-.35a2.2,2.2,0,0,0,.88,1.35,3.06,3.06,0,0,0,1.74.45,3.25,3.25,0,0,0,1.86-.48,1.43,1.43,0,0,0,.69-1.19,1.23,1.23,0,0,0-.43-1,2.87,2.87,0,0,0-1.29-.59l-2.05-.45a5,5,0,0,1-2.52-1.23,3,3,0,0,1-.81-2.15,3,3,0,0,1,.61-1.88,3.89,3.89,0,0,1,1.66-1.26,6.12,6.12,0,0,1,2.43-.46,5,5,0,0,1,3.1.86A4,4,0,0,1,159.19,150.58Zm8,9.18v-16.2H173a6.43,6.43,0,0,1,3.14.69,4.61,4.61,0,0,1,1.86,1.88,5.75,5.75,0,0,1,.61,2.68,5.82,5.82,0,0,1-.62,2.69,4.52,4.52,0,0,1-1.87,1.88,6.39,6.39,0,0,1-3.13.69h-4V152h3.75a3.91,3.91,0,0,0,1.94-.41,2.55,2.55,0,0,0,1.09-1.14,4,4,0,0,0,0-3.26,2.48,2.48,0,0,0-1.1-1.12,4.08,4.08,0,0,0-2-.4h-3.07v14.1Zm13.61,0V147.61h2.29v1.93h.13a2.92,2.92,0,0,1,1.17-1.54,3.33,3.33,0,0,1,1.91-.57l.52,0a4.58,4.58,0,0,1,.49,0v2.26a3.53,3.53,0,0,0-.51-.09,4.48,4.48,0,0,0-.73,0,3,3,0,0,0-1.49.35,2.56,2.56,0,0,0-1,1,2.65,2.65,0,0,0-.38,1.4v7.42Zm11.54.27a5,5,0,0,1-2.09-.42,3.45,3.45,0,0,1-1.48-1.26,3.6,3.6,0,0,1-.54-2,3.3,3.3,0,0,1,.39-1.69,2.91,2.91,0,0,1,1.07-1,5.46,5.46,0,0,1,1.51-.59,15.28,15.28,0,0,1,1.69-.3l1.77-.21a2.59,2.59,0,0,0,1-.27.68.68,0,0,0,.31-.62v-.06a2.13,2.13,0,0,0-.59-1.6,2.35,2.35,0,0,0-1.72-.57,2.94,2.94,0,0,0-1.88.53,2.84,2.84,0,0,0-.95,1.16l-2.22-.5a4.28,4.28,0,0,1,1.16-1.79,4.74,4.74,0,0,1,1.76-1,6.93,6.93,0,0,1,2.1-.32,7.15,7.15,0,0,1,1.54.18,4.38,4.38,0,0,1,1.54.62,3.38,3.38,0,0,1,1.17,1.28,4.43,4.43,0,0,1,.46,2.16v8.07h-2.31V158.1H196a3.48,3.48,0,0,1-.69.91,3.7,3.7,0,0,1-1.18.73A4.46,4.46,0,0,1,192.38,160Zm.51-1.89a3.42,3.42,0,0,0,1.68-.39,2.77,2.77,0,0,0,1.07-1,2.69,2.69,0,0,0,.37-1.35v-1.56a1.31,1.31,0,0,1-.49.23,6.79,6.79,0,0,1-.82.18l-.89.14-.73.09a5.81,5.81,0,0,0-1.26.3,2.11,2.11,0,0,0-.9.59,1.7,1.7,0,0,0,.32,2.34A2.82,2.82,0,0,0,192.89,158.14ZM192.8,146l1.85-3.65h2.5L194.69,146Zm13.4,14a5.62,5.62,0,0,1-3-.8,5.4,5.4,0,0,1-1.95-2.22,7.49,7.49,0,0,1-.68-3.25,7.21,7.21,0,0,1,.7-3.26,5.39,5.39,0,0,1,2-2.23,5.49,5.49,0,0,1,3-.8,5.57,5.57,0,0,1,2.47.52,4.39,4.39,0,0,1,1.75,1.42,4.25,4.25,0,0,1,.8,2.15h-2.3a2.86,2.86,0,0,0-.87-1.48,2.58,2.58,0,0,0-1.81-.61,2.92,2.92,0,0,0-1.73.52,3.37,3.37,0,0,0-1.15,1.47,5.69,5.69,0,0,0-.41,2.25,5.89,5.89,0,0,0,.41,2.29,3.29,3.29,0,0,0,1.14,1.5,2.92,2.92,0,0,0,1.74.53,2.83,2.83,0,0,0,1.22-.25,2.54,2.54,0,0,0,.93-.72,2.71,2.71,0,0,0,.53-1.12h2.3a4.42,4.42,0,0,1-2.48,3.56A5.66,5.66,0,0,1,206.2,160ZM219,147.61v1.9h-6.64v-1.9Zm-4.86-2.91h2.36v11.5a2,2,0,0,0,.21,1,1,1,0,0,0,.53.47,2.09,2.09,0,0,0,.72.12,2.47,2.47,0,0,0,.5,0l.33-.06.43,1.95a3.89,3.89,0,0,1-.59.16,4.85,4.85,0,0,1-2.69-.24,3,3,0,0,1-1.3-1.07,3.21,3.21,0,0,1-.5-1.83Zm7,15.06V147.61h2.36v12.15Zm1.19-14a1.53,1.53,0,0,1-1.06-.41,1.35,1.35,0,0,1-.43-1,1.33,1.33,0,0,1,.43-1,1.5,1.5,0,0,1,1.06-.42,1.48,1.48,0,0,1,1.06.42,1.34,1.34,0,0,1,.44,1,1.36,1.36,0,0,1-.44,1A1.51,1.51,0,0,1,222.31,145.74Zm9,14.27a5.62,5.62,0,0,1-3-.8,5.31,5.31,0,0,1-1.94-2.22,8.08,8.08,0,0,1,0-6.51,5.46,5.46,0,0,1,2-2.23,6,6,0,0,1,5.45-.28,4.39,4.39,0,0,1,1.75,1.42,4.25,4.25,0,0,1,.8,2.15H234a2.86,2.86,0,0,0-.87-1.48,2.57,2.57,0,0,0-1.8-.61,3,3,0,0,0-1.74.52,3.29,3.29,0,0,0-1.14,1.47,5.51,5.51,0,0,0-.41,2.25,5.9,5.9,0,0,0,.4,2.29,3.44,3.44,0,0,0,1.14,1.5,3,3,0,0,0,1.75.53,2.82,2.82,0,0,0,1.21-.25,2.54,2.54,0,0,0,.93-.72,2.71,2.71,0,0,0,.53-1.12h2.3a4.43,4.43,0,0,1-.76,2.1,4.38,4.38,0,0,1-1.72,1.46A5.63,5.63,0,0,1,231.34,160ZM242,160a5.07,5.07,0,0,1-2.09-.42,3.57,3.57,0,0,1-1.48-1.26,3.68,3.68,0,0,1-.53-2,3.3,3.3,0,0,1,.39-1.69,2.84,2.84,0,0,1,1.07-1,5.52,5.52,0,0,1,1.5-.59,15.89,15.89,0,0,1,1.7-.3l1.77-.21a2.65,2.65,0,0,0,1-.27.7.7,0,0,0,.31-.62v-.06a2.13,2.13,0,0,0-.59-1.6,2.35,2.35,0,0,0-1.72-.57,3,3,0,0,0-1.89.53,2.9,2.9,0,0,0-.94,1.16l-2.22-.5a4.27,4.27,0,0,1,1.15-1.79,4.78,4.78,0,0,1,1.77-1,6.89,6.89,0,0,1,2.1-.32,7.22,7.22,0,0,1,1.54.18,4.26,4.26,0,0,1,1.53.62,3.4,3.4,0,0,1,1.18,1.28,4.43,4.43,0,0,1,.46,2.16v8.07h-2.31V158.1h-.09a3.46,3.46,0,0,1-1.87,1.64A4.51,4.51,0,0,1,242,160Zm.52-1.89a3.42,3.42,0,0,0,1.68-.39,2.74,2.74,0,0,0,1.06-1,2.6,2.6,0,0,0,.38-1.35v-1.56a1.3,1.3,0,0,1-.5.23,6.2,6.2,0,0,1-.81.18l-.89.14-.73.09a5.81,5.81,0,0,0-1.26.3,2.05,2.05,0,0,0-.9.59,1.48,1.48,0,0,0-.33,1,1.51,1.51,0,0,0,.64,1.33A2.87,2.87,0,0,0,242.47,158.14Zm17.29-7.56-2.14.38a2.31,2.31,0,0,0-.43-.78,2,2,0,0,0-.77-.61,2.81,2.81,0,0,0-1.23-.24,3,3,0,0,0-1.68.45,1.32,1.32,0,0,0-.67,1.15,1.22,1.22,0,0,0,.45,1,3.66,3.66,0,0,0,1.46.61l1.93.44a5.17,5.17,0,0,1,2.5,1.2,2.77,2.77,0,0,1,.82,2.09,3.2,3.2,0,0,1-.63,1.95,4.19,4.19,0,0,1-1.75,1.33A6.5,6.5,0,0,1,255,160a5.84,5.84,0,0,1-3.33-.87,3.68,3.68,0,0,1-1.58-2.49l2.28-.35a2.2,2.2,0,0,0,.88,1.35,3.06,3.06,0,0,0,1.74.45,3.25,3.25,0,0,0,1.86-.48,1.43,1.43,0,0,0,.69-1.19,1.23,1.23,0,0,0-.43-1,2.87,2.87,0,0,0-1.29-.59l-2-.45a5,5,0,0,1-2.52-1.23,3,3,0,0,1-.81-2.15,3.09,3.09,0,0,1,.61-1.88,3.89,3.89,0,0,1,1.66-1.26,6.12,6.12,0,0,1,2.43-.46,5,5,0,0,1,3.1.86A4,4,0,0,1,259.76,150.58Zm9.41,9.18h-2.6l5.83-16.2h2.83l5.83,16.2h-2.6l-4.58-13.26h-.13Zm.43-6.34H278v2.06H269.6Zm18.06,11.16a7.41,7.41,0,0,1-2.49-.38,4.81,4.81,0,0,1-1.69-1,4.27,4.27,0,0,1-1-1.37l2-.84a4.34,4.34,0,0,0,.57.74,2.92,2.92,0,0,0,1,.67,3.89,3.89,0,0,0,1.6.28,3.62,3.62,0,0,0,2.23-.66,2.41,2.41,0,0,0,.88-2.07v-2.39h-.15a5.48,5.48,0,0,1-.62.86,3.41,3.41,0,0,1-1.09.83,4.12,4.12,0,0,1-1.81.34,5.06,5.06,0,0,1-2.6-.67,4.79,4.79,0,0,1-1.82-2,7.33,7.33,0,0,1-.66-3.27,7.8,7.8,0,0,1,.65-3.32,5.07,5.07,0,0,1,1.82-2.12,4.72,4.72,0,0,1,2.62-.75,3.86,3.86,0,0,1,1.83.38,3.44,3.44,0,0,1,1.08.87,6.81,6.81,0,0,1,.61.88h.18v-2h2.31V160a4,4,0,0,1-2.69,4.06A7.66,7.66,0,0,1,287.66,164.58Zm0-7a3,3,0,0,0,1.72-.47,3,3,0,0,0,1.08-1.38,5.61,5.61,0,0,0,.37-2.16,6,6,0,0,0-.36-2.16,3.3,3.3,0,0,0-1.07-1.46,2.83,2.83,0,0,0-1.74-.53,2.81,2.81,0,0,0-1.78.56,3.29,3.29,0,0,0-1.08,1.48,5.88,5.88,0,0,0-.35,2.11,5.67,5.67,0,0,0,.36,2.1,2.9,2.9,0,0,0,2.85,1.91Zm8.23,2.14V147.61h2.29v1.93h.12a3,3,0,0,1,1.18-1.54,3.33,3.33,0,0,1,1.91-.57l.52,0a4.58,4.58,0,0,1,.49,0v2.26a3.53,3.53,0,0,0-.51-.09,4.48,4.48,0,0,0-.73,0,3,3,0,0,0-1.49.35,2.67,2.67,0,0,0-1.41,2.38v7.42Zm8.11,0V147.61h2.36v12.15ZM304.2,146l1.85-3.65h2.49L306.09,146Zm10,14a5.62,5.62,0,0,1-3-.8,5.4,5.4,0,0,1-2-2.22,7.49,7.49,0,0,1-.68-3.25,7.34,7.34,0,0,1,.7-3.26,5.39,5.39,0,0,1,2-2.23,5.51,5.51,0,0,1,3-.8,5.57,5.57,0,0,1,2.47.52,4.39,4.39,0,0,1,1.75,1.42,4.25,4.25,0,0,1,.8,2.15h-2.3a2.86,2.86,0,0,0-.87-1.48,2.58,2.58,0,0,0-1.81-.61,2.94,2.94,0,0,0-1.73.52,3.37,3.37,0,0,0-1.15,1.47,5.69,5.69,0,0,0-.41,2.25,5.89,5.89,0,0,0,.41,2.29,3.44,3.44,0,0,0,1.14,1.5,2.92,2.92,0,0,0,1.74.53,2.83,2.83,0,0,0,1.22-.25,2.54,2.54,0,0,0,.93-.72,2.71,2.71,0,0,0,.53-1.12h2.3a4.42,4.42,0,0,1-2.48,3.56A5.66,5.66,0,0,1,314.2,160Zm12.19,0a5.61,5.61,0,0,1-3-.78,5.38,5.38,0,0,1-2-2.19,8.13,8.13,0,0,1,0-6.6,5.23,5.23,0,0,1,2-2.2,6,6,0,0,1,6,0,5.23,5.23,0,0,1,2,2.2,8.13,8.13,0,0,1,0,6.6,5.38,5.38,0,0,1-2,2.19A5.62,5.62,0,0,1,326.39,160Zm0-2a2.85,2.85,0,0,0,1.84-.58,3.44,3.44,0,0,0,1.07-1.56,6.54,6.54,0,0,0,0-4.28,3.56,3.56,0,0,0-1.07-1.58,3.18,3.18,0,0,0-3.69,0,3.58,3.58,0,0,0-1.08,1.58,6.72,6.72,0,0,0,0,4.28,3.46,3.46,0,0,0,1.08,1.56A2.88,2.88,0,0,0,326.4,158Zm10.22-14.46v16.2h-2.37v-16.2ZM342.89,160a5,5,0,0,1-2.08-.42,3.45,3.45,0,0,1-1.48-1.26,3.6,3.6,0,0,1-.54-2,3.3,3.3,0,0,1,.39-1.69,2.84,2.84,0,0,1,1.07-1,5.46,5.46,0,0,1,1.51-.59,15.28,15.28,0,0,1,1.69-.3l1.77-.21a2.65,2.65,0,0,0,1-.27.7.7,0,0,0,.31-.62v-.06a2.13,2.13,0,0,0-.59-1.6,2.35,2.35,0,0,0-1.72-.57,3,3,0,0,0-1.89.53,2.9,2.9,0,0,0-.94,1.16l-2.22-.5a4.27,4.27,0,0,1,1.15-1.79,4.78,4.78,0,0,1,1.77-1,6.89,6.89,0,0,1,2.1-.32,7.15,7.15,0,0,1,1.54.18,4.26,4.26,0,0,1,1.53.62,3.4,3.4,0,0,1,1.18,1.28,4.43,4.43,0,0,1,.46,2.16v8.07h-2.31V158.1h-.09a3.46,3.46,0,0,1-1.87,1.64A4.51,4.51,0,0,1,342.89,160Zm.52-1.89a3.42,3.42,0,0,0,1.68-.39,2.74,2.74,0,0,0,1.06-1,2.6,2.6,0,0,0,.38-1.35v-1.56a1.3,1.3,0,0,1-.5.23,6.2,6.2,0,0,1-.81.18l-.89.14-.73.09a5.81,5.81,0,0,0-1.26.3,2.05,2.05,0,0,0-.9.59,1.7,1.7,0,0,0,.32,2.34A2.82,2.82,0,0,0,343.41,158.14Zm17.29-7.56-2.14.38a2.31,2.31,0,0,0-.43-.78,2,2,0,0,0-.77-.61,2.81,2.81,0,0,0-1.23-.24,3,3,0,0,0-1.68.45,1.32,1.32,0,0,0-.67,1.15,1.22,1.22,0,0,0,.45,1,3.66,3.66,0,0,0,1.46.61l1.93.44a5.17,5.17,0,0,1,2.5,1.2,2.77,2.77,0,0,1,.82,2.09,3.2,3.2,0,0,1-.63,1.95,4.19,4.19,0,0,1-1.75,1.33A6.5,6.5,0,0,1,356,160a5.84,5.84,0,0,1-3.33-.87,3.68,3.68,0,0,1-1.58-2.49l2.28-.35a2.2,2.2,0,0,0,.88,1.35,3.06,3.06,0,0,0,1.74.45,3.25,3.25,0,0,0,1.86-.48,1.43,1.43,0,0,0,.69-1.19,1.23,1.23,0,0,0-.43-1,2.77,2.77,0,0,0-1.29-.59l-2.05-.45a5,5,0,0,1-2.52-1.23,3,3,0,0,1-.8-2.15,3.08,3.08,0,0,1,.6-1.88,3.89,3.89,0,0,1,1.66-1.26,6.12,6.12,0,0,1,2.43-.46,5,5,0,0,1,3.1.86A4,4,0,0,1,360.7,150.58Z"/></svg>