<svg id="Capa_1" data-name="Capa 1" xmlns="http://www.w3.org/2000/svg" viewBox="0 0 498 485"><defs><style>.cls-1{fill:#e6e6e6;}.cls-2,.cls-5{fill:none;}.cls-2{stroke:#191919;stroke-opacity:0.1;stroke-width:1.76px;}.cls-3{opacity:0.4;}.cls-4{fill:#121a1b;opacity:0.2;isolation:isolate;}.cls-5{stroke:#121a1b;stroke-linecap:round;stroke-linejoin:round;stroke-width:3.7px;}.cls-6{fill:#2a2a2a;}.cls-7{fill:#242424;fill-opacity:0.5;}</style></defs><title>bpa-bpg-mobile</title><rect class="cls-1" x="37.62" y="259.25" width="422.76" height="189.86" rx="27.93"/><rect class="cls-2" x="38.73" y="260.36" width="420.52" height="187.63" rx="26.8"/><g class="cls-3"><path class="cls-4" d="M128.45,351.5a15.15,15.15,0,1,0-15.14-15.15,15.15,15.15,0,0,0,15.14,15.15Z"/><path class="cls-5" d="M128.45,336.35,158.74,306"/><path class="cls-5" d="M149.87,314.93a30.28,30.28,0,1,0,5.92,8.36"/><path class="cls-5" d="M139.16,325.65a15.16,15.16,0,1,0,4.36,9.81"/></g><path class="cls-6" d="M190.74,366.84V304.62h24.91a28.23,28.23,0,0,1,11.42,2,15.11,15.11,0,0,1,6.9,5.66,14.88,14.88,0,0,1,2.31,8.26,13.42,13.42,0,0,1-1.46,6.4,12.67,12.67,0,0,1-4,4.5A16.62,16.62,0,0,1,225,334v.59a14.27,14.27,0,0,1,11.73,7.21,15.26,15.26,0,0,1,1.94,7.9,16.1,16.1,0,0,1-2.46,8.83,16.67,16.67,0,0,1-7.2,6.12,27.56,27.56,0,0,1-11.75,2.24Zm13.16-10.75h10.73q5.44,0,8-2.1a7,7,0,0,0,2.51-5.65,8.12,8.12,0,0,0-4.8-7.63,12.18,12.18,0,0,0-5.45-1.09h-11Zm0-25.44h9.75a11.45,11.45,0,0,0,4.8-.93,7.9,7.9,0,0,0,3.34-2.74,7.09,7.09,0,0,0,1.25-4.21,6.81,6.81,0,0,0-2.4-5.45,9.93,9.93,0,0,0-6.74-2.07h-10Zm41.69,36.19V304.62h24.54a25,25,0,0,1,12.07,2.71,18.34,18.34,0,0,1,7.62,7.44,23.81,23.81,0,0,1,0,21.88,18.34,18.34,0,0,1-7.74,7.37,26,26,0,0,1-12.22,2.65h-15.7V336.12h13.52a13.28,13.28,0,0,0,6.26-1.3,8.62,8.62,0,0,0,3.7-3.67,11.47,11.47,0,0,0,1.24-5.45,11.21,11.21,0,0,0-1.24-5.45,8.35,8.35,0,0,0-3.7-3.62,13.53,13.53,0,0,0-6.32-1.31h-8.87v51.52Zm94.93-42.1a13.51,13.51,0,0,0-1.79-3.92,10.74,10.74,0,0,0-2.83-2.91,11.93,11.93,0,0,0-3.76-1.87,16.25,16.25,0,0,0-4.65-.63,14.9,14.9,0,0,0-8.38,2.37,15.45,15.45,0,0,0-5.59,6.89,27,27,0,0,0-2,11,27.49,27.49,0,0,0,2,11.05,15.45,15.45,0,0,0,5.59,7,15.21,15.21,0,0,0,8.53,2.36,16.77,16.77,0,0,0,7.63-1.58A11.29,11.29,0,0,0,340.1,350a13.51,13.51,0,0,0,1.7-6.9l2.68.4H328.41v-9.91h26v7.85A27.24,27.24,0,0,1,351,355.48a23.59,23.59,0,0,1-9.53,9,32.38,32.38,0,0,1-29.29-.7,26.76,26.76,0,0,1-10.33-11,36.81,36.81,0,0,1-3.67-17,38.7,38.7,0,0,1,2.18-13.49,28.87,28.87,0,0,1,6.28-10.09,26.76,26.76,0,0,1,9.26-6.29,31.77,31.77,0,0,1,21.25-.61,26.26,26.26,0,0,1,8.08,4.36,23.28,23.28,0,0,1,5.8,6.66,22.42,22.42,0,0,1,2.89,8.44Z"/><path class="cls-7" d="M90,407.11V389.46h6.47a7,7,0,0,1,3.11.62,4.27,4.27,0,0,1,1.85,1.67,4.63,4.63,0,0,1,.61,2.35,3.91,3.91,0,0,1-.42,1.87,3,3,0,0,1-1.09,1.19,4.72,4.72,0,0,1-1.48.67V398a3.5,3.5,0,0,1,1.71.58,4,4,0,0,1,1.4,1.47,4.53,4.53,0,0,1,.55,2.33,4.68,4.68,0,0,1-.64,2.43,4.3,4.3,0,0,1-1.94,1.69,8,8,0,0,1-3.38.62Zm2.67-2.27h3.84a4.1,4.1,0,0,0,2.74-.75,2.38,2.38,0,0,0,.83-1.85,2.91,2.91,0,0,0-1.63-2.62,3.72,3.72,0,0,0-1.85-.42H92.67Zm0-7.74h3.56a3.57,3.57,0,0,0,1.61-.35,2.68,2.68,0,0,0,1.15-1,2.49,2.49,0,0,0,.43-1.48,2.46,2.46,0,0,0-.76-1.84,3.24,3.24,0,0,0-2.35-.74H92.67Zm20.91,4.52v-7.75h2.59v13.24h-2.54v-2.29h-.14a4.07,4.07,0,0,1-1.46,1.77,4.24,4.24,0,0,1-2.49.7,4.56,4.56,0,0,1-2.26-.56,3.91,3.91,0,0,1-1.54-1.68,6.18,6.18,0,0,1-.55-2.75v-8.43h2.58V402a3,3,0,0,0,.75,2.18,2.54,2.54,0,0,0,2,.8,3.26,3.26,0,0,0,1.44-.36,3.08,3.08,0,0,0,1.2-1.09,3.32,3.32,0,0,0,.47-1.9Zm11.28,5.75a6.43,6.43,0,0,1-3.38-.83,5.67,5.67,0,0,1-2.18-2.37,8.81,8.81,0,0,1,0-7.18,5.71,5.71,0,0,1,5.36-3.27,6.74,6.74,0,0,1,2.18.37,5.31,5.31,0,0,1,1.89,1.17,5.48,5.48,0,0,1,1.32,2.06,8.6,8.6,0,0,1,.48,3.06v.91H120v-1.92h8a3.67,3.67,0,0,0-.41-1.81,3.13,3.13,0,0,0-1.17-1.25,3.59,3.59,0,0,0-3.62.08,3.66,3.66,0,0,0-1.25,1.37,4,4,0,0,0-.43,1.85v1.5a4.83,4.83,0,0,0,.47,2.27,3.24,3.24,0,0,0,1.31,1.41,3.83,3.83,0,0,0,2,.49,4.73,4.73,0,0,0,1.34-.2,2.86,2.86,0,0,0,1-.65,2.76,2.76,0,0,0,.68-1.09l2.44.45a4.4,4.4,0,0,1-1.09,1.88,5.18,5.18,0,0,1-1.9,1.26A7,7,0,0,1,124.86,407.37Zm10.63-8.12v7.85h-2.58V393.87h2.47v2.18h.16a3.91,3.91,0,0,1,1.43-1.69,4.52,4.52,0,0,1,2.49-.64,4.74,4.74,0,0,1,2.36.58A3.75,3.75,0,0,1,143.4,396a6,6,0,0,1,.56,2.74v8.42h-2.58V399a3.21,3.21,0,0,0-.75-2.26,2.63,2.63,0,0,0-2.06-.81,3.19,3.19,0,0,0-1.6.39,2.79,2.79,0,0,0-1.09,1.09,3.91,3.91,0,0,0-.34,1.82Zm15.31,8.12a5.43,5.43,0,0,1-2.28-.45,3.85,3.85,0,0,1-1.61-1.38,3.89,3.89,0,0,1-.59-2.18,3.41,3.41,0,0,1,.44-1.84,3,3,0,0,1,1.16-1.09,6,6,0,0,1,1.64-.64,18.62,18.62,0,0,1,1.84-.33l1.93-.22a3,3,0,0,0,1.09-.3.74.74,0,0,0,.33-.67v-.07a2.25,2.25,0,0,0-.63-1.74,2.54,2.54,0,0,0-1.88-.62,3.25,3.25,0,0,0-2.05.57,3,3,0,0,0-1,1.27l-2.43-.55a4.69,4.69,0,0,1,1.27-1.95,5.1,5.1,0,0,1,1.92-1.09,7.69,7.69,0,0,1,2.28-.35,7.87,7.87,0,0,1,1.68.2,4.65,4.65,0,0,1,1.68.68,3.75,3.75,0,0,1,1.29,1.39,5,5,0,0,1,.5,2.35v8.8h-2.52V405.3h-.11a3.5,3.5,0,0,1-.75,1,4,4,0,0,1-1.29.79A4.63,4.63,0,0,1,150.8,407.37Zm.55-2.05a3.74,3.74,0,0,0,1.83-.43,3,3,0,0,0,1.17-1.09,2.92,2.92,0,0,0,.4-1.47v-1.7a1.44,1.44,0,0,1-.53.25,8.82,8.82,0,0,1-.89.2l-1,.15-.8.1a5.81,5.81,0,0,0-1.37.32,2.26,2.26,0,0,0-1,.65,1.58,1.58,0,0,0-.36,1.09,1.67,1.67,0,0,0,.71,1.45,3.05,3.05,0,0,0,1.78.51Zm18.85-8.24-2.34.41a2.61,2.61,0,0,0-.46-.85,2,2,0,0,0-.85-.66,2.92,2.92,0,0,0-1.34-.26,3.11,3.11,0,0,0-1.82.49,1.46,1.46,0,0,0-.74,1.25,1.32,1.32,0,0,0,.5,1.09,4.07,4.07,0,0,0,1.58.66l2.11.48a5.58,5.58,0,0,1,2.72,1.31,3,3,0,0,1,.9,2.28,3.52,3.52,0,0,1-.69,2.12,4.42,4.42,0,0,1-1.91,1.45,6.94,6.94,0,0,1-2.81.52,6.35,6.35,0,0,1-3.63-.94,4,4,0,0,1-1.73-2.72l2.5-.38a2.27,2.27,0,0,0,.95,1.47,3.25,3.25,0,0,0,1.89.49,3.47,3.47,0,0,0,2-.52,1.58,1.58,0,0,0,.76-1.3,1.42,1.42,0,0,0-.47-1.09,3.18,3.18,0,0,0-1.41-.64l-2.24-.49a5.48,5.48,0,0,1-2.74-1.34,3.27,3.27,0,0,1-.88-2.34,3.35,3.35,0,0,1,.66-2.05,4.2,4.2,0,0,1,1.8-1.37,6.54,6.54,0,0,1,2.65-.5,5.47,5.47,0,0,1,3.38.93,4.37,4.37,0,0,1,1.62,2.53Zm8.72,10V389.43h6.3a7,7,0,0,1,3.41.75,4.89,4.89,0,0,1,2,2.05,6.67,6.67,0,0,1,0,5.85,4.92,4.92,0,0,1-2,2.05,7,7,0,0,1-3.4.75h-4.36v-2.22H185a4.39,4.39,0,0,0,2.11-.45,2.91,2.91,0,0,0,1.19-1.24,4.39,4.39,0,0,0,0-3.55,2.72,2.72,0,0,0-1.2-1.22,4.45,4.45,0,0,0-2.18-.44h-3.36v15.36Zm14.84,0V393.87h2.49V396h.14a3.16,3.16,0,0,1,1.26-1.68,3.63,3.63,0,0,1,2.09-.62h1.09v2.46a3.33,3.33,0,0,0-.55-.1,5.21,5.21,0,0,0-.79,0,3.43,3.43,0,0,0-1.63.38,3,3,0,0,0-1.09,1.09,2.84,2.84,0,0,0-.41,1.53v8.08Zm12.61.29a5.43,5.43,0,0,1-2.28-.45,3.72,3.72,0,0,1-2.2-3.56,3.6,3.6,0,0,1,.44-1.84,3,3,0,0,1,1.16-1.09,6,6,0,0,1,1.64-.64,18.62,18.62,0,0,1,1.84-.33l1.94-.22a3,3,0,0,0,1.09-.3.75.75,0,0,0,.32-.67v-.07a2.25,2.25,0,0,0-.63-1.74,2.54,2.54,0,0,0-1.88-.62,3.25,3.25,0,0,0-2.05.57,3.12,3.12,0,0,0-1,1.27l-2.41-.55a4.49,4.49,0,0,1,1.25-1.95,5.1,5.1,0,0,1,1.92-1.09,7.69,7.69,0,0,1,2.28-.35,7.87,7.87,0,0,1,1.68.2,4.65,4.65,0,0,1,1.68.68,3.75,3.75,0,0,1,1.29,1.39,5,5,0,0,1,.5,2.35v8.8H210.4V405.3h-.11a3.5,3.5,0,0,1-.75,1,3.93,3.93,0,0,1-1.28.79A4.85,4.85,0,0,1,206.37,407.37Zm.55-2.05a3.8,3.8,0,0,0,1.84-.43,3,3,0,0,0,1.16-1.09,2.71,2.71,0,0,0,.4-1.47v-1.7a1.3,1.3,0,0,1-.53.25,8.63,8.63,0,0,1-.88.2l-1,.15-.8.1a7.08,7.08,0,0,0-1.36.32,2.35,2.35,0,0,0-1,.65,1.58,1.58,0,0,0-.36,1.09,1.67,1.67,0,0,0,.71,1.45,3.15,3.15,0,0,0,1.77.51Zm-.1-13.2,2-4h2.71l-2.66,4Zm14.59,15.25a6.15,6.15,0,0,1-3.27-.87,5.84,5.84,0,0,1-2.12-2.42,8.83,8.83,0,0,1,0-7.09,5.76,5.76,0,0,1,5.4-3.27,6.11,6.11,0,0,1,2.69.57,4.75,4.75,0,0,1,1.89,1.55,4.59,4.59,0,0,1,.88,2.34h-2.51a3,3,0,0,0-1-1.61,2.76,2.76,0,0,0-2-.67,3.29,3.29,0,0,0-1.9.57,3.56,3.56,0,0,0-1.24,1.6,5.88,5.88,0,0,0-.44,2.45,6.31,6.31,0,0,0,.43,2.5,3.85,3.85,0,0,0,1.24,1.63,3.26,3.26,0,0,0,1.91.58,3.2,3.2,0,0,0,1.33-.27,2.77,2.77,0,0,0,1-.85,2.87,2.87,0,0,0,.58-1.22h2.51a4.89,4.89,0,0,1-.91,2.31,4.8,4.8,0,0,1-1.87,1.59A6,6,0,0,1,221.41,407.37Zm13.89-13.51v2.07h-7.24v-2.07Zm-5.3-3.17h2.58v12.53a2.25,2.25,0,0,0,.23,1.09,1.07,1.07,0,0,0,.58.51,2.35,2.35,0,0,0,.79.14,4.68,4.68,0,0,0,.53,0l.37-.07.46,2.12a3.73,3.73,0,0,1-.63.18,5.36,5.36,0,0,1-2.94-.26,3.31,3.31,0,0,1-1.42-1.17,3.5,3.5,0,0,1-.55-2Zm7.63,16.41V393.87h2.58v13.24Zm1.31-15.25a1.7,1.7,0,0,1-1.16-.45,1.49,1.49,0,0,1-.48-1.09,1.51,1.51,0,0,1,.48-1.09,1.67,1.67,0,0,1,1.16-.46,1.62,1.62,0,0,1,1.14.46,1.43,1.43,0,0,1,.48,1.09,1.42,1.42,0,0,1-.48,1.09,1.64,1.64,0,0,1-1.11.44Zm9.8,15.55a6,6,0,0,1-3.26-.88,5.6,5.6,0,0,1-2.06-2.41,8.18,8.18,0,0,1-.75-3.55,8,8,0,0,1,.77-3.55,5.81,5.81,0,0,1,2.18-2.43,6,6,0,0,1,3.27-.87,6.14,6.14,0,0,1,2.69.57,4.91,4.91,0,0,1,1.9,1.54,4.75,4.75,0,0,1,.88,2.35h-2.51a3.07,3.07,0,0,0-1-1.62,2.8,2.8,0,0,0-2-.66,3.14,3.14,0,0,0-1.89.57,3.59,3.59,0,0,0-1.25,1.6,6.41,6.41,0,0,0-.45,2.45,6.5,6.5,0,0,0,.44,2.5,3.75,3.75,0,0,0,1.24,1.63,3.29,3.29,0,0,0,1.84.56,3.17,3.17,0,0,0,1.33-.28,2.58,2.58,0,0,0,1-.78,3.13,3.13,0,0,0,.58-1.22h2.51a4.86,4.86,0,0,1-.84,2.29,4.8,4.8,0,0,1-1.87,1.59,6.19,6.19,0,0,1-2.78.57Zm11.58,0a5.57,5.57,0,0,1-2.28-.46,3.77,3.77,0,0,1-1.61-1.37,3.94,3.94,0,0,1-.59-2.18,3.45,3.45,0,0,1,.43-1.84,3,3,0,0,1,1.17-1.09,5.73,5.73,0,0,1,1.63-.65,16.87,16.87,0,0,1,1.84-.32l1.93-.23a3,3,0,0,0,1.09-.3.72.72,0,0,0,.34-.67v-.07a2.34,2.34,0,0,0-.63-1.74,2.55,2.55,0,0,0-1.89-.62,3.28,3.28,0,0,0-2,.57,3.11,3.11,0,0,0-1,1.27l-2.43-.55a4.75,4.75,0,0,1,1.27-1.95,5.2,5.2,0,0,1,1.91-1.09,7.43,7.43,0,0,1,2.29-.34,7.27,7.27,0,0,1,1.68.19,4.84,4.84,0,0,1,1.68.68,3.79,3.79,0,0,1,1.28,1.39,4.92,4.92,0,0,1,.5,2.36v8.79h-2.52V405.3h-.1a3.69,3.69,0,0,1-.75,1,4.08,4.08,0,0,1-1.29.79,4.77,4.77,0,0,1-1.83.28Zm.55-2.06a3.63,3.63,0,0,0,1.83-.43,2.85,2.85,0,0,0,1.57-2.56v-1.7a1.36,1.36,0,0,1-.53.25,6.88,6.88,0,0,1-.9.2l-1,.15-.79.1a6.37,6.37,0,0,0-1.37.33,2.24,2.24,0,0,0-1,.64,1.86,1.86,0,0,0,.35,2.54,3.12,3.12,0,0,0,1.86.49Zm18.85-8.24-2.34.41a2.81,2.81,0,0,0-.46-.85,2.13,2.13,0,0,0-.85-.66,3,3,0,0,0-1.34-.26,3.09,3.09,0,0,0-1.82.49,1.44,1.44,0,0,0-.74,1.25,1.35,1.35,0,0,0,.5,1.09,4,4,0,0,0,1.58.67l2.1.47a5.7,5.7,0,0,1,2.73,1.31,3,3,0,0,1,.89,2.28,3.51,3.51,0,0,1-.68,2.12,4.54,4.54,0,0,1-1.91,1.45,7,7,0,0,1-2.81.53,6.47,6.47,0,0,1-3.64-.95,4.08,4.08,0,0,1-1.72-2.71l2.49-.39a2.32,2.32,0,0,0,1,1.47,3.22,3.22,0,0,0,1.89.5,3.5,3.5,0,0,0,2-.53,1.57,1.57,0,0,0,.77-1.29,1.4,1.4,0,0,0-.47-1.09,3.2,3.2,0,0,0-1.41-.65l-2.24-.49a5.48,5.48,0,0,1-2.74-1.34,3.26,3.26,0,0,1-.88-2.34,3.4,3.4,0,0,1,.65-2,4.23,4.23,0,0,1,1.81-1.37,6.51,6.51,0,0,1,2.65-.5,5.47,5.47,0,0,1,3.38.93,4.42,4.42,0,0,1,1.69,2.51Zm20.7-2.07a5.37,5.37,0,0,0-.67-1.41,4.34,4.34,0,0,0-2.31-1.75,5.5,5.5,0,0,0-1.61-.23,5,5,0,0,0-2.7.76,5.26,5.26,0,0,0-1.89,2.26,9.74,9.74,0,0,0,0,7.24,5.18,5.18,0,0,0,1.92,2.25,5,5,0,0,0,2.75.77,5.11,5.11,0,0,0,2.52-.59,4.06,4.06,0,0,0,1.66-1.65,5.23,5.23,0,0,0,.6-2.54l.68.13h-5v-2.18h7v2a7.5,7.5,0,0,1-.94,3.85,6.59,6.59,0,0,1-2.61,2.52,8.51,8.51,0,0,1-8-.22,7.5,7.5,0,0,1-2.81-3.12,10.91,10.91,0,0,1-1-4.83,11.34,11.34,0,0,1,.59-3.79,8.24,8.24,0,0,1,1.64-2.86,7.38,7.38,0,0,1,2.51-1.8,7.79,7.79,0,0,1,3.16-.63,8.07,8.07,0,0,1,2.67.43,6.85,6.85,0,0,1,2.18,1.2,6.83,6.83,0,0,1,2.48,4.19Zm9.46,12.34a5.43,5.43,0,0,1-2.28-.45,3.66,3.66,0,0,1-2.17-3.58,3.58,3.58,0,0,1,.42-1.84,3,3,0,0,1,1.17-1.09,6,6,0,0,1,1.63-.64c.61-.14,1.22-.25,1.84-.33l1.94-.23a2.76,2.76,0,0,0,1.09-.29.76.76,0,0,0,.33-.68v-.06a2.35,2.35,0,0,0-.63-1.75,2.6,2.6,0,0,0-1.89-.62,3.32,3.32,0,0,0-2.05.58,3,3,0,0,0-1,1.27l-2.42-.55a4.49,4.49,0,0,1,1.25-1.95,5.22,5.22,0,0,1,1.93-1.09,7.69,7.69,0,0,1,2.28-.35,8,8,0,0,1,1.69.2,4.54,4.54,0,0,1,1.66.67,3.77,3.77,0,0,1,1.29,1.4,4.79,4.79,0,0,1,.5,2.35v8.79h-2.52V405.3h-.1a3.53,3.53,0,0,1-.76,1,3.88,3.88,0,0,1-1.27.79A4.77,4.77,0,0,1,309.88,407.37Zm.56-2.05a3.77,3.77,0,0,0,1.83-.43,3,3,0,0,0,1.16-1.09,2.81,2.81,0,0,0,.41-1.47v-1.7a1.34,1.34,0,0,1-.54.25,8.63,8.63,0,0,1-.88.2l-1,.15-.78.1a6,6,0,0,0-1.38.32,2.35,2.35,0,0,0-1,.65,1.58,1.58,0,0,0-.36,1.09,1.67,1.67,0,0,0,.71,1.45,3.14,3.14,0,0,0,1.79.51Zm11.5-6.1v7.86h-2.58V393.87h2.51v2.18H322a3.81,3.81,0,0,1,1.44-1.69,4.46,4.46,0,0,1,2.47-.64,4.68,4.68,0,0,1,2.37.58,3.7,3.7,0,0,1,1.58,1.67,5.86,5.86,0,0,1,.56,2.74v8.42h-2.58V399a3.21,3.21,0,0,0-.75-2.26,2.66,2.66,0,0,0-2.06-.81,3.17,3.17,0,0,0-1.59.39,2.79,2.79,0,0,0-1.09,1.09,3.83,3.83,0,0,0-.45,1.82Zm15.26,8.15a5.43,5.43,0,0,1-2.28-.45,3.72,3.72,0,0,1-2.2-3.56,3.6,3.6,0,0,1,.44-1.84,3,3,0,0,1,1.16-1.09,6.17,6.17,0,0,1,1.71-.68,16.5,16.5,0,0,1,1.84-.33l1.94-.23a2.76,2.76,0,0,0,1.09-.29.76.76,0,0,0,.33-.68v-.06a2.35,2.35,0,0,0-.63-1.75,2.6,2.6,0,0,0-1.89-.62,3.27,3.27,0,0,0-2,.58,3.14,3.14,0,0,0-1,1.26l-2.42-.54a4.58,4.58,0,0,1,1.25-1.95,5.22,5.22,0,0,1,1.93-1.09,7.69,7.69,0,0,1,2.28-.35,7.37,7.37,0,0,1,1.69.2,4.66,4.66,0,0,1,1.67.67,3.75,3.75,0,0,1,1.28,1.4,4.69,4.69,0,0,1,.5,2.35v8.79h-2.51V405.3h-.11a3.69,3.69,0,0,1-.75,1,4,4,0,0,1-1.28.79,4.92,4.92,0,0,1-1.94.28Zm.55-2.05a3.74,3.74,0,0,0,1.83-.43,2.93,2.93,0,0,0,1.17-1.09,2.71,2.71,0,0,0,.4-1.47v-1.7a1.3,1.3,0,0,1-.53.25,8.63,8.63,0,0,1-.88.2l-1,.15-.79.1a5.81,5.81,0,0,0-1.37.32,2.35,2.35,0,0,0-1,.65,1.58,1.58,0,0,0-.36,1.09,1.67,1.67,0,0,0,.71,1.45,3.12,3.12,0,0,0,1.83.51Zm13.92,2.05a5.09,5.09,0,0,1-2.86-.81,5.66,5.66,0,0,1-2-2.36,9.8,9.8,0,0,1,0-7.35,5.49,5.49,0,0,1,2-2.33,5.06,5.06,0,0,1,2.85-.82,4.08,4.08,0,0,1,2,.41,3.71,3.71,0,0,1,1.17.95,10.22,10.22,0,0,1,.66,1h.15v-6.54h2.57v17.65H355.7v-2.05h-.21a8,8,0,0,1-.67,1,3.87,3.87,0,0,1-1.19.94A4,4,0,0,1,351.67,407.37Zm.57-2.17a3,3,0,0,0,1.88-.58A3.84,3.84,0,0,0,355.3,403a7,7,0,0,0,.4-2.45,6.69,6.69,0,0,0-.4-2.42,3.65,3.65,0,0,0-1.16-1.61,3.07,3.07,0,0,0-1.9-.58,3,3,0,0,0-1.93.61,3.68,3.68,0,0,0-1.18,1.65,7.26,7.26,0,0,0,0,4.74,3.86,3.86,0,0,0,1.17,1.68A3.05,3.05,0,0,0,352.24,405.2Zm14.89,2.17a6.61,6.61,0,0,1-3.37-.83,5.79,5.79,0,0,1-2.18-2.37,9,9,0,0,1,0-7.18,5.74,5.74,0,0,1,5.38-3.27,6.79,6.79,0,0,1,2.18.37,5.41,5.41,0,0,1,1.88,1.17,5.48,5.48,0,0,1,1.32,2.06,8.39,8.39,0,0,1,.49,3.06v.91H362.29v-1.92h8a3.9,3.9,0,0,0-.41-1.81,3.13,3.13,0,0,0-1.17-1.25,3.23,3.23,0,0,0-1.74-.45,3.37,3.37,0,0,0-1.9.53,3.63,3.63,0,0,0-1.24,1.37,4.12,4.12,0,0,0-.43,1.85v1.5a5.22,5.22,0,0,0,.46,2.27,3.33,3.33,0,0,0,1.32,1.41,3.83,3.83,0,0,0,2,.49,4.61,4.61,0,0,0,1.33-.2,3,3,0,0,0,1.09-.65,2.83,2.83,0,0,0,.68-1.09l2.44.45a4.3,4.3,0,0,1-1.09,1.88,5.27,5.27,0,0,1-1.89,1.26A6.92,6.92,0,0,1,367.13,407.37Zm8.06-.27V393.87h2.49V396h.14a3.18,3.18,0,0,1,1.27-1.68,3.61,3.61,0,0,1,2.09-.62h1.1v2.46a3.66,3.66,0,0,0-.56-.1,5.08,5.08,0,0,0-.78,0,3.47,3.47,0,0,0-1.64.38,2.92,2.92,0,0,0-1.54,2.6v8.08Zm12.57.3a5.57,5.57,0,0,1-2.28-.46,3.77,3.77,0,0,1-1.61-1.37,3.94,3.94,0,0,1-.59-2.18,3.45,3.45,0,0,1,.43-1.84,3,3,0,0,1,1.17-1.09,5.73,5.73,0,0,1,1.63-.65,16.64,16.64,0,0,1,1.85-.32l1.92-.23a2.9,2.9,0,0,0,1.09-.3.72.72,0,0,0,.34-.67v-.07a2.34,2.34,0,0,0-.63-1.74,2.54,2.54,0,0,0-1.88-.62,3.31,3.31,0,0,0-2.05.57,3.11,3.11,0,0,0-1,1.27l-2.43-.55A4.75,4.75,0,0,1,385,395.2a5.2,5.2,0,0,1,1.91-1.09,7.43,7.43,0,0,1,2.29-.34,7.27,7.27,0,0,1,1.68.19,4.84,4.84,0,0,1,1.68.68A3.79,3.79,0,0,1,393.8,396a5.05,5.05,0,0,1,.51,2.36v8.79h-2.52V405.3h-.11a3.69,3.69,0,0,1-.75,1,4.08,4.08,0,0,1-1.29.79,4.63,4.63,0,0,1-1.88.28Zm.55-2.06a3.63,3.63,0,0,0,1.83-.43,2.92,2.92,0,0,0,1.17-1.09,2.71,2.71,0,0,0,.4-1.47v-1.7a1.36,1.36,0,0,1-.53.25,6.88,6.88,0,0,1-.9.2l-1,.15-.79.1a6.37,6.37,0,0,0-1.37.33,2.15,2.15,0,0,0-1,.64,1.6,1.6,0,0,0-.36,1.09,1.66,1.66,0,0,0,.7,1.45,3.09,3.09,0,0,0,1.82.49Zm18.85-8.24-2.34.41a2.61,2.61,0,0,0-.46-.85,2.13,2.13,0,0,0-.85-.66,3,3,0,0,0-1.34-.26,3.26,3.26,0,0,0-1.82.49,1.43,1.43,0,0,0-.73,1.25,1.34,1.34,0,0,0,.49,1.09,4,4,0,0,0,1.58.67l2.11.47a5.67,5.67,0,0,1,2.72,1.31,3,3,0,0,1,.9,2.28,3.45,3.45,0,0,1-.69,2.12,4.54,4.54,0,0,1-1.91,1.45,7,7,0,0,1-2.81.53,6.44,6.44,0,0,1-3.63-.95,4.06,4.06,0,0,1-1.73-2.71l2.49-.39a2.32,2.32,0,0,0,1,1.47,3.24,3.24,0,0,0,1.89.5,3.5,3.5,0,0,0,2-.53,1.57,1.57,0,0,0,.77-1.29,1.4,1.4,0,0,0-.47-1.09,3.2,3.2,0,0,0-1.41-.65l-2.24-.49a5.48,5.48,0,0,1-2.74-1.34,3.26,3.26,0,0,1-.88-2.34,3.4,3.4,0,0,1,.65-2,4.37,4.37,0,0,1,1.81-1.37,6.51,6.51,0,0,1,2.65-.5,5.47,5.47,0,0,1,3.38.93,4.29,4.29,0,0,1,1.63,2.51Z"/><rect class="cls-1" x="37.62" y="33.25" width="422.76" height="189.86" rx="27.93"/><rect class="cls-2" x="38.73" y="34.36" width="420.52" height="187.63" rx="26.8"/><g class="cls-3"><path class="cls-4" d="M128.46,125.5a15.15,15.15,0,1,0-15.13-15.16h0A15.15,15.15,0,0,0,128.46,125.5Z"/><path class="cls-5" d="M128.46,110.35,158.75,80"/><path class="cls-5" d="M149.87,88.93a30.24,30.24,0,1,0,5.95,8.36"/><path class="cls-5" d="M139.16,99.65a15.13,15.13,0,1,0,4.43,9.81"/></g><path class="cls-6" d="M190.75,140.84V78.62h24.91a28.28,28.28,0,0,1,11.46,2A15.08,15.08,0,0,1,234,86.32a14.88,14.88,0,0,1,2.31,8.26,13.42,13.42,0,0,1-1.46,6.4,12.57,12.57,0,0,1-4,4.5,16.52,16.52,0,0,1-5.77,2.47v.59a14.2,14.2,0,0,1,11.72,7.21,15.27,15.27,0,0,1,1.95,7.9,16.1,16.1,0,0,1-2.46,8.83,16.67,16.67,0,0,1-7.2,6.12,27.61,27.61,0,0,1-11.76,2.24Zm13.16-10.75h10.75c3.66,0,6.34-.7,8-2.1a7,7,0,0,0,2.52-5.65,8.15,8.15,0,0,0-4.8-7.63,12.13,12.13,0,0,0-5.44-1.09H203.91Zm0-25.44h9.8a11.48,11.48,0,0,0,4.8-.93,8,8,0,0,0,3.34-2.74,7.1,7.1,0,0,0,1.24-4.21,6.81,6.81,0,0,0-2.39-5.45A9.89,9.89,0,0,0,214,89.25H204Zm41.68,36.19V78.62h24.55a25.08,25.08,0,0,1,12.08,2.71,18.31,18.31,0,0,1,7.62,7.43,22,22,0,0,1,2.64,10.89,21.71,21.71,0,0,1-2.67,10.9,18.33,18.33,0,0,1-7.75,7.38,25.91,25.91,0,0,1-12.21,2.64H254.16V110.12h13.52a13.17,13.17,0,0,0,6.27-1.3,8.73,8.73,0,0,0,3.7-3.67,11.47,11.47,0,0,0,1.24-5.45,11.1,11.1,0,0,0-1.24-5.45,8.41,8.41,0,0,0-3.7-3.62,13.53,13.53,0,0,0-6.32-1.31h-8.87v51.52Zm57.22,0H288.75l21.48-62.22h17l21.44,62.22H334.52L318.94,92.9h-.49Zm-.87-24.45h33.29v10.26H301.94Z"/><path class="cls-7" d="M90,181.11V163.46h6.46a7,7,0,0,1,3.12.62,4.19,4.19,0,0,1,1.84,1.67,4.61,4.61,0,0,1,.61,2.35,4,4,0,0,1-.4,1.87,3.37,3.37,0,0,1-1.09,1.19,4.65,4.65,0,0,1-1.49.67V172a3.57,3.57,0,0,1,1.73.58,4,4,0,0,1,1.39,1.47,5,5,0,0,1-.09,4.76,4.28,4.28,0,0,1-2,1.69,7.9,7.9,0,0,1-3.36.62Zm2.61-2.27h3.85a4.16,4.16,0,0,0,2.75-.75,2.41,2.41,0,0,0,.82-1.85,2.85,2.85,0,0,0-.42-1.53,2.9,2.9,0,0,0-1.21-1.09,3.69,3.69,0,0,0-1.84-.42H92.62Zm0-7.74H96.2a3.57,3.57,0,0,0,1.61-.35,2.81,2.81,0,0,0,1.09-1,2.67,2.67,0,0,0,.44-1.48,2.46,2.46,0,0,0-.78-1.84,3.23,3.23,0,0,0-2.35-.74H92.62Zm20.92,4.52v-7.75h2.59v13.24H113.6v-2.29h-.14a4.09,4.09,0,0,1-1.47,1.77,4.24,4.24,0,0,1-2.49.7,4.56,4.56,0,0,1-2.26-.56,3.88,3.88,0,0,1-1.53-1.68,6.33,6.33,0,0,1-.56-2.75v-8.43h2.59V176a3,3,0,0,0,.74,2.18,2.58,2.58,0,0,0,2,.8,3.3,3.3,0,0,0,1.44-.36,3.15,3.15,0,0,0,1.2-1.09,3.37,3.37,0,0,0,.52-1.9Zm11.32,5.75a6.58,6.58,0,0,1-3.37-.83,5.67,5.67,0,0,1-2.18-2.37,8.81,8.81,0,0,1,0-7.18,5.71,5.71,0,0,1,5.36-3.27,6.74,6.74,0,0,1,2.18.37,5.25,5.25,0,0,1,3.2,3.27,8.39,8.39,0,0,1,.49,3.06v.92H120v-1.93h8a3.78,3.78,0,0,0-.41-1.81,3.1,3.1,0,0,0-1.17-1.24,3.31,3.31,0,0,0-1.74-.46,3.4,3.4,0,0,0-1.89.53,3.68,3.68,0,0,0-1.25,1.38,4,4,0,0,0-.42,1.84v1.5a5.08,5.08,0,0,0,.46,2.27,3.45,3.45,0,0,0,1.31,1.42,4,4,0,0,0,2,.49,4.3,4.3,0,0,0,1.33-.21,3.33,3.33,0,0,0,1.09-.64,2.8,2.8,0,0,0,.67-1.09l2.44.44a4.29,4.29,0,0,1-1.09,1.89,5.17,5.17,0,0,1-1.88,1.25A6.92,6.92,0,0,1,124.86,181.37Zm10.63-8.12v7.85h-2.55V167.87h2.47v2.18h.17a3.77,3.77,0,0,1,1.42-1.69,4.51,4.51,0,0,1,2.48-.64,4.78,4.78,0,0,1,2.37.58,3.75,3.75,0,0,1,1.58,1.67,6,6,0,0,1,.56,2.74v8.42h-2.58V173a3.3,3.3,0,0,0-.74-2.26,2.65,2.65,0,0,0-2.07-.81,3.19,3.19,0,0,0-1.6.39,2.79,2.79,0,0,0-1.09,1.09,3.69,3.69,0,0,0-.42,1.82Zm15.25,8.15a5.55,5.55,0,0,1-2.27-.46,3.93,3.93,0,0,1-1.62-1.37,4.09,4.09,0,0,1-.57-2.18,3.62,3.62,0,0,1,.42-1.85,3.12,3.12,0,0,1,1.17-1.08,6,6,0,0,1,1.63-.65,16.64,16.64,0,0,1,1.85-.32l1.93-.23a3,3,0,0,0,1.09-.3.73.73,0,0,0,.34-.67v-.07a2.29,2.29,0,0,0-.64-1.74,2.57,2.57,0,0,0-1.88-.62,3.07,3.07,0,0,0-3.08,1.84l-2.42-.55a4.81,4.81,0,0,1,1.25-2,5.36,5.36,0,0,1,1.93-1.09,7.39,7.39,0,0,1,2.29-.34,7.87,7.87,0,0,1,1.68.19,4.87,4.87,0,0,1,1.67.68,3.64,3.64,0,0,1,1.28,1.39,4.81,4.81,0,0,1,.5,2.36v8.79h-2.51V179.3h-.05a3.74,3.74,0,0,1-2,1.79,4.72,4.72,0,0,1-1.9.28Zm.57-2.06a3.62,3.62,0,0,0,1.82-.43,2.85,2.85,0,0,0,1.57-2.56v-1.7a1.23,1.23,0,0,1-.53.25,6.74,6.74,0,0,1-.89.2l-1,.15-.79.1a6.6,6.6,0,0,0-1.38.33,2.26,2.26,0,0,0-1,.64,1.84,1.84,0,0,0,.34,2.54,3.18,3.18,0,0,0,1.85.49Zm18.84-8.24-2.33.41a2.53,2.53,0,0,0-.47-.85,2.27,2.27,0,0,0-.84-.66,3,3,0,0,0-1.34-.26,3.29,3.29,0,0,0-1.83.49,1.43,1.43,0,0,0-.73,1.25,1.31,1.31,0,0,0,.49,1.09,4.07,4.07,0,0,0,1.59.67l2.1.47a5.7,5.7,0,0,1,2.73,1.31,3,3,0,0,1,.89,2.28,3.51,3.51,0,0,1-.68,2.12,4.54,4.54,0,0,1-1.91,1.45,7,7,0,0,1-2.82.53,6.42,6.42,0,0,1-3.63-1,4,4,0,0,1-1.72-2.71l2.48-.39a2.38,2.38,0,0,0,1,1.47,3.35,3.35,0,0,0,1.9.5,3.52,3.52,0,0,0,2-.53,1.53,1.53,0,0,0,.75-1.29,1.33,1.33,0,0,0-.46-1.09,3.25,3.25,0,0,0-1.41-.65l-2.23-.49a5.39,5.39,0,0,1-2.75-1.34,3.53,3.53,0,0,1-.22-4.39,4.23,4.23,0,0,1,1.81-1.37,6.51,6.51,0,0,1,2.65-.5,5.49,5.49,0,0,1,3.38.93,4.4,4.4,0,0,1,1.66,2.51Zm8.72,10V163.45h6.37a7.1,7.1,0,0,1,3.42.75,5,5,0,0,1,2,2.05,6.31,6.31,0,0,1,.66,2.92,6.21,6.21,0,0,1-.67,2.93,4.92,4.92,0,0,1-2,2.05,6.84,6.84,0,0,1-3.41.75h-4.36v-2.24H185a4.28,4.28,0,0,0,2.11-.45,2.8,2.8,0,0,0,1.19-1.24,4.39,4.39,0,0,0,0-3.55,2.68,2.68,0,0,0-1.2-1.22,4.45,4.45,0,0,0-2.18-.44h-3.34v15.36Zm14.83,0V167.87h2.49V170h.14a3.25,3.25,0,0,1,1.28-1.68,3.58,3.58,0,0,1,2.08-.62h.57a4.68,4.68,0,0,1,.53,0v2.46a3.45,3.45,0,0,0-.56-.1,5.21,5.21,0,0,0-.79,0,3.34,3.34,0,0,0-1.62.38,2.85,2.85,0,0,0-1.09,1.09,2.94,2.94,0,0,0-.42,1.53v8.08Zm12.57.3a5.6,5.6,0,0,1-2.28-.46,3.89,3.89,0,0,1-1.61-1.37,4,4,0,0,1-.59-2.18,3.57,3.57,0,0,1,.43-1.84,3.11,3.11,0,0,1,1.16-1.09,5.85,5.85,0,0,1,1.65-.65,16.46,16.46,0,0,1,1.84-.32l1.93-.23a3,3,0,0,0,1.09-.3.72.72,0,0,0,.34-.67v-.07a2.34,2.34,0,0,0-.65-1.74,2.55,2.55,0,0,0-1.87-.62,3.19,3.19,0,0,0-2.05.57,3.11,3.11,0,0,0-1,1.27l-2.42-.55a4.73,4.73,0,0,1,1.26-2,5.24,5.24,0,0,1,1.92-1.09,7.39,7.39,0,0,1,2.29-.34,7.85,7.85,0,0,1,1.67.19,4.84,4.84,0,0,1,1.68.68,3.64,3.64,0,0,1,1.28,1.39,4.92,4.92,0,0,1,.5,2.36v8.79h-2.52V179.3h0a3.86,3.86,0,0,1-.75,1,4,4,0,0,1-1.29.79,4.72,4.72,0,0,1-1.9.28Zm.56-2.06a3.79,3.79,0,0,0,1.83-.43,3,3,0,0,0,1.16-1.09,3,3,0,0,0,.41-1.47v-1.7a1.34,1.34,0,0,1-.54.25,6.74,6.74,0,0,1-.89.2l-1,.15-.8.1a6.51,6.51,0,0,0-1.37.33,2.21,2.21,0,0,0-1,.64,1.85,1.85,0,0,0,.35,2.55,3.05,3.05,0,0,0,1.88.48Zm0-13.22,2-4h2.73l-2.68,4Zm14.6,15.25a6.06,6.06,0,0,1-3.27-.87,5.87,5.87,0,0,1-2.13-2.42,8.75,8.75,0,0,1,0-7.09,6.28,6.28,0,0,1,8.14-2.73,4.79,4.79,0,0,1,1.91,1.54,4.65,4.65,0,0,1,.87,2.35h-2.5a3.19,3.19,0,0,0-1-1.62,2.84,2.84,0,0,0-2-.66,3.16,3.16,0,0,0-1.89.56A3.73,3.73,0,0,0,218.4,172a6.06,6.06,0,0,0-.45,2.45,6.25,6.25,0,0,0,.45,2.49,3.55,3.55,0,0,0,1.24,1.64,3.21,3.21,0,0,0,1.9.58,3.24,3.24,0,0,0,1.33-.28,2.75,2.75,0,0,0,1-.78,3.13,3.13,0,0,0,.58-1.22H227a4.82,4.82,0,0,1-2.7,3.88A6.18,6.18,0,0,1,221.42,181.37Zm13.94-13.5v2.07h-7.23v-2.07Zm-5.29-3.17h2.57v12.53a2.14,2.14,0,0,0,.23,1.09,1.09,1.09,0,0,0,.58.52,2.55,2.55,0,0,0,.78.13h.55l.35-.07.47,2.13a4.64,4.64,0,0,1-.64.17,5.33,5.33,0,0,1-2.93-.26,3.31,3.31,0,0,1-1.42-1.17,3.42,3.42,0,0,1-.54-2Zm7.63,16.41V167.87h2.57v13.24ZM239,165.86a1.68,1.68,0,0,1-1.15-.45,1.5,1.5,0,0,1,0-2.18,1.64,1.64,0,0,1,1.15-.46,1.67,1.67,0,0,1,1.16.46,1.51,1.51,0,0,1,.48,1.09,1.49,1.49,0,0,1-.48,1.09,1.66,1.66,0,0,1-1.18.43Zm9.81,15.55a6.17,6.17,0,0,1-3.27-.87,5.81,5.81,0,0,1-2.11-2.42,8.78,8.78,0,0,1,0-7.1,6,6,0,0,1,2.17-2.43,6.56,6.56,0,0,1,5.94-.3,4.73,4.73,0,0,1,1.91,1.55,4.58,4.58,0,0,1,.87,2.34h-2.6a3.16,3.16,0,0,0-1-1.61,2.78,2.78,0,0,0-2-.67,3.29,3.29,0,0,0-1.9.57,3.56,3.56,0,0,0-1.24,1.6,6.06,6.06,0,0,0-.45,2.45,6.5,6.5,0,0,0,.44,2.5,3.69,3.69,0,0,0,1.24,1.63,3.26,3.26,0,0,0,1.91.58,3.18,3.18,0,0,0,1.32-.27,2.78,2.78,0,0,0,1-.79,3.06,3.06,0,0,0,.58-1.22h2.5a4.84,4.84,0,0,1-.82,2.29,4.91,4.91,0,0,1-1.88,1.59,6.13,6.13,0,0,1-2.7.54Zm11.62,0a5.54,5.54,0,0,1-2.27-.45,3.88,3.88,0,0,1-1.62-1.38,4,4,0,0,1-.57-2.18,3.58,3.58,0,0,1,.42-1.84,3.14,3.14,0,0,1,1.17-1.09,6,6,0,0,1,1.63-.64c.61-.14,1.23-.25,1.85-.33l1.93-.22a3,3,0,0,0,1.09-.3.74.74,0,0,0,.34-.67v-.07a2.28,2.28,0,0,0-.64-1.74,2.53,2.53,0,0,0-1.88-.62,3.07,3.07,0,0,0-3.08,1.84l-2.42-.55a4.81,4.81,0,0,1,1.25-1.95,5.22,5.22,0,0,1,1.93-1.09,7.71,7.71,0,0,1,2.29-.35,7.87,7.87,0,0,1,1.68.2,4.5,4.5,0,0,1,1.67.68,3.64,3.64,0,0,1,1.28,1.39,4.69,4.69,0,0,1,.5,2.35v8.8h-2.51V179.3h-.1a3.77,3.77,0,0,1-2,1.79A4.72,4.72,0,0,1,260.42,181.37Zm.57-2.05a3.74,3.74,0,0,0,1.83-.43A3,3,0,0,0,264,177.8a2.81,2.81,0,0,0,.41-1.47v-1.7a1.4,1.4,0,0,1-.54.25,6.74,6.74,0,0,1-.89.2l-1,.15-.79.1a5.81,5.81,0,0,0-1.37.32,2.35,2.35,0,0,0-1,.65,1.87,1.87,0,0,0,.34,2.54,3.12,3.12,0,0,0,1.76.51Zm18.84-8.24-2.33.41a2.53,2.53,0,0,0-.47-.85,2.17,2.17,0,0,0-.84-.66,3,3,0,0,0-1.34-.26,3.21,3.21,0,0,0-1.83.49,1.43,1.43,0,0,0-.73,1.25,1.32,1.32,0,0,0,.49,1.09,4,4,0,0,0,1.59.66l2.1.48A5.61,5.61,0,0,1,279.2,175a3,3,0,0,1,.89,2.28,3.51,3.51,0,0,1-.68,2.12,4.54,4.54,0,0,1-1.91,1.45,6.89,6.89,0,0,1-2.91.52,6.35,6.35,0,0,1-3.63-.94,4,4,0,0,1-1.72-2.72l2.48-.38a2.43,2.43,0,0,0,1,1.47,3.34,3.34,0,0,0,1.9.49,3.55,3.55,0,0,0,2-.52,1.59,1.59,0,0,0,.75-1.3,1.35,1.35,0,0,0-.47-1.09,3.18,3.18,0,0,0-1.41-.64l-2.18-.49a5.4,5.4,0,0,1-2.74-1.34,3.23,3.23,0,0,1-.88-2.34,3.35,3.35,0,0,1,.66-2,4.23,4.23,0,0,1,1.81-1.37,6.51,6.51,0,0,1,2.65-.5,5.44,5.44,0,0,1,3.37.93,4.39,4.39,0,0,1,1.61,2.53Zm10.25,10h-2.83l6.35-17.65h3.09L303,181.08h-2.83l-5-14.45h-.15Zm.47-6.91h9.1v2.25H290.5Zm19.68,12.16a8,8,0,0,1-2.71-.41,5.28,5.28,0,0,1-1.84-1.09,4.7,4.7,0,0,1-1.09-1.49l2.18-.92a4.36,4.36,0,0,0,.62.81,3.37,3.37,0,0,0,1.09.73,4.29,4.29,0,0,0,1.74.3,3.91,3.91,0,0,0,2.43-.72,2.63,2.63,0,0,0,1-2.25v-2.61h-.16a6.44,6.44,0,0,1-.68.94,3.61,3.61,0,0,1-1.19.9,4.44,4.44,0,0,1-2,.38,5.52,5.52,0,0,1-2.83-.74,5.21,5.21,0,0,1-2-2.17,8.13,8.13,0,0,1-.72-3.57,8.44,8.44,0,0,1,.71-3.61,5.38,5.38,0,0,1,2-2.31,5.06,5.06,0,0,1,2.85-.82,4.14,4.14,0,0,1,2,.41,3.64,3.64,0,0,1,1.18.95,7.16,7.16,0,0,1,.67,1h.19v-2.18h2.52v13.55a4.37,4.37,0,0,1-2.93,4.43,8.25,8.25,0,0,1-3.06.56Zm0-7.63a3.07,3.07,0,0,0,3-2,5.91,5.91,0,0,0,.4-2.35,6.33,6.33,0,0,0-.39-2.36,3.54,3.54,0,0,0-1.16-1.59,3.4,3.4,0,0,0-3.84,0,3.67,3.67,0,0,0-1.18,1.62,6.61,6.61,0,0,0-.38,2.3,6.12,6.12,0,0,0,.4,2.28,3.15,3.15,0,0,0,3.1,2.08Zm9,2.34V167.87h2.49V170h.13a3.32,3.32,0,0,1,1.29-1.68,3.58,3.58,0,0,1,2.08-.62h.57a4.69,4.69,0,0,1,.53,0v2.46a3.53,3.53,0,0,0-.55-.1,5.34,5.34,0,0,0-.8,0,3.39,3.39,0,0,0-1.62.38,2.91,2.91,0,0,0-1.54,2.6v8.08Zm8.84,0V167.87h2.57v13.24Zm.16-14.92,2-4h2.72l-2.67,4Zm10.89,15.25a6,6,0,0,1-3.26-.87,5.79,5.79,0,0,1-2.18-2.42,8,8,0,0,1-.74-3.54,7.81,7.81,0,0,1,.76-3.55,5.88,5.88,0,0,1,2.18-2.43,6.6,6.6,0,0,1,6-.3,4.76,4.76,0,0,1,1.9,1.54,4.66,4.66,0,0,1,.88,2.35h-2.51a3.05,3.05,0,0,0-.95-1.62,2.82,2.82,0,0,0-2-.66,3.2,3.2,0,0,0-1.89.56A3.73,3.73,0,0,0,336,172a6.22,6.22,0,0,0-.44,2.45A6.42,6.42,0,0,0,336,177a3.88,3.88,0,0,0,1.24,1.64,3.36,3.36,0,0,0,3.23.3,2.75,2.75,0,0,0,1-.78,3,3,0,0,0,.58-1.22h2.51a4.83,4.83,0,0,1-2.71,3.88A6.21,6.21,0,0,1,339.09,181.37Zm13.29,0a6.06,6.06,0,0,1-3.27-.85,5.82,5.82,0,0,1-2.18-2.38,8.83,8.83,0,0,1,0-7.19,5.68,5.68,0,0,1,2.18-2.4,6.53,6.53,0,0,1,6.54,0,5.68,5.68,0,0,1,2.18,2.4,8.91,8.91,0,0,1,0,7.19,5.89,5.89,0,0,1-2.18,2.38A6.09,6.09,0,0,1,352.38,181.37Zm0-2.17a3.13,3.13,0,0,0,2-.64,3.68,3.68,0,0,0,1.17-1.7,7.16,7.16,0,0,0,0-4.66,3.92,3.92,0,0,0-1.17-1.72,3.45,3.45,0,0,0-4,0,3.89,3.89,0,0,0-1.18,1.72,7.43,7.43,0,0,0,0,4.66,3.77,3.77,0,0,0,1.18,1.7,3.15,3.15,0,0,0,2,.64Zm11.13-15.76v17.65h-2.58V163.44Zm6.85,17.93a5.36,5.36,0,0,1-2.27-.45,3.72,3.72,0,0,1-1.61-1.38,3.89,3.89,0,0,1-.59-2.18,3.58,3.58,0,0,1,.42-1.84,3.14,3.14,0,0,1,1.17-1.09,6.08,6.08,0,0,1,1.64-.64c.61-.14,1.23-.25,1.85-.33l1.92-.22a3,3,0,0,0,1.09-.3.74.74,0,0,0,.34-.67v-.07a2.28,2.28,0,0,0-.64-1.74,2.53,2.53,0,0,0-1.88-.62,3.1,3.1,0,0,0-3.08,1.84l-2.42-.55a4.73,4.73,0,0,1,1.26-1.95,5.1,5.1,0,0,1,1.92-1.09,7.76,7.76,0,0,1,2.29-.35,7.87,7.87,0,0,1,1.68.2,4.5,4.5,0,0,1,1.67.68A3.64,3.64,0,0,1,376.4,170a4.69,4.69,0,0,1,.5,2.35v8.8h-2.51V179.3h-.1a3.77,3.77,0,0,1-2,1.79A4.7,4.7,0,0,1,370.36,181.37Zm.56-2.05a3.74,3.74,0,0,0,1.83-.43,3,3,0,0,0,1.16-1.09,2.81,2.81,0,0,0,.41-1.47v-1.7a1.4,1.4,0,0,1-.54.25,6.74,6.74,0,0,1-.89.2l-1,.15-.79.1a5.81,5.81,0,0,0-1.37.32,2.26,2.26,0,0,0-1,.65,1.86,1.86,0,0,0,.34,2.55,3.13,3.13,0,0,0,1.8.5Zm18.84-8.24-2.33.41a2.53,2.53,0,0,0-.47-.85,2.17,2.17,0,0,0-.84-.66,3,3,0,0,0-1.34-.26,3.21,3.21,0,0,0-1.83.49,1.43,1.43,0,0,0-.73,1.25,1.35,1.35,0,0,0,.49,1.09,4,4,0,0,0,1.59.66l2.11.48a5.58,5.58,0,0,1,2.72,1.31,3,3,0,0,1,.89,2.28,3.51,3.51,0,0,1-.68,2.12,4.54,4.54,0,0,1-1.91,1.45,7,7,0,0,1-2.79.52,6.35,6.35,0,0,1-3.63-.94,4,4,0,0,1-1.72-2.72l2.48-.38a2.43,2.43,0,0,0,1,1.47,3.34,3.34,0,0,0,1.9.49,3.55,3.55,0,0,0,2-.52,1.57,1.57,0,0,0,.75-1.3,1.35,1.35,0,0,0-.47-1.09,3.08,3.08,0,0,0-1.41-.64l-2.23-.49a5.43,5.43,0,0,1-2.75-1.34,3.27,3.27,0,0,1-.87-2.34,3.35,3.35,0,0,1,.66-2,4.17,4.17,0,0,1,1.81-1.37,6.46,6.46,0,0,1,2.64-.5,5.47,5.47,0,0,1,3.38.93,4.35,4.35,0,0,1,1.59,2.53Z"/></svg>