<svg width="47" height="49" viewBox="0 0 47 49" fill="none" xmlns="http://www.w3.org/2000/svg">
<g id="Broadcast">
<path id="Vector" d="M23.5 16.5909C22.0475 16.5909 20.6277 17.0308 19.42 17.8549C18.2123 18.679 17.2711 19.8503 16.7152 21.2208C16.1594 22.5912 16.014 24.0992 16.2973 25.5541C16.5807 27.0089 17.2801 28.3453 18.3072 29.3942C19.3342 30.4431 20.6427 31.1574 22.0673 31.4468C23.4918 31.7362 24.9684 31.5877 26.3103 31.02C27.6522 30.4523 28.7991 29.491 29.6061 28.2577C30.413 27.0243 30.8437 25.5743 30.8437 24.0909C30.8437 22.1018 30.07 20.1941 28.6928 18.7876C27.3156 17.3811 25.4477 16.5909 23.5 16.5909ZM23.5 28.5909C22.6285 28.5909 21.7766 28.327 21.052 27.8325C20.3274 27.3381 19.7626 26.6352 19.4291 25.813C19.0956 24.9907 19.0084 24.0859 19.1784 23.213C19.3484 22.3401 19.7681 21.5383 20.3843 20.9089C21.0005 20.2796 21.7856 19.851 22.6404 19.6774C23.4951 19.5037 24.381 19.5928 25.1862 19.9334C25.9913 20.274 26.6795 20.8508 27.1636 21.5908C27.6478 22.3309 27.9062 23.2009 27.9062 24.0909C27.9062 25.2844 27.442 26.429 26.6157 27.2729C25.7893 28.1168 24.6686 28.5909 23.5 28.5909ZM37.0327 29.9297C36.4016 31.4532 35.5282 32.8597 34.4477 34.0922C34.186 34.3813 33.8236 34.5538 33.4385 34.5724C33.0534 34.591 32.6766 34.4543 32.3894 34.1917C32.1022 33.9291 31.9276 33.5618 31.9032 33.1688C31.8788 32.7759 32.0067 32.389 32.2592 32.0915C34.1878 29.8924 35.2542 27.044 35.2542 24.0918C35.2542 21.1397 34.1878 18.2913 32.2592 16.0922C32.127 15.946 32.0245 15.7745 31.9578 15.5875C31.8911 15.4005 31.8615 15.2019 31.8708 15.0031C31.88 14.8043 31.9278 14.6094 32.0115 14.4297C32.0952 14.25 32.2131 14.0891 32.3583 13.9564C32.5035 13.8237 32.673 13.7218 32.8571 13.6567C33.0413 13.5916 33.2362 13.5645 33.4307 13.5771C33.6251 13.5896 33.8152 13.6416 33.9898 13.7299C34.1644 13.8183 34.32 13.9412 34.4477 14.0915C36.3022 16.2109 37.5297 18.8244 37.9873 21.6281C38.4449 24.4318 38.1138 27.3105 37.0327 29.9297ZM12.6679 19.4203C11.8013 21.5153 11.5356 23.8188 11.9016 26.0622C12.2676 28.3056 13.2503 30.3966 14.7352 32.0915C14.9877 32.389 15.1156 32.7759 15.0912 33.1688C15.0669 33.5618 14.8922 33.9291 14.605 34.1917C14.3178 34.4543 13.941 34.591 13.5559 34.5724C13.1709 34.5538 12.8084 34.3813 12.5468 34.0922C10.1354 31.3433 8.80201 27.7825 8.80201 24.0918C8.80201 20.4012 10.1354 16.8404 12.5468 14.0915C12.8065 13.7944 13.1712 13.6148 13.5607 13.5923C13.9501 13.5698 14.3323 13.7062 14.6232 13.9715C14.9141 14.2368 15.09 14.6093 15.112 15.007C15.134 15.4047 15.0005 15.795 14.7407 16.0922C13.8741 17.0767 13.1737 18.2014 12.6679 19.4203ZM45.5312 24.0909C45.5401 29.9817 43.2787 35.6393 39.2358 39.8409C39.102 39.9869 38.941 40.1042 38.7623 40.1858C38.5835 40.2674 38.3905 40.3116 38.1948 40.3159C37.999 40.3202 37.8044 40.2845 37.6223 40.2109C37.4403 40.1373 37.2745 40.0272 37.1347 39.8872C36.9949 39.7472 36.8839 39.58 36.8083 39.3956C36.7327 39.2111 36.694 39.0131 36.6944 38.8131C36.6948 38.6131 36.7343 38.4153 36.8107 38.2311C36.8871 38.047 36.9988 37.8803 37.1391 37.7409C40.6398 34.0985 42.601 29.1985 42.601 24.0947C42.601 18.9908 40.6398 14.0908 37.1391 10.4484C36.8655 10.1645 36.7135 9.78112 36.7166 9.38272C36.7197 8.98432 36.8776 8.6035 37.1557 8.32403C37.4337 8.04456 37.8091 7.88933 38.1992 7.89249C38.5893 7.89566 38.9621 8.05696 39.2358 8.3409C43.2787 12.5425 45.5401 18.2002 45.5312 24.0909ZM9.86079 37.7372C9.99605 37.8778 10.1029 38.0442 10.1751 38.2269C10.2474 38.4097 10.2837 38.6052 10.282 38.8023C10.2803 38.9994 10.2406 39.1942 10.1652 39.3756C10.0898 39.557 9.9801 39.7215 9.84243 39.8597C9.70476 39.9978 9.5418 40.1069 9.36285 40.1807C9.18391 40.2545 8.99247 40.2916 8.79949 40.2899C8.6065 40.2881 8.41574 40.2476 8.2381 40.1705C8.06045 40.0935 7.89941 39.9815 7.76415 39.8409C3.72175 35.638 1.45679 29.9822 1.45679 24.0909C1.45679 18.1996 3.72175 12.5438 7.76415 8.3409C7.8979 8.19486 8.0589 8.0776 8.23767 7.99602C8.41645 7.91445 8.60939 7.8702 8.80515 7.86589C9.00091 7.86158 9.19554 7.89728 9.37759 7.97091C9.55964 8.04453 9.72544 8.15459 9.86524 8.29461C10.005 8.43463 10.116 8.60179 10.1916 8.78625C10.2672 8.97071 10.306 9.16874 10.3056 9.36872C10.3052 9.56869 10.2656 9.76656 10.1892 9.95069C10.1128 10.1348 10.0012 10.3015 9.86079 10.4409C6.36014 14.0833 4.39895 18.9833 4.39895 24.0872C4.39895 29.191 6.36014 34.091 9.86079 37.7334V37.7372Z" fill="#AEADA9"/>
</g>
</svg>
