<svg width="45" height="46" viewBox="0 0 45 46" fill="none" xmlns="http://www.w3.org/2000/svg">
<g id="CaretCircleUpDown">
<path id="Vector" d="M22.5 4.3125C18.8843 4.3125 15.3498 5.4085 12.3435 7.46191C9.33715 9.51532 6.994 12.4339 5.61034 15.8486C4.22667 19.2633 3.86464 23.0207 4.57003 26.6458C5.27541 30.2708 7.01653 33.6006 9.57321 36.2141C12.1299 38.8276 15.3873 40.6074 18.9335 41.3284C22.4797 42.0495 26.1555 41.6794 29.4959 40.265C32.8364 38.8506 35.6915 36.4554 37.7003 33.3822C39.7091 30.3091 40.7813 26.696 40.7813 23C40.7761 18.0454 38.8484 13.2952 35.4212 9.79172C31.9939 6.28827 27.3469 4.31773 22.5 4.3125ZM22.5 38.8125C19.4406 38.8125 16.4499 37.8851 13.906 36.1476C11.3622 34.4101 9.37954 31.9405 8.20875 29.0512C7.03795 26.1618 6.73162 22.9825 7.32849 19.9151C7.92535 16.8478 9.39861 14.0303 11.562 11.8189C13.7253 9.60746 16.4816 8.10146 19.4822 7.49133C22.4828 6.8812 25.5931 7.19434 28.4196 8.39115C31.2462 9.58797 33.6621 11.6147 35.3618 14.215C37.0615 16.8154 37.9688 19.8726 37.9688 23C37.9641 27.1923 36.3329 31.2115 33.4329 34.1759C30.533 37.1403 26.6011 38.8077 22.5 38.8125ZM29.1199 17.6705C29.2506 17.804 29.3542 17.9626 29.4249 18.1371C29.4956 18.3116 29.532 18.4986 29.532 18.6875C29.532 18.8764 29.4956 19.0634 29.4249 19.2379C29.3542 19.4124 29.2506 19.571 29.1199 19.7045C28.9893 19.8381 28.8342 19.944 28.6635 20.0163C28.4927 20.0886 28.3098 20.1258 28.125 20.1258C27.9402 20.1258 27.7573 20.0886 27.5866 20.0163C27.4159 19.944 27.2607 19.8381 27.1301 19.7045L22.5 14.9698L17.8699 19.7045C17.6061 19.9743 17.2482 20.1258 16.875 20.1258C16.5018 20.1258 16.144 19.9743 15.8801 19.7045C15.6162 19.4348 15.468 19.069 15.468 18.6875C15.468 18.306 15.6162 17.9402 15.8801 17.6705L21.5051 11.9205C21.6357 11.7868 21.7908 11.6808 21.9615 11.6084C22.1322 11.5361 22.3152 11.4989 22.5 11.4989C22.6848 11.4989 22.8678 11.5361 23.0385 11.6084C23.2092 11.6808 23.3643 11.7868 23.4949 11.9205L29.1199 17.6705ZM29.1199 26.2955C29.2507 26.429 29.3544 26.5875 29.4252 26.762C29.4959 26.9365 29.5324 27.1236 29.5324 27.3125C29.5324 27.5014 29.4959 27.6885 29.4252 27.863C29.3544 28.0375 29.2507 28.196 29.1199 28.3295L23.4949 34.0795C23.3643 34.2132 23.2092 34.3192 23.0385 34.3916C22.8678 34.4639 22.6848 34.5011 22.5 34.5011C22.3152 34.5011 22.1322 34.4639 21.9615 34.3916C21.7908 34.3192 21.6357 34.2132 21.5051 34.0795L15.8801 28.3295C15.6162 28.0598 15.468 27.694 15.468 27.3125C15.468 26.931 15.6162 26.5652 15.8801 26.2955C16.144 26.0257 16.5018 25.8742 16.875 25.8742C17.2482 25.8742 17.6061 26.0257 17.8699 26.2955L22.5 31.0302L27.1301 26.2955C27.2607 26.1618 27.4158 26.0558 27.5865 25.9834C27.7572 25.9111 27.9402 25.8739 28.125 25.8739C28.3098 25.8739 28.4928 25.9111 28.6635 25.9834C28.8342 26.0558 28.9893 26.1618 29.1199 26.2955Z" fill="#AEADA9"/>
</g>
</svg>
