<svg width="227" height="53" viewBox="0 0 227 53" fill="none" xmlns="http://www.w3.org/2000/svg">
<g id="Group">
<path id="Vector" d="M67.2345 22.5971H77.8342V25.7227H67.2345V35.8722H63.9219V11.2341H80.0426V14.3597H67.2345V22.5971Z" fill="white"/>
<path id="Vector_2" d="M94.5266 21.6779H106.525V24.8035H94.5266V32.7466H108.108V35.8722H91.2153V11.2341H108.108V14.3597H94.5266V21.6779Z" fill="white"/>
<path id="Vector_3" d="M122.807 25.5009V35.8708H119.495V11.2341H128.954C133.186 11.2341 137.529 13.5508 137.529 18.6249C137.529 23.2219 133.038 25.6488 128.769 25.6488C128.439 25.6488 128.034 25.6488 127.555 25.6125L139.59 35.8722H134.511L122.807 25.5009ZM122.807 22.2651C124.427 22.7059 126.414 22.9639 128.291 22.9639C132.008 22.9639 134.143 21.2721 134.143 18.6249C134.143 15.8675 131.567 14.3597 128.401 14.3597H122.807V22.2651Z" fill="white"/>
<path id="Vector_4" d="M161.386 12.8158V16.2357C159.987 15.2063 157.963 14.1031 155.682 14.1031C153.437 14.1031 150.566 15.2426 150.566 17.8912C150.566 19.8773 152.185 20.6862 154.21 21.6054L157.595 23.1494C160.981 24.6934 162.711 26.3113 162.711 29.4006C162.711 33.4091 158.773 36.2404 154.246 36.2404C151.412 36.2404 148.945 35.1009 147.179 33.8498V30.4299C149.093 31.7535 151.559 33.0033 154.687 33.0033C157.152 33.0033 159.324 31.7159 159.324 29.5471C159.324 27.7088 157.3 26.6795 155.791 26.017L151.707 24.1787C148.173 22.5971 147.143 20.5384 147.143 17.781C147.143 13.8827 150.935 10.8673 155.314 10.8673C158.222 10.866 159.951 11.8966 161.386 12.8158Z" fill="white"/>
<path id="Vector_5" d="M222.913 35.8708V17.8535L215.331 26.3112H214.375L206.609 17.8535V35.8722H203.296V11.2341H204.621L214.852 22.1926L224.901 11.2341H226.225V35.8708H222.913Z" fill="white"/>
<path id="Vector_6" d="M182.49 11.2341H180.834L169.314 35.8708H173.289L175.437 31.0359L177.27 26.8622H177.265L181.718 16.8242L186.097 26.8622H181.141L179.718 29.9878H187.459L190.035 35.8708H194.011L182.49 11.2341Z" fill="white"/>
<g id="Group_2">
<path id="Vector_7" d="M164.567 48.2536L163.83 49.9118H162.709L165.956 42.9685H166.423L169.67 49.9118H168.549L167.823 48.2536H164.567ZM166.206 44.5447L164.952 47.3734H167.441L166.206 44.5447Z" fill="white"/>
<path id="Vector_8" d="M173.963 45.4249V44.7302H174.813V49.8083C174.813 51.6627 173.558 52.555 172.085 52.555C171.121 52.555 170.551 52.2231 170.188 51.996V51.0835C170.478 51.2488 171.183 51.7259 172.085 51.7259C173.091 51.7259 173.963 51.1453 173.963 50.12V49.0316C173.6 49.5812 172.968 50.0676 172.18 50.0676C170.841 50.0676 169.763 48.9792 169.763 47.4043C169.763 45.695 170.841 44.6267 172.262 44.6267C172.853 44.6267 173.516 44.9277 173.963 45.4249ZM170.644 47.4043C170.644 48.4094 171.308 49.2278 172.313 49.2278C173.257 49.2278 173.972 48.4202 173.962 47.3102L173.951 46.3158C173.515 45.777 173.048 45.4666 172.416 45.4666C171.308 45.4666 170.644 46.3991 170.644 47.4043Z" fill="white"/>
<path id="Vector_9" d="M179.126 44.7718V45.7877C178.908 45.6211 178.639 45.5176 178.369 45.5176C177.664 45.5176 177.279 46.0874 176.896 46.7821V49.9118H176.046V44.7302H176.896V45.7662C177.29 45.0823 177.902 44.6267 178.494 44.6267C178.732 44.6267 178.939 44.6791 179.126 44.7718Z" fill="white"/>
<path id="Vector_10" d="M184.736 47.3519C184.736 48.8233 183.605 50.0663 182.029 50.0663C180.452 50.0663 179.321 48.8233 179.321 47.3519C179.321 45.8805 180.452 44.6267 182.029 44.6267C183.605 44.6267 184.736 45.8805 184.736 47.3519ZM180.204 47.3519C180.204 48.357 180.919 49.2372 182.029 49.2372C183.138 49.2372 183.854 48.357 183.854 47.3519C183.854 46.3467 183.138 45.4558 182.029 45.4558C180.919 45.4558 180.204 46.3467 180.204 47.3519Z" fill="white"/>
<path id="Vector_11" d="M186.964 49.9118H186.114V45.5284H185.295V44.7302H186.966V49.9118H186.964ZM185.73 42.9484C185.73 42.5748 186.031 42.2443 186.435 42.2443C186.829 42.2443 187.139 42.5762 187.139 42.9484C187.139 43.3112 186.829 43.6525 186.435 43.6525C186.031 43.6525 185.73 43.3112 185.73 42.9484Z" fill="white"/>
<path id="Vector_12" d="M192.729 46.7512V49.9118H191.879L191.868 46.8345C191.868 45.9436 191.485 45.4558 190.664 45.4558C190.114 45.4558 189.533 45.9329 189.119 46.4717V49.9118H188.269V44.7302H189.119V45.5485C189.44 45.1441 190.105 44.6267 190.81 44.6267C191.868 44.6267 192.729 45.3214 192.729 46.7512Z" fill="white"/>
<path id="Vector_13" d="M197.644 49.9118V49.0316C197.281 49.5812 196.648 50.0677 195.86 50.0677C194.522 50.0677 193.443 48.9792 193.443 47.4043C193.443 45.695 194.522 44.6267 195.942 44.6267C196.534 44.6267 197.197 44.9277 197.644 45.4249V42.4512H198.494V49.9118H197.644ZM194.324 47.4043C194.324 48.4095 194.989 49.2386 195.993 49.2386C196.938 49.2386 197.653 48.4202 197.642 47.3116L197.632 46.3172C197.196 45.7783 196.729 45.4773 196.097 45.4773C194.989 45.4773 194.324 46.3992 194.324 47.4043Z" fill="white"/>
<path id="Vector_14" d="M203.969 47.7981C203.969 49.166 203.014 50.0153 201.77 50.0153C200.524 50.0153 199.571 49.166 199.571 47.7981V44.7302H200.452V47.7981C200.452 48.6997 201.074 49.1862 201.768 49.1862C202.462 49.1862 203.085 48.6997 203.085 47.7981V44.7302H203.966V47.7981H203.969Z" fill="white"/>
<path id="Vector_15" d="M208.012 45.0204V45.9329C207.721 45.7152 207.171 45.4558 206.653 45.4558C206 45.4558 205.678 45.8294 205.678 46.16C205.678 46.4193 205.834 46.719 206.311 46.8856L207.182 47.196C207.856 47.4339 208.188 47.8907 208.188 48.4807C208.188 49.3608 207.389 50.0663 206.28 50.0663C205.668 50.0663 204.921 49.7868 204.683 49.6108V48.6983C204.974 48.916 205.7 49.2372 206.218 49.2372C206.871 49.2372 207.276 48.916 207.276 48.4807C207.276 48.1487 207.017 47.9835 206.53 47.8074L205.762 47.5279C204.952 47.2269 204.766 46.7512 204.766 46.16C204.766 45.2798 205.482 44.6267 206.592 44.6267C207.204 44.6267 207.774 44.8444 208.012 45.0204Z" fill="white"/>
<path id="Vector_16" d="M211.9 44.7302V45.5284H210.386V48.564C210.386 48.9994 210.604 49.2587 211.06 49.2587C211.474 49.2587 211.733 49.1351 211.94 49.0101V49.7049C211.661 49.9226 211.39 50.0677 210.873 50.0677C209.992 50.0677 209.534 49.4872 209.534 48.607V45.5298H208.539V45.2812C209.213 44.9802 209.649 44.2653 209.992 43.24H210.386V44.7316H211.9V44.7302Z" fill="white"/>
<path id="Vector_17" d="M215.995 44.7718V45.7877C215.778 45.6211 215.509 45.5176 215.238 45.5176C214.534 45.5176 214.149 46.0874 213.766 46.7821V49.9118H212.916V44.7302H213.766V45.7662C214.16 45.0823 214.772 44.6267 215.363 44.6267C215.601 44.6267 215.809 44.6791 215.995 44.7718Z" fill="white"/>
<path id="Vector_18" d="M217.912 49.9118H217.062V45.5284H216.243V44.7302H217.914V49.9118H217.912ZM216.678 42.9484C216.678 42.5748 216.979 42.2443 217.382 42.2443C217.776 42.2443 218.087 42.5762 218.087 42.9484C218.087 43.3112 217.776 43.6525 217.382 43.6525C216.979 43.6525 216.678 43.3112 216.678 42.9484Z" fill="white"/>
<path id="Vector_19" d="M223.055 45.4249V44.7302H223.905V49.9118H223.055V49.0316C222.692 49.5812 222.06 50.0676 221.272 50.0676C219.934 50.0676 218.855 48.9792 218.855 47.4043C218.855 45.695 219.934 44.6267 221.354 44.6267C221.946 44.6267 222.609 44.9277 223.055 45.4249ZM219.736 47.4043C219.736 48.4094 220.4 49.2385 221.405 49.2385C222.349 49.2385 223.065 48.4202 223.054 47.3116L223.043 46.3172C222.607 45.7783 222.141 45.4572 221.509 45.4572C220.4 45.4558 219.736 46.3991 219.736 47.4043Z" fill="white"/>
<path id="Vector_20" d="M225.137 49.9118V42.4512H225.987V49.9118H225.137Z" fill="white"/>
</g>
<path id="Vector_21" d="M23.2422 8.94163C22.6531 9.02495 21.9712 9.0357 21.3996 8.87847C21.0472 8.78172 20.7648 8.65675 20.5442 8.50894C19.9027 8.08296 19.7709 7.46751 19.9282 6.82385C19.9659 6.586 20.0466 6.33472 20.177 6.07402C20.2107 6.00684 20.2551 5.93293 20.3048 5.85633C20.5765 5.40482 20.9652 4.99094 21.3996 4.62678C21.5099 4.53003 21.6202 4.43865 21.7305 4.35668C21.8582 4.2559 21.9954 4.16049 22.1367 4.07046C22.6531 3.73049 23.0768 3.58536 23.4197 3.58133C23.5031 3.57461 23.5852 3.57461 23.6645 3.58133C23.9066 3.59208 24.1232 3.67539 24.3034 3.84202C24.2644 3.80977 24.224 3.77752 24.1837 3.75199C24.2254 3.77886 24.2657 3.81111 24.3061 3.84336L24.3047 3.84202C24.4204 3.93743 24.528 4.05837 24.6221 4.21693C25.3767 5.49351 23.955 7.82361 23.2422 8.94163ZM47.0306 7.40973C45.9627 9.21039 43.5552 10.4386 41.0226 10.9707C40.8343 11.0124 40.646 11.05 40.4551 11.0836C40.3959 11.0944 40.3367 11.1024 40.2775 11.1118C40.2022 11.1239 40.1255 11.1374 40.0502 11.1481C38.447 11.3846 36.7362 11.3403 35.2756 10.8484C35.472 10.9116 35.671 10.968 35.8755 11.0151C35.6643 10.9653 35.4572 10.9076 35.2554 10.8417C35.2621 10.8444 35.2689 10.8471 35.2769 10.8484C35.207 10.8256 35.1384 10.8014 35.0698 10.7772C35.09 10.7853 35.1102 10.7907 35.1317 10.7987C35.0712 10.7772 35.012 10.7557 34.9528 10.7329C34.9555 10.7342 34.9568 10.7356 34.9595 10.7356C34.9434 10.7288 34.9259 10.7235 34.9098 10.7168C34.9004 10.7127 34.8909 10.71 34.8815 10.706C34.8358 10.6872 34.7914 10.667 34.7457 10.6469C34.6865 10.6213 34.6273 10.5972 34.5695 10.5703L34.5628 10.5662C34.5655 10.5676 34.5681 10.5689 34.5695 10.5689C34.5668 10.5676 34.5641 10.5662 34.5628 10.5662C36.5816 8.16224 41.4678 3.60551 45.7165 4.21424C45.7999 4.22634 45.8793 4.24112 45.9559 4.25724C47.001 4.39834 47.4099 4.90091 47.4152 5.55533C47.4247 5.60505 47.4327 5.65477 47.4368 5.70583C47.43 5.6588 47.4247 5.61042 47.4139 5.56473C47.4139 5.57011 47.4139 5.57414 47.4139 5.57951C47.4287 5.6467 47.4368 5.71658 47.4435 5.78645C47.4421 5.75958 47.4394 5.73271 47.4368 5.70583C47.5107 6.24603 47.3601 6.85476 47.0306 7.40973ZM37.1612 11.2193C37.1787 11.2207 37.1975 11.222 37.215 11.2234C37.1666 11.2193 37.1195 11.2139 37.0711 11.2086C37.1007 11.2126 37.1303 11.2166 37.1612 11.2193ZM36.5331 11.1414C36.4672 11.1306 36.4013 11.1199 36.3354 11.1078C36.4013 11.1199 36.4672 11.132 36.5331 11.1414ZM36.8694 11.1884C36.8196 11.183 36.7699 11.175 36.7201 11.1683C36.7699 11.175 36.8196 11.1817 36.8694 11.1884ZM50.6647 13.4204C50.6633 13.4392 50.6593 13.458 50.6579 13.4769C50.6539 13.5145 50.6526 13.5521 50.6472 13.5897C50.6351 13.6704 50.6176 13.7496 50.5974 13.8276C50.5961 13.833 50.5947 13.8383 50.5934 13.8437C50.5772 13.9042 50.5611 13.966 50.5409 14.0265C50.5382 14.0359 50.5342 14.0439 50.5315 14.0533C50.3957 14.4618 50.1697 14.8502 49.8806 15.217C47.8752 17.9745 42.8316 19.5238 38.7214 19.5238C38.6649 19.5238 38.6098 19.5238 38.5533 19.5238C38.4618 19.5225 38.3717 19.5211 38.2803 19.5185C38.1807 19.5158 38.0812 19.5131 37.9817 19.5077C37.9225 19.505 37.8647 19.501 37.8068 19.4983C37.6979 19.4916 37.5889 19.4849 37.4813 19.4755C37.4114 19.4701 37.3428 19.462 37.2742 19.4553C37.1841 19.4459 37.0926 19.4378 37.0025 19.4271C36.8398 19.4069 36.6811 19.3854 36.5251 19.3599C36.5251 19.3585 36.5264 19.3585 36.5264 19.3572C36.5237 19.3572 36.521 19.3559 36.5183 19.3559C37.515 17.0997 39.7409 14.0493 42.6379 12.2527C43.9224 11.4357 45.3386 10.8699 46.8329 10.7638C46.8463 10.7624 46.8598 10.7611 46.8746 10.7598C46.8947 10.7584 46.9163 10.7557 46.9364 10.7544C47.5027 10.6979 48.0649 10.7194 48.6015 10.8592C49.1637 11.0043 49.6075 11.2556 49.937 11.5714C50.0877 11.7152 50.2128 11.8751 50.315 12.0431C50.3083 12.0336 50.3015 12.0229 50.2948 12.0135C50.3002 12.0216 50.3042 12.031 50.3096 12.039C50.315 12.0471 50.3217 12.0552 50.3271 12.0632C50.323 12.0565 50.319 12.0484 50.315 12.0417C50.4602 12.2621 50.5638 12.5026 50.6203 12.7606C50.6257 12.7821 50.631 12.8023 50.6351 12.8238C50.6445 12.8722 50.6499 12.9205 50.6553 12.9703C50.6606 13.0159 50.666 13.0616 50.6687 13.1073C50.67 13.1369 50.67 13.1678 50.67 13.1987C50.6714 13.2645 50.67 13.3317 50.6647 13.3989C50.6647 13.4056 50.666 13.4124 50.6647 13.4204ZM31.203 4.52869C31.1546 4.57841 31.1076 4.62812 31.0578 4.67784C31.0457 4.68994 31.0322 4.70203 31.0201 4.71413C29.8581 5.87649 28.3867 6.91119 26.8091 7.70671C26.8037 7.70939 26.797 7.71208 26.7916 7.71611C26.6382 7.79271 26.4849 7.86796 26.3302 7.94052C26.2886 7.96068 26.2455 7.97815 26.2038 7.99696C26.0841 8.05205 25.9644 8.10715 25.8447 8.15821C25.682 8.22943 25.5179 8.29662 25.3538 8.36247C25.3538 8.35978 25.3538 8.35843 25.3538 8.35574C25.3511 8.35709 25.3498 8.35709 25.3471 8.35843C25.4358 6.96226 26.0048 5.44782 26.922 4.11346C28.0262 2.24965 29.6483 0.588749 31.5837 0.684157C32.049 0.635781 32.4848 0.732531 32.7915 1.09401C33.5487 1.98761 32.2709 3.50205 31.203 4.52869ZM31.8917 3.74258C31.9307 3.6942 31.971 3.64583 32.0087 3.59745C32.0221 3.57998 32.0356 3.56117 32.049 3.5437C31.9979 3.60955 31.9441 3.67539 31.8917 3.74258ZM31.3281 4.39565C31.3537 4.36743 31.3806 4.34056 31.4061 4.31234C31.3806 4.33921 31.3537 4.36743 31.3281 4.39565ZM31.6186 4.07046C31.6576 4.02477 31.698 3.98043 31.7357 3.93474C31.698 3.98043 31.6576 4.02612 31.6186 4.07046ZM12.1611 38.0853C12.1611 38.084 12.1611 38.084 12.1611 38.0826C12.0306 38.084 11.9001 38.0921 11.7697 38.1015C11.7038 38.1068 11.6379 38.1122 11.572 38.1189C11.5235 38.1243 11.4765 38.1297 11.4281 38.1351C10.1154 38.2963 8.88473 38.8258 7.86525 39.5406C7.7173 39.6428 7.57339 39.7489 7.43621 39.8564C6.18405 40.8468 5.09462 42.3317 4.84043 43.8192C4.714 44.3782 4.70055 44.9372 4.86598 45.4425C4.9534 46.1332 5.30175 46.6573 6.07645 46.7755C6.43421 46.9045 6.80004 46.8682 7.16587 46.7083C7.78859 46.535 8.34002 46.1278 8.82152 45.6131C8.8 45.6333 8.77848 45.6535 8.75561 45.6736C8.78924 45.64 8.82017 45.6037 8.85245 45.5675C8.84169 45.5822 8.83228 45.5984 8.82152 45.6131C10.7152 43.8985 11.6459 40.8441 12.0494 38.7277C12.036 38.7908 12.0158 38.8526 11.9983 38.9144C12.044 38.7102 12.0871 38.5059 12.1234 38.3017C12.1261 38.2882 12.1301 38.2762 12.1328 38.2627C12.1086 38.4119 12.0804 38.5678 12.0494 38.7277C12.0952 38.514 12.1368 38.299 12.1705 38.084C12.1664 38.0853 12.1638 38.0853 12.1611 38.0853ZM40.3757 37.7857C40.3865 37.7615 40.3986 37.7373 40.408 37.7131C40.4187 37.6916 40.4295 37.6715 40.4389 37.65C40.4322 37.6661 40.4282 37.6836 40.4214 37.6997C40.8168 36.8907 40.9244 35.9528 40.6299 34.9503C40.6232 34.9248 40.6191 34.9006 40.6124 34.8751C40.252 33.624 39.4329 32.7949 38.3609 32.2843C38.3273 32.2682 38.2937 32.2507 38.2601 32.2346C38.2587 32.2332 38.256 32.2332 38.2547 32.2319C37.6185 31.9349 36.9003 31.7508 36.1364 31.6567C36.127 31.6554 36.1189 31.6527 36.1095 31.6514C33.468 31.2415 30.5561 32.0075 28.302 33.0784C28.2509 33.1026 28.2038 33.1309 28.154 33.155C27.9792 33.2397 27.8097 33.327 27.6497 33.4157C28.0585 35.4059 29.2165 37.5169 31.0134 38.9857C31.8311 39.6979 32.7699 40.2622 33.8069 40.5485C34.9165 40.8562 36.1377 40.8508 37.4396 40.3765C39.0106 39.804 39.9857 38.815 40.4214 37.701C40.408 37.7279 40.3905 37.7561 40.3757 37.7857ZM27.4143 46.0727C28.4956 44.0436 28.2778 41.4071 27.3296 39.1214C26.844 37.8771 26.103 36.7093 25.1184 35.7458C25.109 35.7364 25.0996 35.727 25.0888 35.7176C25.0014 35.633 24.9167 35.547 24.8252 35.465C24.8239 35.4663 24.8239 35.4663 24.8225 35.4677C24.8212 35.4663 24.8185 35.4636 24.8172 35.4623C24.6786 35.5913 24.5428 35.723 24.4083 35.856C24.3357 35.9272 24.2657 35.9998 24.1944 36.0724C24.1474 36.1207 24.1003 36.1691 24.0532 36.2188C22.2469 38.1149 20.8509 40.4584 20.3788 42.8289C20.1071 44.0396 20.0452 45.3578 20.5092 46.5094C20.7123 47.0792 21.0419 47.606 21.5691 47.9956C22.8239 48.9229 23.9873 48.8906 24.9665 48.384C25.0431 48.3544 25.1184 48.3249 25.1964 48.2899C26.2738 47.8102 26.9772 47.0134 27.4143 46.0727ZM15.5288 49.7761C15.5584 49.7641 15.5853 49.7506 15.6136 49.7385C15.7077 49.6996 15.7978 49.6592 15.8853 49.6162C15.8597 49.631 15.8342 49.6458 15.8073 49.6606C17.8879 48.7038 18.5093 46.6573 18.2941 44.6026C18.1919 42.1717 16.8563 39.6481 14.2727 38.5086C14.2727 38.5086 14.2727 38.51 14.2713 38.51C14.2686 38.5086 14.2673 38.5073 14.2646 38.5073C14.1798 38.6443 14.0965 38.7828 14.0158 38.9212C12.7407 41.1021 11.8692 43.6553 11.9109 46.062C11.9015 46.9959 12.0118 48.2039 12.6022 49.0411C13.0178 49.8769 13.7522 50.319 14.9707 49.975C15.2625 49.9159 15.5423 49.8044 15.8073 49.6592C15.7185 49.7009 15.6243 49.7385 15.5288 49.7761ZM14.274 38.5086L14.2659 38.5059C14.2686 38.5086 14.2713 38.5086 14.274 38.5086C14.274 38.51 14.274 38.51 14.274 38.5086ZM6.75027 31.3625C6.7422 31.3477 6.73414 31.3315 6.72607 31.3168C6.73414 31.3329 6.7422 31.3477 6.75027 31.3625ZM6.8377 31.5277C6.81214 31.4713 6.77986 31.4175 6.75027 31.3625C6.75296 31.3678 6.75565 31.3719 6.757 31.3772C6.74355 31.3517 6.7301 31.3262 6.71665 31.302C6.71934 31.3074 6.72338 31.3127 6.72607 31.3168C6.70186 31.2738 6.68168 31.2294 6.65613 31.1864C6.6373 31.1555 6.61309 31.1259 6.59291 31.095C6.5566 31.0399 6.51894 30.9862 6.47994 30.9324C6.52028 30.9849 6.5566 31.0399 6.59291 31.0937C6.55122 31.0305 6.50818 30.9687 6.46245 30.9096C6.46783 30.9177 6.47456 30.9244 6.47994 30.9324C6.46245 30.9096 6.44766 30.8868 6.43017 30.8653C6.41807 30.8505 6.40596 30.837 6.39386 30.8223C6.33199 30.747 6.26609 30.6731 6.19749 30.6019C6.24591 30.6516 6.28895 30.7027 6.33333 30.7551C6.28088 30.6946 6.22977 30.6341 6.17194 30.5777C6.18001 30.5858 6.18942 30.5938 6.19749 30.6032C6.18539 30.5898 6.17194 30.5777 6.15983 30.5643C6.14369 30.5481 6.12621 30.5333 6.11007 30.5186C6.06703 30.4783 6.02265 30.4393 5.97557 30.4003C6.00113 30.4218 6.02534 30.4447 6.05089 30.4675C6.01054 30.4312 5.96885 30.3949 5.92581 30.3587C5.92312 30.3573 5.92178 30.3546 5.91909 30.3533C5.93792 30.3681 5.95674 30.3842 5.97557 30.4003C5.94195 30.3708 5.91102 30.3398 5.87605 30.3103C5.5694 30.0603 5.26543 29.8924 4.9682 29.7929C3.67703 29.3562 2.5096 30.2149 1.79274 31.3396C0.80688 32.5503 0.250068 34.1427 1.45112 34.7501C1.69187 34.8724 1.9501 34.9194 2.21775 34.91C2.23389 34.91 2.25003 34.9073 2.26482 34.9073C2.29845 34.906 2.33207 34.9046 2.36569 34.9006C4.10204 34.7474 6.15445 32.3595 6.8377 31.5277ZM7.70789 24.3023C7.69175 24.3305 7.67157 24.3627 7.6514 24.3977C7.64871 24.4017 7.64736 24.4044 7.64467 24.4084C7.64064 24.4152 7.63526 24.4232 7.63122 24.4299C7.51421 24.6275 7.34206 24.9083 7.12686 25.2375C6.23919 26.6176 4.78394 28.558 3.46184 28.9611C3.45377 28.9638 3.4457 28.9652 3.43898 28.9679C3.3919 28.9813 3.34483 28.9947 3.29775 29.0041C3.26144 29.0122 3.22378 29.0176 3.18747 29.0229C3.16729 29.0256 3.14712 29.0297 3.12694 29.031C3.06776 29.0377 3.00993 29.0391 2.9521 29.0377C2.95075 29.0377 2.95075 29.0377 2.94941 29.0377C2.80012 29.035 2.65486 29.0095 2.51364 28.9517C2.39125 28.902 2.29307 28.8375 2.21237 28.7636C2.20833 28.7596 2.20295 28.7555 2.19892 28.7515C2.17471 28.7287 2.15319 28.7031 2.13167 28.6789C2.12629 28.6722 2.11957 28.6642 2.11419 28.6574C2.0967 28.6333 2.08056 28.6091 2.06577 28.5835C2.06039 28.5741 2.05501 28.5647 2.04963 28.5553C2.03618 28.5298 2.02407 28.5029 2.01331 28.476C2.00928 28.4666 2.00524 28.4559 2.00121 28.4465C1.99045 28.4183 1.98238 28.3887 1.97565 28.3578C1.97297 28.3484 1.97027 28.3403 1.96893 28.3309C1.9622 28.2973 1.95682 28.2637 1.95279 28.2301C1.95144 28.2234 1.95145 28.2167 1.9501 28.21C1.94607 28.1723 1.94472 28.1334 1.94472 28.0931C1.94472 28.0904 1.94472 28.0863 1.94472 28.0837C1.94741 27.8216 2.02542 27.5287 2.14916 27.2317C2.1505 27.2277 2.15184 27.2236 2.15453 27.2196C2.17067 27.182 2.18681 27.1444 2.2043 27.1054C2.21102 27.0906 2.21775 27.0745 2.22447 27.0597C2.23523 27.0369 2.24599 27.014 2.2581 26.9912C2.27289 26.9589 2.28903 26.928 2.30517 26.8958C2.30517 26.8944 2.30651 26.8944 2.30651 26.8931C3.00993 25.1811 5.50215 23.0969 7.87197 23.9972L7.8787 23.9999C7.82221 24.1007 7.76572 24.2015 7.70789 24.3023ZM45.5081 29.7849C47.0965 28.9799 48.2316 27.5959 48.194 25.857C48.1577 24.1209 47.001 23.0257 45.3588 22.3901C44.19 21.8889 42.7886 21.6551 41.3548 21.6107C41.3158 21.6094 41.2768 21.608 41.2378 21.6067C41.1934 21.6053 41.1491 21.604 41.1047 21.604C39.2594 21.5556 37.3616 21.8284 35.7046 22.3256C35.4625 24.6033 36.1041 27.3244 38.0556 29.0713C38.2654 29.2595 38.4874 29.4274 38.7187 29.5779C39.5808 30.1853 40.638 30.5992 41.9036 30.6812C42.1551 30.6973 42.4066 30.6959 42.6554 30.6785C43.5525 30.6449 44.4778 30.3882 45.3911 29.8507C45.4301 29.8292 45.4691 29.8077 45.5081 29.7849ZM38.1135 5.19116C36.7604 6.79428 34.8909 8.22809 33.051 9.33401C33.0497 9.33267 33.0483 9.32998 33.047 9.32864C33.0456 9.32864 33.0456 9.32998 33.0443 9.32998C31.9791 7.80883 32.1351 5.93561 32.9905 4.30831C33.7208 2.83016 35.0349 1.50251 36.7591 0.880347C37.5486 0.545748 38.4242 0.34687 39.1034 0.591437C39.1303 0.600843 39.1558 0.61025 39.1814 0.621C39.2917 0.666688 39.3979 0.721782 39.4947 0.794345C40.1188 1.26332 39.9857 2.05883 39.6602 2.79656C39.3683 3.63642 38.794 4.44268 38.1135 5.19116ZM33.4478 9.08273C33.4572 9.07601 33.4666 9.07063 33.4774 9.06526C33.4707 9.06929 33.4639 9.07332 33.4572 9.07735C33.4532 9.0787 33.4505 9.08004 33.4478 9.08273ZM12.9882 21.182C12.3238 21.5287 11.5921 21.5865 10.9398 21.0638C10.114 20.4027 10.2337 18.9326 10.3857 18.0981C10.4651 18.0484 10.5511 17.9973 10.6426 17.9462C11.0945 17.6829 11.5841 17.445 12.0978 17.2784C12.3668 17.191 12.617 17.1292 12.8483 17.0903C13.4146 16.9747 13.9566 16.9653 14.3614 17.1548C14.7138 17.3174 14.964 17.6291 15.0366 18.1505C15.0689 18.3776 15.0258 18.6181 14.9411 18.856C14.8187 19.2376 14.6304 19.6716 14.3305 20.0613C13.8772 20.6943 12.9882 21.182 12.9882 21.182ZM14.3117 30.7174C14.2673 30.5428 14.2135 30.3896 14.1516 30.2565C14.0817 30.0039 13.9472 29.7996 13.7347 29.6653C13.7105 29.6478 13.6836 29.633 13.6567 29.6182C13.6553 29.6169 13.654 29.6169 13.6513 29.6156C13.4092 29.4839 13.0689 29.4476 12.6089 29.5403C12.5793 29.5457 12.5484 29.5524 12.5188 29.5591C12.496 29.5645 12.4744 29.5685 12.4516 29.5739C12.3991 29.586 12.348 29.5954 12.2915 29.6102C11.424 29.8373 10.7314 30.403 10.1772 31.1354C8.75965 32.9615 8.24184 35.8439 8.14231 37.4135C8.145 37.4135 8.14769 37.4121 8.15038 37.4108C8.15038 37.4121 8.15038 37.4135 8.15038 37.4148C8.24991 37.3893 8.35078 37.3597 8.453 37.3288C9.24249 37.091 9.99298 36.7228 10.6735 36.2753C12.8685 34.8872 14.7985 32.6216 14.3117 30.7174ZM30.4055 8.6675C30.2683 9.92258 29.7532 11.3255 28.9112 12.4556C28.0141 13.876 26.723 14.9348 25.0996 14.6674C24.5939 14.5707 24.3007 14.4148 24.142 14.2589C23.9739 14.1057 23.8663 13.8934 23.8582 13.6085C23.8555 13.3828 23.8838 13.1584 23.9322 12.9353C23.9362 12.9152 23.9402 12.895 23.9443 12.8762C23.9537 12.8372 23.9645 12.7983 23.9752 12.7593C23.9887 12.7069 24.0035 12.6545 24.0196 12.6021C24.0223 12.594 24.025 12.5859 24.0277 12.5765C24.1891 12.082 24.4621 11.5942 24.8158 11.1212C24.8225 11.1118 24.8293 11.1038 24.836 11.0944C24.8858 11.0285 24.9369 10.9627 24.9893 10.8968C26.3276 9.23323 28.5898 7.78061 30.306 6.90044C30.306 6.90313 30.3073 6.90447 30.3073 6.90716C30.3086 6.90582 30.31 6.90582 30.3113 6.90447C30.3275 6.96629 30.3423 7.03213 30.3544 7.10335C30.4674 7.61399 30.4741 8.14209 30.4055 8.6675ZM30.3638 7.15576C30.3678 7.17591 30.3732 7.19473 30.3759 7.21488C30.3705 7.17995 30.3651 7.14501 30.3584 7.11142C30.3611 7.12485 30.3624 7.14098 30.3638 7.15576ZM22.2133 32.0908C22.1716 31.2375 21.9107 30.4514 21.2167 30.0617C21.1804 30.0402 21.1414 30.02 21.1024 30.0012C21.097 29.9985 21.093 29.9958 21.0876 29.9945C21.0392 29.9703 20.9934 29.9461 20.941 29.926C20.5563 29.7781 20.1649 29.758 19.7857 29.8225C18.6707 29.9327 17.8677 30.6167 17.3298 31.4686C17.2006 31.6473 17.093 31.8368 16.9949 32.029C16.9653 32.0854 16.937 32.1418 16.9101 32.1983C16.9007 32.2184 16.89 32.2386 16.8805 32.2601C15.8355 34.5123 16.6142 37.3274 18.5725 39.1415C18.5806 39.1496 18.5886 39.1563 18.5967 39.163C18.6801 39.2396 18.7662 39.3135 18.8536 39.3861C18.8765 39.4049 18.8993 39.4251 18.9235 39.4439C19.0217 39.5232 19.1212 39.6011 19.2248 39.6764C19.2262 39.675 19.2262 39.675 19.2275 39.6737C19.2302 39.675 19.2315 39.6764 19.2329 39.6777C20.902 37.6325 22.5415 34.6426 22.2133 32.0908ZM33.7235 27.1995C33.7222 27.1968 33.7222 27.1927 33.7208 27.19C33.7222 27.1941 33.7222 27.1968 33.7235 27.1995ZM29.1399 29.973C29.0215 29.973 28.9059 29.9676 28.7888 29.9622C28.735 29.9596 28.6799 29.9596 28.6248 29.9569C28.5212 29.9501 28.4176 29.9381 28.3154 29.9286C28.2509 29.9219 28.185 29.9179 28.1204 29.9098C28.0289 29.8977 27.9388 29.8803 27.8487 29.8655C27.7761 29.8534 27.7008 29.844 27.6295 29.8292C27.5488 29.8131 27.4708 29.7902 27.3928 29.7714C27.3134 29.7513 27.2327 29.7351 27.1547 29.7123C27.1318 29.7056 27.1103 29.6975 27.0875 29.6908C27.0888 29.6908 27.0915 29.6921 27.0928 29.6921C27.0727 29.6854 27.0538 29.6787 27.0337 29.672C27.0054 29.6626 26.9785 29.6532 26.9503 29.6438C26.996 29.6586 27.0404 29.676 27.0861 29.6908C26.1514 29.4436 25.3968 28.9719 25.0108 28.1871C24.8548 27.8942 24.7714 27.5851 24.7526 27.2693C24.6544 26.2319 25.1857 25.1757 26.0532 24.391C26.9973 23.4893 28.3598 22.9074 29.8204 23.1749C30.2777 23.2582 30.692 23.4073 31.0645 23.6075C32.4579 24.3493 33.2918 25.7966 33.7208 27.1914C33.5984 26.7923 33.4411 26.3932 33.2487 26.0089C33.4464 26.412 33.6065 26.8286 33.7302 27.2398C33.78 27.3997 33.823 27.5609 33.8634 27.7222C33.823 27.5488 33.7773 27.3741 33.7249 27.2008C33.7908 27.4171 33.8472 27.6321 33.8957 27.8431C33.8997 27.8619 33.9037 27.8794 33.9078 27.8982C33.9441 28.0675 33.9764 28.2342 34.0006 28.3968C34.0046 28.4183 34.0073 28.4411 34.01 28.4626C34.0355 28.6386 34.0557 28.8093 34.0692 28.9719C33.1048 29.3495 31.9213 29.6921 30.7068 29.8615C30.5481 29.8843 30.3893 29.9018 30.2293 29.9179C30.2145 29.9192 30.1984 29.9219 30.1836 29.9233C30.0397 29.9367 29.8957 29.9461 29.7532 29.9555C29.7222 29.9569 29.6913 29.9609 29.6604 29.9622C29.5286 29.969 29.3981 29.9703 29.2676 29.9717C29.2246 29.9717 29.1816 29.9743 29.1399 29.973ZM26.692 29.5537C26.688 29.5524 26.684 29.551 26.6813 29.5497C26.6867 29.5524 26.692 29.5537 26.6974 29.5551C26.6947 29.5551 26.6934 29.5551 26.692 29.5537ZM37.987 13.9069C38.1 13.7389 38.2117 13.5696 38.3206 13.4016C38.3179 13.4003 38.3152 13.4003 38.3125 13.4003C38.3125 13.3989 38.3139 13.3989 38.3139 13.3976C36.3005 12.8802 33.9024 13.0966 31.9899 13.7779C30.848 14.1487 29.8137 14.6768 29.0538 15.3487C29.0511 15.3447 29.0498 15.3393 29.0498 15.3393C29.0498 15.3393 28.9556 15.4267 28.8157 15.5758C28.6611 15.7317 28.5239 15.8943 28.4001 16.065C27.9617 16.6334 27.4775 17.4585 27.5447 18.262C27.5461 18.2808 27.5461 18.301 27.5474 18.3198C27.5474 18.3238 27.5474 18.3279 27.5474 18.3319C27.5474 18.3319 27.5515 18.3843 27.573 18.469C27.5797 18.4972 27.5891 18.5254 27.5972 18.5536C27.6093 18.5913 27.6241 18.6316 27.6429 18.6759C27.647 18.684 27.6497 18.692 27.6537 18.7014C27.768 18.9594 28.0061 19.3008 28.497 19.5534C28.532 19.5709 28.5683 19.5856 28.6059 19.5964C28.7673 19.6421 29.2529 19.7576 29.9993 19.7308C32.2467 19.7173 34.6327 17.7635 36.3354 15.9145C36.3502 15.8983 36.365 15.8849 36.3812 15.8715C37.0415 15.3326 37.5338 14.6137 37.987 13.9069ZM21.097 13.7846C20.5846 14.8166 19.6592 15.7935 18.4515 15.9077C18.2806 15.9239 18.1314 15.9225 17.9969 15.9077C17.9915 15.9077 17.9861 15.9064 17.9807 15.9064C17.8449 15.8903 17.7265 15.8594 17.6243 15.815C17.6203 15.8137 17.6176 15.8137 17.6122 15.8123C17.6055 15.8096 17.6001 15.8056 17.5934 15.8029C17.5772 15.7949 17.5624 15.7868 17.5463 15.7787C17.4696 15.7398 17.4024 15.6901 17.3445 15.6323C17.3257 15.6148 17.3082 15.596 17.2908 15.5758C17.284 15.5678 17.2786 15.561 17.2719 15.553C17.2504 15.5261 17.2302 15.4979 17.2114 15.4683C17.206 15.4603 17.202 15.4535 17.1966 15.4455C17.1885 15.4307 17.1805 15.4159 17.1724 15.3998C17.0661 15.2036 17.011 14.9778 16.9841 14.7817C16.9828 14.7709 16.9814 14.7588 16.9801 14.7481C16.968 14.6513 16.9626 14.564 16.9599 14.4914C16.9599 14.4699 16.9585 14.4497 16.9585 14.4282C16.9572 14.3503 16.9612 14.3033 16.9612 14.3033C17.0392 12.8278 18.3936 11.0178 19.2262 9.95483C20.1609 10.0381 20.7648 10.4104 21.1104 10.9197C21.2947 11.1535 21.4265 11.4169 21.4924 11.695C21.4951 11.7058 21.4965 11.7152 21.4978 11.7259C21.5099 11.7783 21.5193 11.8307 21.5274 11.8845C21.5314 11.9141 21.5328 11.9436 21.5341 11.9732C21.5368 12.0054 21.5408 12.0363 21.5422 12.0686C21.5422 12.0713 21.5422 12.0726 21.5422 12.0753C21.5422 12.0793 21.5435 12.0834 21.5435 12.0874C21.5556 12.6679 21.3915 13.2498 21.097 13.7846ZM20.6061 10.4453C20.5873 10.4319 20.5698 10.4184 20.5496 10.405C20.5698 10.4171 20.5873 10.4319 20.6061 10.4453ZM17.9632 7.15845C17.9605 7.15845 17.9579 7.1571 17.9552 7.1571C17.9041 7.15173 17.8503 7.14904 17.7924 7.14904C17.7884 7.14904 17.7844 7.15038 17.7803 7.15038C17.7722 7.15038 17.7642 7.15173 17.7548 7.15173C16.5026 7.17591 15.5436 8.37456 15.5436 8.37456H15.545C14.9545 9.01016 14.547 9.83658 14.4098 10.6536C14.4018 10.6899 14.395 10.7275 14.387 10.7638C14.3843 10.7799 14.3802 10.796 14.3776 10.8122C14.2 11.8092 14.4596 12.8023 15.5167 13.3976C15.5288 13.4043 15.5396 13.4124 15.5531 13.4191L15.5584 13.4218C15.5571 13.4204 15.5544 13.4191 15.5531 13.4191C15.5544 13.4204 15.5571 13.4218 15.5584 13.4218C16.512 12.4018 17.5517 11.1548 18.1408 9.86077H18.1421C18.1435 9.86077 19.5301 7.32373 17.9632 7.15845ZM13.2787 15.4173C13.2397 15.4441 13.2007 15.4737 13.1577 15.5033C13.198 15.475 13.2384 15.4468 13.2787 15.4173ZM13.1375 15.518C12.999 15.6161 12.8416 15.7236 12.6695 15.8365C12.8201 15.7384 12.9761 15.6323 13.1375 15.518ZM13.8624 14.9832C13.8154 13.8007 13.4549 13.1597 12.9452 12.8937C12.9115 12.8762 12.8766 12.8601 12.8416 12.8453C12.8416 12.8453 12.804 12.8292 12.7367 12.8077C12.7192 12.8023 12.7004 12.7969 12.6829 12.7929C12.3346 12.6961 11.4442 12.5644 10.4072 13.278C10.3427 13.321 10.2795 13.3667 10.2189 13.4137C10.2149 13.4164 10.2109 13.4191 10.2068 13.4218C10.2014 13.4258 10.1961 13.4312 10.1907 13.4352C10.1557 13.4621 10.1221 13.4903 10.0898 13.5185C9.05823 14.3772 8.59556 15.4482 8.73544 16.1644C8.73948 16.1872 8.74754 16.2074 8.75561 16.2262C8.81076 16.4614 8.95332 16.6616 9.20349 16.8081C9.24114 16.8296 9.28015 16.8497 9.3205 16.8672C10.2283 17.2676 11.6755 16.4869 12.6681 15.8352C12.4798 15.9575 12.3009 16.0663 12.1274 16.1657C12.3789 16.0179 12.6157 15.8647 12.8268 15.7223C12.9761 15.6242 13.1294 15.5194 13.2895 15.4065C13.2854 15.4092 13.2814 15.4132 13.276 15.4159C13.3581 15.3568 13.432 15.303 13.4953 15.2574C13.5033 15.2506 13.5114 15.2439 13.5208 15.2385C13.545 15.2211 13.5665 15.2049 13.5908 15.1875C13.6849 15.1216 13.775 15.0531 13.8624 14.9832ZM8.57808 22.1133C8.37768 22.1939 8.18669 22.2638 8.00647 22.3202C6.82963 22.7059 6.10738 22.6105 5.72138 22.253C5.72138 22.253 5.52232 22.0985 5.33941 21.815C5.04217 21.354 4.78797 20.5505 5.51022 19.5158C6.07376 18.7095 6.61309 18.297 7.0085 18.086C7.10938 18.0296 7.21428 17.9839 7.32054 17.9462C7.51959 17.875 7.63929 17.8656 7.63929 17.8656C7.79934 17.8414 7.96209 17.8401 8.12886 17.867C8.39382 17.9086 8.59153 18.0188 8.74082 18.1707C9.62446 18.8721 9.12548 20.7829 8.82017 21.7558C8.83766 21.694 8.85783 21.6322 8.87531 21.5704C8.85648 21.6403 8.83362 21.7088 8.81345 21.7787C8.81614 21.772 8.81748 21.7639 8.82017 21.7572C8.79193 21.8553 8.76503 21.9547 8.73275 22.0515C8.68164 22.0716 8.63053 22.0918 8.57808 22.1133ZM9.12279 20.146C9.12548 20.1205 9.12682 20.0963 9.12817 20.0707C9.1201 20.1809 9.1053 20.2911 9.0932 20.4013C9.10261 20.3167 9.11472 20.2307 9.12279 20.146ZM8.9856 21.0866C8.96274 21.1982 8.93449 21.3097 8.9076 21.4212C8.93584 21.3097 8.96274 21.1982 8.9856 21.0866ZM9.14027 19.9055C9.14027 19.9028 9.14027 19.8987 9.14027 19.8961C9.14162 19.8987 9.14162 19.9028 9.14027 19.9055ZM11.7993 24.2445C11.4415 23.9986 10.8578 24.0362 10.8578 24.0362L10.8564 24.0389C8.90222 24.0765 6.53239 27.3661 5.93388 28.2557C6.2903 28.64 6.67899 28.8845 7.08383 29.0176C7.60836 29.1923 8.1598 29.1748 8.69644 29.027C10.6224 28.6668 12.1853 26.756 12.3077 25.3518L12.305 25.3531C12.3668 24.8317 12.0884 24.4434 11.7993 24.2445ZM7.26136 33.2787C7.26136 33.276 7.26136 33.2733 7.26136 33.2706C7.26001 33.2719 7.25733 33.2733 7.25598 33.2733C7.25598 33.2733 7.25598 33.2733 7.25464 33.2733C7.25464 33.272 7.25464 33.2693 7.25464 33.2679C7.13359 33.3297 7.00581 33.4023 6.87401 33.4802C5.95674 34.0016 5.13094 34.6587 4.42483 35.3803C2.89292 36.841 1.53989 38.7129 1.64076 40.2663C1.63673 40.8522 1.82905 41.391 2.30651 41.8318C2.57147 42.0441 2.82836 42.1086 3.08794 42.0871C3.22109 42.0965 3.3529 42.0763 3.48336 42.0387C4.68172 41.7713 5.58015 40.402 5.58015 40.402C7.06634 38.3648 7.3972 35.0672 7.26136 33.2787Z" fill="white"/>
</g>
</svg>
