<svg width="15" height="15" viewBox="0 0 15 15" fill="none" xmlns="http://www.w3.org/2000/svg">
<g id="Vector">
<path d="M10.9079 1.54653C8.92932 1.77457 8.34195 2.60379 8.79111 2.947C9.02836 3.12897 9.57887 3.11745 10.0833 2.78346C10.187 2.71435 10.5025 2.50475 10.9079 1.54653Z" fill="url(#paint0_linear_1_1694)"/>
<path d="M13.6927 1.00758C13.2643 0.770334 11.539 0.823313 11.3962 2.42187C11.4538 2.4449 12.8681 2.06945 13.3841 1.79995C13.6328 1.66866 13.9369 1.38073 13.8332 1.14809C13.7987 1.06978 13.7319 1.03062 13.695 1.00758" fill="url(#paint1_linear_1_1694)"/>
<path d="M12.348 0.256734C12.0371 0.113924 10.5307 0.0310014 9.49873 1.36006C10.2036 1.37158 12.7903 0.747358 12.4079 0.302802C12.4079 0.302802 12.3826 0.275161 12.3457 0.256734" fill="url(#paint2_linear_1_1694)"/>
<path d="M4.11295 8.99566C3.4703 8.69852 2.55816 9.60606 2.99811 11.6284C3.18008 11.4925 4.09683 10.7969 4.30183 10.3132C4.60818 9.59224 4.35711 9.12926 4.11526 8.99566" fill="url(#paint3_linear_1_1694)"/>
<path d="M4.40329 11.6309C2.25653 12.6029 2.62047 14.4871 3.30688 14.7681C3.72149 14.9362 4.14071 14.4871 4.272 14.1116C4.48852 13.4897 4.46318 12.4186 4.40329 11.6309Z" fill="url(#paint4_linear_1_1694)"/>
<path d="M2.19887 10.4033C0.556547 12.1562 1.0702 13.8377 1.66218 13.8031C1.67369 13.8031 2.82539 13.6949 2.19887 10.4033Z" fill="url(#paint5_linear_1_1694)"/>
<path d="M4.49078 3.55517C4.08077 3.44 3.13868 4.02276 3.13177 4.02967C3.12717 4.03428 2.86228 4.76676 3.03273 5.07311C3.29071 5.5407 4.40555 4.61013 4.58522 3.92371C4.65432 3.65882 4.54145 3.5759 4.49078 3.55287" fill="url(#paint6_linear_1_1694)"/>
<path d="M4.80854 1.88962C4.40314 1.76984 2.82301 3.12193 2.99116 3.44441C3.05565 3.56879 3.30903 3.46975 4.68646 2.78564C4.93523 1.95411 4.87073 1.92186 4.80854 1.88962Z" fill="url(#paint7_linear_1_1694)"/>
<path d="M2.37171 4.24386C2.11373 4.19549 1.64153 4.75982 1.42732 5.06387C1.01731 5.64663 0.860681 6.13955 0.945906 6.27776C1.06568 6.47355 2.19895 5.70651 2.20817 5.695C2.21738 5.68348 2.59053 4.30375 2.37171 4.24386Z" fill="url(#paint8_linear_1_1694)"/>
<path d="M10.2886 6.79611C9.37647 6.3147 8.42517 7.26139 8.72001 8.06989C8.94113 8.67107 9.74041 8.81158 11.0948 8.4845C11.0464 8.25646 10.7862 7.10707 10.2886 6.79611Z" fill="url(#paint9_linear_1_1694)"/>
<path d="M13.8655 6.95956C13.2229 6.61865 12.1817 6.62787 11.6197 6.66242C11.88 9.30672 13.5223 9.35739 14.1396 8.55812C14.5726 7.99609 14.3469 7.23827 13.8655 6.95956Z" fill="url(#paint10_linear_1_1694)"/>
<path d="M12.0319 9.64769C11.228 9.15706 9.63638 9.68684 9.45902 9.74904C10.6568 13.2064 12.23 11.5825 12.4258 11.2186C12.6861 10.7372 12.6331 10.0416 12.0342 9.64769" fill="url(#paint11_linear_1_1694)"/>
<path d="M12.3845 4.17261C10.5142 3.07159 9.63196 4.168 9.77247 4.76689C9.87151 5.1861 10.3713 5.34504 10.7814 5.2529C11.3319 5.12852 12.0897 4.45823 12.3891 4.17491C12.3891 4.17491 12.3868 4.17491 12.3845 4.17261Z" fill="url(#paint12_linear_1_1694)"/>
<path d="M14.6189 4.46737C13.4511 3.79247 12.1473 5.40024 11.8963 5.72963C12.4652 5.95536 13.5801 6.29396 14.1421 6.12812C14.8561 5.91621 15.1349 5.27125 14.9391 4.8267C14.8584 4.64243 14.7202 4.52956 14.6189 4.46967" fill="url(#paint13_linear_1_1694)"/>
<path d="M14.4345 2.35519C13.6606 1.91524 12.3983 2.56941 11.7142 3.00014C13.6836 4.29235 14.8192 3.32262 14.7178 2.73295C14.6925 2.58092 14.5935 2.45193 14.4345 2.35519Z" fill="url(#paint14_linear_1_1694)"/>
<path d="M2.95899 6.68564C2.41769 6.44148 1.66908 7.69683 1.32588 8.54448C2.93365 9.09038 3.29528 7.2016 3.09258 6.82154C3.05112 6.74322 2.99814 6.70407 2.95899 6.68564Z" fill="url(#paint15_linear_1_1694)"/>
<path d="M1.71945 9.66835C0.210721 8.91514 0.0287529 11.1356 0.213025 11.6516C0.519376 12.5107 1.09753 11.2946 1.3463 10.774C1.3486 10.7671 1.81849 9.77431 1.83692 9.73515C1.78624 9.7029 1.73787 9.67757 1.71945 9.66835Z" fill="url(#paint16_linear_1_1694)"/>
<path d="M1.8119 6.69016C1.44796 6.67634 0.934302 6.77539 0.554241 7.3282C0.0820451 8.01001 -0.120654 8.98204 0.0728315 9.21008C0.190305 9.34828 0.393004 9.21008 0.676321 8.80007C0.745423 8.69872 1.12395 7.99542 1.8119 6.69016Z" fill="url(#paint17_linear_1_1694)"/>
<path d="M7.3401 1.35538C6.1861 2.05792 5.61716 2.81804 6.14925 2.95394C6.61223 3.06911 8.02421 2.33663 7.69943 1.71702C7.6096 1.54887 7.43224 1.41066 7.3401 1.35769" fill="url(#paint18_linear_1_1694)"/>
<path d="M10.2906 0.0401983C9.85292 -0.14868 8.02403 0.36037 8.18066 0.892455C8.24515 1.11128 8.63443 1.29325 8.71274 1.32549C8.7496 1.30937 10.0602 0.459417 10.2307 0.318909C10.2698 0.286662 10.4587 0.120817 10.2906 0.0401983Z" fill="url(#paint19_linear_1_1694)"/>
<path d="M7.56098 0.519419C7.33064 0.436497 6.4922 0.735939 5.87719 1.19201C5.59157 1.40162 5.32438 1.66881 5.49713 2.04427C5.53399 2.12719 5.58236 2.18708 5.59848 2.20551C5.65376 2.18938 7.32373 0.934031 7.33755 0.922514C7.58401 0.715208 7.66463 0.581611 7.5794 0.528633C7.5748 0.52633 7.56789 0.521723 7.56328 0.521723" fill="url(#paint20_linear_1_1694)"/>
<path d="M7.18803 9.04657C6.37724 8.59971 5.51577 9.66388 5.77836 10.4632C5.98566 11.0966 6.87708 11.6448 6.97842 11.7047C8.02877 9.5441 7.45983 9.21011 7.18803 9.04887" fill="url(#paint21_linear_1_1694)"/>
<path d="M8.55383 10.4583C6.88617 12.9713 8.03787 14.1253 8.95232 13.9203C9.31856 13.8373 11.1428 12.764 8.55383 10.4583Z" fill="url(#paint22_linear_1_1694)"/>
<path d="M5.44433 11.7461C5.40056 11.7207 5.34758 11.6908 5.27848 11.6539C5.25314 11.6724 4.83162 12.9784 4.99516 13.9827C5.03662 14.2314 5.28769 14.7797 5.80596 14.8764C6.649 15.033 7.32159 13.8168 6.67434 12.8333C6.43018 12.4624 5.98102 12.0663 5.44202 11.7461" fill="url(#paint23_linear_1_1694)"/>
</g>
<defs>
<linearGradient id="paint0_linear_1_1694" x1="58.1394" y1="-42.9562" x2="-67.8401" y2="14.5168" gradientUnits="userSpaceOnUse">
<stop offset="0.39" stop-color="#45FF3C"/>
<stop offset="0.45" stop-color="#40FB47"/>
<stop offset="0.57" stop-color="#35F166"/>
<stop offset="0.73" stop-color="#23E098"/>
<stop offset="0.92" stop-color="#0BCADC"/>
<stop offset="1" stop-color="#00C0FD"/>
</linearGradient>
<linearGradient id="paint1_linear_1_1694" x1="40.0358" y1="-28.595" x2="-78.9023" y2="21.3263" gradientUnits="userSpaceOnUse">
<stop offset="0.39" stop-color="#45FF3C"/>
<stop offset="0.45" stop-color="#40FB47"/>
<stop offset="0.57" stop-color="#35F166"/>
<stop offset="0.73" stop-color="#23E098"/>
<stop offset="0.92" stop-color="#0BCADC"/>
<stop offset="1" stop-color="#00C0FD"/>
</linearGradient>
<linearGradient id="paint2_linear_1_1694" x1="38.6592" y1="-43.8402" x2="-69.981" y2="-14.3124" gradientUnits="userSpaceOnUse">
<stop offset="0.39" stop-color="#45FF3C"/>
<stop offset="0.45" stop-color="#40FB47"/>
<stop offset="0.57" stop-color="#35F166"/>
<stop offset="0.73" stop-color="#23E098"/>
<stop offset="0.92" stop-color="#0BCADC"/>
<stop offset="1" stop-color="#00C0FD"/>
</linearGradient>
<linearGradient id="paint3_linear_1_1694" x1="155.727" y1="-51.3853" x2="62.6952" y2="57.4242" gradientUnits="userSpaceOnUse">
<stop offset="0.39" stop-color="#45FF3C"/>
<stop offset="0.45" stop-color="#40FB47"/>
<stop offset="0.57" stop-color="#35F166"/>
<stop offset="0.73" stop-color="#23E098"/>
<stop offset="0.92" stop-color="#0BCADC"/>
<stop offset="1" stop-color="#00C0FD"/>
</linearGradient>
<linearGradient id="paint4_linear_1_1694" x1="160.451" y1="-45.2721" x2="83.2028" y2="54.3681" gradientUnits="userSpaceOnUse">
<stop offset="0.39" stop-color="#45FF3C"/>
<stop offset="0.45" stop-color="#40FB47"/>
<stop offset="0.57" stop-color="#35F166"/>
<stop offset="0.73" stop-color="#23E098"/>
<stop offset="0.92" stop-color="#0BCADC"/>
<stop offset="1" stop-color="#00C0FD"/>
</linearGradient>
<linearGradient id="paint5_linear_1_1694" x1="213.633" y1="-44.3205" x2="150.157" y2="69.0619" gradientUnits="userSpaceOnUse">
<stop offset="0.39" stop-color="#45FF3C"/>
<stop offset="0.45" stop-color="#40FB47"/>
<stop offset="0.57" stop-color="#35F166"/>
<stop offset="0.73" stop-color="#23E098"/>
<stop offset="0.92" stop-color="#0BCADC"/>
<stop offset="1" stop-color="#00C0FD"/>
</linearGradient>
<linearGradient id="paint6_linear_1_1694" x1="123.87" y1="-69.9327" x2="-18.8297" y2="28.6363" gradientUnits="userSpaceOnUse">
<stop offset="0.39" stop-color="#45FF3C"/>
<stop offset="0.45" stop-color="#40FB47"/>
<stop offset="0.57" stop-color="#35F166"/>
<stop offset="0.73" stop-color="#23E098"/>
<stop offset="0.92" stop-color="#0BCADC"/>
<stop offset="1" stop-color="#00C0FD"/>
</linearGradient>
<linearGradient id="paint7_linear_1_1694" x1="101.969" y1="-65.6362" x2="-34.5359" y2="13.3873" gradientUnits="userSpaceOnUse">
<stop offset="0.39" stop-color="#45FF3C"/>
<stop offset="0.45" stop-color="#40FB47"/>
<stop offset="0.57" stop-color="#35F166"/>
<stop offset="0.73" stop-color="#23E098"/>
<stop offset="0.92" stop-color="#0BCADC"/>
<stop offset="1" stop-color="#00C0FD"/>
</linearGradient>
<linearGradient id="paint8_linear_1_1694" x1="151.823" y1="-62.9449" x2="29.8212" y2="50.0615" gradientUnits="userSpaceOnUse">
<stop offset="0.39" stop-color="#45FF3C"/>
<stop offset="0.45" stop-color="#40FB47"/>
<stop offset="0.57" stop-color="#35F166"/>
<stop offset="0.73" stop-color="#23E098"/>
<stop offset="0.92" stop-color="#0BCADC"/>
<stop offset="1" stop-color="#00C0FD"/>
</linearGradient>
<linearGradient id="paint9_linear_1_1694" x1="69.9807" y1="-42.2498" x2="-38.0825" y2="17.8929" gradientUnits="userSpaceOnUse">
<stop offset="0.39" stop-color="#45FF3C"/>
<stop offset="0.45" stop-color="#40FB47"/>
<stop offset="0.57" stop-color="#35F166"/>
<stop offset="0.73" stop-color="#23E098"/>
<stop offset="0.92" stop-color="#0BCADC"/>
<stop offset="1" stop-color="#00C0FD"/>
</linearGradient>
<linearGradient id="paint10_linear_1_1694" x1="50.3231" y1="-27.5374" x2="-42.9205" y2="26.8942" gradientUnits="userSpaceOnUse">
<stop offset="0.39" stop-color="#45FF3C"/>
<stop offset="0.45" stop-color="#40FB47"/>
<stop offset="0.57" stop-color="#35F166"/>
<stop offset="0.73" stop-color="#23E098"/>
<stop offset="0.92" stop-color="#0BCADC"/>
<stop offset="1" stop-color="#00C0FD"/>
</linearGradient>
<linearGradient id="paint11_linear_1_1694" x1="58.4265" y1="-36.4343" x2="-27.0425" y2="9.70608" gradientUnits="userSpaceOnUse">
<stop offset="0.39" stop-color="#45FF3C"/>
<stop offset="0.45" stop-color="#40FB47"/>
<stop offset="0.57" stop-color="#35F166"/>
<stop offset="0.73" stop-color="#23E098"/>
<stop offset="0.92" stop-color="#0BCADC"/>
<stop offset="1" stop-color="#00C0FD"/>
</linearGradient>
<linearGradient id="paint12_linear_1_1694" x1="51.0329" y1="-43.4434" x2="-61.1008" y2="2.17742" gradientUnits="userSpaceOnUse">
<stop offset="0.39" stop-color="#45FF3C"/>
<stop offset="0.45" stop-color="#40FB47"/>
<stop offset="0.57" stop-color="#35F166"/>
<stop offset="0.73" stop-color="#23E098"/>
<stop offset="0.92" stop-color="#0BCADC"/>
<stop offset="1" stop-color="#00C0FD"/>
</linearGradient>
<linearGradient id="paint13_linear_1_1694" x1="39.3519" y1="-25.7302" x2="-55.5735" y2="13.0819" gradientUnits="userSpaceOnUse">
<stop offset="0.39" stop-color="#45FF3C"/>
<stop offset="0.45" stop-color="#40FB47"/>
<stop offset="0.57" stop-color="#35F166"/>
<stop offset="0.73" stop-color="#23E098"/>
<stop offset="0.92" stop-color="#0BCADC"/>
<stop offset="1" stop-color="#00C0FD"/>
</linearGradient>
<linearGradient id="paint14_linear_1_1694" x1="35.4936" y1="-30.3712" x2="-67.9786" y2="3.02167" gradientUnits="userSpaceOnUse">
<stop offset="0.39" stop-color="#45FF3C"/>
<stop offset="0.45" stop-color="#40FB47"/>
<stop offset="0.57" stop-color="#35F166"/>
<stop offset="0.73" stop-color="#23E098"/>
<stop offset="0.92" stop-color="#0BCADC"/>
<stop offset="1" stop-color="#00C0FD"/>
</linearGradient>
<linearGradient id="paint15_linear_1_1694" x1="134.202" y1="-69" x2="12.2839" y2="21.5442" gradientUnits="userSpaceOnUse">
<stop offset="0.39" stop-color="#45FF3C"/>
<stop offset="0.45" stop-color="#40FB47"/>
<stop offset="0.57" stop-color="#35F166"/>
<stop offset="0.73" stop-color="#23E098"/>
<stop offset="0.92" stop-color="#0BCADC"/>
<stop offset="1" stop-color="#00C0FD"/>
</linearGradient>
<linearGradient id="paint16_linear_1_1694" x1="163.381" y1="-65.6906" x2="59.4677" y2="36.4667" gradientUnits="userSpaceOnUse">
<stop offset="0.39" stop-color="#45FF3C"/>
<stop offset="0.45" stop-color="#40FB47"/>
<stop offset="0.57" stop-color="#35F166"/>
<stop offset="0.73" stop-color="#23E098"/>
<stop offset="0.92" stop-color="#0BCADC"/>
<stop offset="1" stop-color="#00C0FD"/>
</linearGradient>
<linearGradient id="paint17_linear_1_1694" x1="142.514" y1="-56.7248" x2="44.1971" y2="38.1019" gradientUnits="userSpaceOnUse">
<stop offset="0.39" stop-color="#45FF3C"/>
<stop offset="0.45" stop-color="#40FB47"/>
<stop offset="0.57" stop-color="#35F166"/>
<stop offset="0.73" stop-color="#23E098"/>
<stop offset="0.92" stop-color="#0BCADC"/>
<stop offset="1" stop-color="#00C0FD"/>
</linearGradient>
<linearGradient id="paint18_linear_1_1694" x1="87.7329" y1="-51.5336" x2="-51.8264" y2="33.3138" gradientUnits="userSpaceOnUse">
<stop offset="0.39" stop-color="#45FF3C"/>
<stop offset="0.45" stop-color="#40FB47"/>
<stop offset="0.57" stop-color="#35F166"/>
<stop offset="0.73" stop-color="#23E098"/>
<stop offset="0.92" stop-color="#0BCADC"/>
<stop offset="1" stop-color="#00C0FD"/>
</linearGradient>
<linearGradient id="paint19_linear_1_1694" x1="56.281" y1="-48.893" x2="-78.1334" y2="6.40414" gradientUnits="userSpaceOnUse">
<stop offset="0.39" stop-color="#45FF3C"/>
<stop offset="0.45" stop-color="#40FB47"/>
<stop offset="0.57" stop-color="#35F166"/>
<stop offset="0.73" stop-color="#23E098"/>
<stop offset="0.92" stop-color="#0BCADC"/>
<stop offset="1" stop-color="#00C0FD"/>
</linearGradient>
<linearGradient id="paint20_linear_1_1694" x1="72.0037" y1="-49.3322" x2="-51.5041" y2="16.3876" gradientUnits="userSpaceOnUse">
<stop offset="0.39" stop-color="#45FF3C"/>
<stop offset="0.45" stop-color="#40FB47"/>
<stop offset="0.57" stop-color="#35F166"/>
<stop offset="0.73" stop-color="#23E098"/>
<stop offset="0.92" stop-color="#0BCADC"/>
<stop offset="1" stop-color="#00C0FD"/>
</linearGradient>
<linearGradient id="paint21_linear_1_1694" x1="116.65" y1="-41.2867" x2="25.0685" y2="51.2729" gradientUnits="userSpaceOnUse">
<stop offset="0.39" stop-color="#45FF3C"/>
<stop offset="0.45" stop-color="#40FB47"/>
<stop offset="0.57" stop-color="#35F166"/>
<stop offset="0.73" stop-color="#23E098"/>
<stop offset="0.92" stop-color="#0BCADC"/>
<stop offset="1" stop-color="#00C0FD"/>
</linearGradient>
<linearGradient id="paint22_linear_1_1694" x1="94.7426" y1="-29.6903" x2="22.2699" y2="47.8403" gradientUnits="userSpaceOnUse">
<stop offset="0.39" stop-color="#45FF3C"/>
<stop offset="0.45" stop-color="#40FB47"/>
<stop offset="0.57" stop-color="#35F166"/>
<stop offset="0.73" stop-color="#23E098"/>
<stop offset="0.92" stop-color="#0BCADC"/>
<stop offset="1" stop-color="#00C0FD"/>
</linearGradient>
<linearGradient id="paint23_linear_1_1694" x1="21.2249" y1="2.83424" x2="5.46275" y2="13.4598" gradientUnits="userSpaceOnUse">
<stop offset="0.39" stop-color="#45FF3C"/>
<stop offset="0.45" stop-color="#40FB47"/>
<stop offset="0.57" stop-color="#35F166"/>
<stop offset="0.73" stop-color="#23E098"/>
<stop offset="0.92" stop-color="#0BCADC"/>
<stop offset="1" stop-color="#00C0FD"/>
</linearGradient>
</defs>
</svg>
