<svg width="24" height="25" viewBox="0 0 24 25" fill="none" xmlns="http://www.w3.org/2000/svg">
<g id="Media/Instagram">
<path id="Vector" d="M12 16.4287C14.0711 16.4287 15.75 14.7498 15.75 12.6787C15.75 10.6076 14.0711 8.92871 12 8.92871C9.92893 8.92871 8.25 10.6076 8.25 12.6787C8.25 14.7498 9.92893 16.4287 12 16.4287Z" stroke="white" stroke-width="1.5" stroke-miterlimit="10"/>
<path id="Vector_2" d="M16.5 3.67871H7.5C5.01472 3.67871 3 5.69343 3 8.17871V17.1787C3 19.664 5.01472 21.6787 7.5 21.6787H16.5C18.9853 21.6787 21 19.664 21 17.1787V8.17871C21 5.69343 18.9853 3.67871 16.5 3.67871Z" stroke="white" stroke-width="1.5" stroke-linecap="round" stroke-linejoin="round"/>
<path id="Vector_3" d="M16.875 8.92871C17.4963 8.92871 18 8.42503 18 7.80371C18 7.18239 17.4963 6.67871 16.875 6.67871C16.2537 6.67871 15.75 7.18239 15.75 7.80371C15.75 8.42503 16.2537 8.92871 16.875 8.92871Z" fill="white"/>
</g>
</svg>
