<svg width="44" height="36" viewBox="0 0 44 36" fill="none" xmlns="http://www.w3.org/2000/svg">
<g id="Layer_2" clip-path="url(#clip0_602_8537)">
<path id="Vector" fill-rule="evenodd" clip-rule="evenodd" d="M36.2345 29.8141C35.8433 30.3692 36.8954 29.2839 36.0265 30.7101C35.7576 31.1393 35.5371 31.4923 35.2924 31.9343C34.6682 33.0573 34.3502 33.3605 33.4565 34.2316C33.126 34.5597 32.8198 34.9006 32.5261 35.2543C32.477 35.0899 32.3795 34.8885 32.1957 34.9639C32.0367 35.0394 31.5839 35.3426 31.4125 35.2671C31.4125 35.1917 31.9876 34.7746 32.0733 34.4971C32.0367 34.4465 31.5348 34.7369 31.4249 34.7874C30.5194 35.1283 29.6871 34.6487 28.9648 34.1184C28.9282 34.2828 27.9494 33.7647 27.8388 33.727C27.3245 33.4872 26.7619 33.2224 26.2476 33.0075C25.611 32.7548 25.0849 32.7171 24.4241 32.4018C23.249 31.8211 22.8087 31.2909 21.3647 31.3798C19.7368 31.4681 18.0357 31.6574 16.4079 31.8339C14.6334 32.0232 12.9565 31.7706 11.2063 31.6068C11.0715 31.594 9.84803 31.5186 9.78653 31.5563C9.63932 31.6196 9.30891 32.4901 8.37917 32.7299C6.21285 33.2979 3.43477 30.1301 2.30876 28.4006C1.66036 27.4036 -0.151341 24.1852 1.62307 23.4273C2.60253 22.6067 3.65461 21.774 4.59678 20.9285C5.06197 20.5243 5.39238 20.0958 5.84514 19.6916C6.38362 19.1991 6.54261 19.0098 6.95873 18.3792C7.10594 18.1521 7.22764 18.0134 7.41149 17.8362C8.21953 17.1038 9.63867 16.4605 10.6057 15.8164C11.1808 15.425 11.3398 15.2484 11.805 14.7182C12.3801 14.0492 13.0291 13.645 13.7508 13.1653C14.2527 12.8116 14.6812 12.307 15.1582 11.8907C15.8066 11.3605 16.4308 10.8558 17.0674 10.3128C17.6791 9.80822 18.4872 9.34067 18.8909 8.63394C19.2455 7.97775 19.3803 7.81336 20.0535 7.42261C20.1634 7.34716 20.274 7.29663 20.3839 7.2333C21.0572 6.86747 21.3752 6.77922 21.9993 6.26113C22.6477 6.65256 23.003 6.81627 23.688 7.10664C24.447 7.44754 25.0345 7.73791 25.8419 7.98988C26.8207 8.29305 27.7878 8.6838 28.7672 8.94924C29.4529 9.12575 30.3702 9.30294 31.0683 9.15136C31.546 9.0375 31.9739 8.88659 32.4024 8.65887L32.8918 8.86099L33.5775 9.13856L32.7577 10.6025C32.6111 10.8673 32.6968 11.2082 32.9415 11.3598C33.1987 11.5114 33.5291 11.4231 33.6756 11.1577L34.5812 9.55491H34.5936L34.7774 9.21401L35.5482 7.86322C35.5724 7.81269 35.5973 7.76216 35.5973 7.71163C36.3562 6.39924 37.9592 3.48342 39.7951 4.05136C40.4193 4.25347 41.9615 5.06125 42.3161 5.61639C42.5608 5.99502 42.6956 6.41137 42.9645 6.8284C43.6868 7.91375 44.4085 8.63327 43.2707 9.78195C42.8303 10.2239 42.2304 10.5769 41.6795 10.8296L41.6062 10.8673L41.4963 10.9178C39.9665 11.5114 38.4244 12.0914 36.8823 12.685C36.6134 12.786 36.4661 13.1141 36.5761 13.3917C36.6742 13.6821 36.9798 13.8209 37.2618 13.7198C37.8859 13.48 38.2288 13.3789 38.8163 13.0003C39.4896 12.5711 39.7709 12.4701 40.5541 12.3313C40.5783 12.5455 40.7255 13.1896 40.5175 13.3412C40.2485 13.5433 40.187 13.4045 40.1138 13.8714C39.9914 14.8557 39.979 16.9637 40.2485 17.8726C40.346 18.2263 40.469 17.4434 40.628 18.5038C40.7379 19.2233 40.6895 20.9144 40.42 21.5834C40.1995 22.1385 40.1753 23.1107 40.028 23.7419C39.7958 24.764 39.3548 24.9411 38.8163 25.7361C38.4126 26.3297 38.0816 26.9481 37.6779 27.5282C37.2866 28.1089 37.017 28.6641 36.65 29.232C36.5152 29.4341 36.3811 29.6234 36.2339 29.8127L36.2345 29.8141ZM22.2578 12.9511C21.5237 12.9511 20.9486 13.5446 20.9486 14.2891C20.9486 15.0335 21.5237 15.6399 22.2578 15.6399C22.9919 15.6399 23.5676 15.0463 23.5676 14.2891C23.5676 13.5318 22.9801 12.9511 22.2578 12.9511ZM3.80248 23.8565C3.08015 23.8565 2.49326 24.45 2.49326 25.2073C2.49326 25.9645 3.08081 26.5574 3.80248 26.5574C4.52415 26.5574 5.11169 25.9517 5.11169 25.2073C5.11169 24.4628 4.52415 23.8565 3.80248 23.8565Z" fill="#A1A1A1"/>
<path id="Vector_2" fill-rule="evenodd" clip-rule="evenodd" d="M19.884 0.279238C21.6467 2.2485 22.8335 3.08121 25.1588 4.26761C25.4768 4.432 25.7955 4.57078 26.1134 4.70957C26.8842 5.05047 27.1413 5.21418 27.9984 5.31523C29.4424 5.50455 30.8989 6.02196 32.3062 6.19914C33.3341 6.33793 33.3223 6.07316 34.3253 6.77988C35.1942 7.39835 36.0022 8.43317 35.4638 9.55692C34.8029 10.7184 33.3341 10.5917 32.1963 10.5412C31.1926 10.4907 29.6871 9.80889 28.745 9.37974C28.586 9.30428 28.427 9.22815 28.268 9.1399C27.2643 8.64741 26.2855 8.26879 25.3427 7.65032C24.572 7.14571 23.7881 6.71656 23.1764 5.99703C22.9317 5.69386 22.7112 5.37856 22.4665 5.07539C21.7808 4.29254 21.2796 3.82566 20.8144 2.86629C20.4349 1.99518 20.0921 1.213 19.884 0.278564V0.279238Z" fill="#A1A1A1"/>
</g>
<defs>
<clipPath id="clip0_602_8537">
<rect width="43" height="35" fill="white" transform="translate(0.865967 0.279236)"/>
</clipPath>
</defs>
</svg>
