<svg width="39" height="41" viewBox="0 0 39 41" fill="none" xmlns="http://www.w3.org/2000/svg">
<g id="Layer_1" clip-path="url(#clip0_602_8545)">
<path id="Vector" d="M28.6622 35.2564C25.1502 37.3879 21.0062 38.5525 16.9872 38.5525C15.5765 38.5525 14.1731 38.406 12.8286 38.1277C8.20705 37.1609 2.50546 34.2969 0.345328 29.1696C0.213075 28.8474 0.0955162 28.5251 0 28.1955C0 29.3308 0.220422 30.4881 0.70535 31.6381C2.70384 36.3918 8.06744 39.3509 12.9094 40.3617C18.1922 41.4678 23.8644 40.3251 28.4638 37.5344C34.5842 33.8281 38.1697 26.8624 39 19.7281C37.6113 26.2251 33.9229 32.0629 28.6622 35.2491V35.2564Z" fill="#A1A1A1"/>
<path id="Vector_2" d="M12.9828 37.3733C17.9644 38.4134 23.6733 37.3733 28.2581 34.5972C36.3108 29.719 40.5723 18.3951 38.1697 8.25039C38.1697 8.25039 38.1697 8.2211 38.1697 8.20645C37.6995 5.18868 35.7524 0.779236 32.2257 0.779236C31.5938 0.779236 30.9325 0.918404 30.2492 1.20407C28.2801 2.0171 27.0972 3.83362 25.951 5.58422L25.7453 5.89918C24.3713 7.99403 22.5932 10.3306 19.8453 11.7296C17.7292 12.8063 15.4662 13.3557 13.2767 13.8831C10.3084 14.6009 7.50166 15.2821 4.98885 17.1718C1.89559 19.5084 -0.991934 23.9765 1.07268 28.8767C3.11526 33.7256 8.57438 36.4504 12.9975 37.3733H12.9828ZM18.8681 33.4619C18.8534 33.9819 18.824 34.2676 18.824 34.2676C18.824 34.2676 18.6844 33.9966 18.4934 33.5351C18.3905 33.3008 18.2876 33.0224 18.148 32.7075C17.9937 32.3998 17.8174 32.0482 17.6558 31.6674C17.4868 31.2865 17.237 30.8983 17.0312 30.4808C16.8329 30.0559 16.539 29.6311 16.3038 29.1843C16.0687 28.7302 15.7454 28.2907 15.4809 27.8219C15.187 27.3678 14.8858 26.899 14.5919 26.4375C14.2833 25.9834 13.9674 25.522 13.6661 25.0678C13.3502 24.621 13.0416 24.1815 12.7404 23.7494C12.1305 22.8924 11.5574 22.0867 11.0651 21.3982C10.5655 20.7097 10.1541 20.1164 9.86752 19.6988C9.58097 19.274 9.41198 19.0323 9.41198 19.0323C9.41198 19.0323 9.68384 19.1495 10.1247 19.4205C10.5655 19.6842 11.1827 20.0871 11.866 20.6364C12.5567 21.1784 13.3208 21.8596 14.0629 22.6653C14.8197 23.4637 15.5397 24.3866 16.2083 25.3608C16.5096 25.8662 16.8402 26.357 17.1121 26.8697C17.3766 27.3897 17.6558 27.8878 17.8468 28.4152C18.0452 28.9353 18.2656 29.426 18.3832 29.9241C18.5154 30.4222 18.655 30.8763 18.7138 31.3231C18.7873 31.7626 18.8313 32.1728 18.8681 32.5243C18.9048 32.8832 18.8754 33.2055 18.8754 33.4619H18.8681ZM27.4645 9.40037C27.7364 9.3491 28.1185 9.3198 28.574 9.33445C28.8018 9.33445 29.0442 9.36374 29.3014 9.39304C29.5586 9.42967 29.8304 9.45896 30.1023 9.53221C30.3741 9.60546 30.6533 9.67871 30.9399 9.7666C31.2264 9.83985 31.4983 9.97902 31.7701 10.0962C32.042 10.2281 32.3138 10.3526 32.571 10.4917C32.8281 10.6309 33.0633 10.8067 33.2984 10.9678C33.5261 11.129 33.7466 11.2975 33.945 11.4586C34.1507 11.6124 34.3123 11.8029 34.4666 11.9713C35.0838 12.6379 35.3924 13.1726 35.3924 13.1726C35.3924 13.1726 34.7605 13.0407 33.967 12.7111C33.7686 12.6305 33.5629 12.528 33.3278 12.4548C33.1 12.3669 32.8649 12.279 32.6224 12.1691C32.3873 12.0592 32.1375 11.9494 31.895 11.8395C31.6379 11.7443 31.3881 11.6271 31.1382 11.5172C30.646 11.2682 30.1316 11.0704 29.6614 10.836C29.4263 10.7115 29.1912 10.6236 28.9781 10.5137C28.7577 10.4038 28.552 10.294 28.3609 10.1988C27.9715 10.0156 27.6482 9.83252 27.4205 9.708C27.1853 9.57616 27.0531 9.50291 27.0531 9.50291C27.0531 9.50291 27.2 9.45164 27.4645 9.40769V9.40037ZM23.6439 13.1652C23.8055 13.1945 24.026 13.2092 24.2464 13.2678C24.4742 13.3191 24.7313 13.385 25.0032 13.4729C25.275 13.5535 25.5616 13.6706 25.8628 13.8025C26.1641 13.9343 26.4947 14.0515 26.7959 14.242C27.1045 14.4251 27.4278 14.5936 27.7437 14.7986C28.0744 14.9818 28.3536 15.2455 28.6548 15.4725C28.9487 15.7142 29.2426 15.9559 29.5218 16.205C29.7937 16.4613 30.0214 16.7543 30.2639 17.018C30.5064 17.2817 30.7194 17.5527 30.9178 17.8018C31.1382 18.0435 31.2705 18.3291 31.4174 18.5709C31.9979 19.5524 32.255 20.2702 32.255 20.2702C32.255 20.2702 31.5717 19.86 30.7415 19.1568C30.5284 18.9884 30.3227 18.7759 30.0655 18.5928C29.8157 18.4024 29.5512 18.2119 29.3014 17.9922C29.0442 17.7798 28.7797 17.5527 28.5152 17.3257C28.2287 17.1206 27.9568 16.9008 27.6776 16.6811C27.3984 16.4613 27.1413 16.2123 26.8547 16.0145C26.5682 15.8094 26.311 15.5897 26.0465 15.3846C25.7893 15.1722 25.5248 14.9818 25.2824 14.7986C25.0326 14.6229 24.8121 14.4178 24.5917 14.2566C24.1509 13.9417 23.7908 13.6413 23.5263 13.4509C23.2692 13.2458 23.1075 13.1286 23.1075 13.1286C23.1075 13.1286 23.2986 13.1286 23.6365 13.1652H23.6439ZM19.8967 17.9556C20.6462 18.4024 21.4911 18.9664 22.3214 19.6695C23.1663 20.3581 23.9966 21.1784 24.7754 22.0501C25.1428 22.5115 25.5322 22.9437 25.8555 23.4198C26.1787 23.8959 26.5167 24.35 26.7739 24.8481C27.0384 25.3315 27.3102 25.7856 27.4939 26.2617C27.685 26.7305 27.8833 27.1627 28.0009 27.5948C28.1258 28.0197 28.2213 28.4152 28.3095 28.7595C28.3903 29.1037 28.405 29.426 28.4344 29.675C28.4858 30.1878 28.4932 30.4734 28.4932 30.4734C28.4932 30.4734 28.3242 30.2244 28.067 29.7922C27.9348 29.5798 27.7952 29.3161 27.6188 29.0231C27.4278 28.7375 27.2074 28.4152 26.9943 28.0636C26.7812 27.712 26.48 27.3604 26.2302 26.9722C25.9804 26.5767 25.6424 26.2031 25.3485 25.7856C25.0619 25.3681 24.6872 24.9799 24.3713 24.5478C24.0333 24.1303 23.6659 23.7201 23.3206 23.3026C22.9532 22.8924 22.5932 22.4822 22.2332 22.0794C21.8658 21.6765 21.5058 21.2883 21.1531 20.9001C20.4404 20.131 19.7792 19.4205 19.2061 18.8052C18.6256 18.1973 18.148 17.6626 17.8101 17.289C17.4721 16.9081 17.281 16.6884 17.281 16.6884C17.281 16.6884 17.5676 16.769 18.0305 16.9741C18.5007 17.1718 19.1546 17.4868 19.9041 17.9409L19.8967 17.9556ZM1.99111 25.0092C2.01315 24.6943 2.04989 24.3134 2.13806 23.8812C2.16745 23.6615 2.24092 23.4418 2.3144 23.2C2.38052 22.9583 2.46134 22.7093 2.58625 22.4676C2.70381 22.2185 2.80667 21.9548 2.94627 21.6985C3.10057 21.4494 3.25486 21.1858 3.41651 20.9221C3.5708 20.6437 3.79857 20.4167 3.99695 20.153C4.19533 19.8893 4.4084 19.6256 4.67291 19.4059C4.92272 19.1715 5.17253 18.9298 5.42969 18.688C5.6942 18.461 5.99544 18.2632 6.28199 18.0508C6.84774 17.604 7.49431 17.2744 8.12619 16.9155C8.75072 16.5346 9.44137 16.3222 10.0879 16.0292C10.7345 15.7216 11.4178 15.5751 12.0644 15.37C12.3877 15.2747 12.7036 15.1869 13.0196 15.0916C13.3355 15.0111 13.6514 14.9671 13.9527 14.9085C14.5552 14.7986 15.1283 14.6888 15.6573 14.5862C16.1789 14.4764 16.6786 14.469 17.1121 14.4178C17.5456 14.3811 17.9203 14.3445 18.2362 14.3152C18.8607 14.2713 19.2134 14.2493 19.2134 14.2493C19.2134 14.2493 18.8681 14.3299 18.2583 14.469C17.957 14.535 17.5896 14.6155 17.1635 14.7034C16.7447 14.806 16.2598 14.8719 15.7528 15.0111C15.2385 15.1502 14.6874 15.2967 14.0996 15.4505C13.8057 15.5311 13.5045 15.597 13.2032 15.6996C12.902 15.8021 12.6008 15.9047 12.2848 16.0145C11.6676 16.2343 11.0064 16.4174 10.3892 16.7104C9.77201 17.0034 9.09604 17.2158 8.50825 17.5893C7.89842 17.9263 7.27389 18.2339 6.73753 18.6514C6.46568 18.8492 6.17178 19.0323 5.91462 19.2374C5.66481 19.4571 5.415 19.6695 5.17253 19.882C4.91537 20.0797 4.71699 20.3288 4.50392 20.5558C4.30554 20.7902 4.06308 20.9953 3.90143 21.237C3.7251 21.4787 3.56345 21.7131 3.40181 21.9402C3.24751 22.1746 3.1373 22.4163 3.00505 22.6434C2.86545 22.8631 2.78463 23.0975 2.68911 23.3172C2.5936 23.537 2.49808 23.7421 2.44665 23.9472C2.30705 24.35 2.22623 24.7089 2.16745 25.0166C2.12336 25.3169 2.07928 25.5586 2.07928 25.727C2.06458 25.8955 2.07193 25.9834 2.07193 25.9834C2.07193 25.9834 1.99846 25.6318 2.0205 25.0019L1.99111 25.0092Z" fill="#A1A1A1"/>
</g>
<defs>
<clipPath id="clip0_602_8545">
<rect width="39" height="40" fill="white" transform="translate(0 0.779236)"/>
</clipPath>
</defs>
</svg>
