<svg id="Capa_1" data-name="Capa 1" xmlns="http://www.w3.org/2000/svg" viewBox="0 0 46.5 46.5"><defs><style>.cls-1{fill:#fff;}</style></defs><title>linkdin</title><path class="cls-1" d="M25,18.77a8.34,8.34,0,0,1,4-2.06,9.14,9.14,0,0,1,6.22.86,6,6,0,0,1,3.19,5.25c.12,1.83.1,3.67.11,5.5,0,3.06,0,6.12,0,9.18,0,.79-.2,1-1,1H32.85c-.73,0-1-.22-1-1,0-3.74,0-7.48,0-11.23,0-.54,0-1.09-.09-1.63a2.29,2.29,0,0,0-3.17-2.15,3.23,3.23,0,0,0-2.36,3.11c-.1,1.14-.16,2.3-.17,3.45,0,2.78,0,5.57,0,8.36,0,.88-.17,1.05-1.07,1.05H19.33c-.74,0-1-.21-1-.94V17.91c0-.74.22-1,.94-1H24c.73,0,.94.21.95.95Z"/><path class="cls-1" d="M8,27.73V18c0-.81.2-1,1-1h4.64c.73,0,1,.22,1,.94q0,9.83,0,19.64c0,.73-.23,1-.95,1H9c-.81,0-1-.2-1-1Z"/><path class="cls-1" d="M11.31,8a3.29,3.29,0,0,1,3.35,3.19,3.35,3.35,0,0,1-6.69,0A3.3,3.3,0,0,1,11.31,8Z"/></svg>