<svg width="63" height="39" viewBox="0 0 63 39" fill="none" xmlns="http://www.w3.org/2000/svg">
<g id="Object" clip-path="url(#clip0_602_8540)">
<path id="Vector" d="M0 25.2991L0.00835845 25.3438L0.0549269 25.3414L0.597032 24.7453L0.428669 25.1322L0.435833 25.1516L0.453744 25.1467L0.657929 24.68L0.826292 24.495L0.507477 25.31L0.526582 25.3474L0.568374 25.3269L0.952863 24.3559L1.02331 24.2786L1.02092 24.2906L0.96361 24.4829V24.4998L0.96958 24.5131L0.595838 25.9218L0.60539 25.9375L0.620913 25.9291L0.957639 24.6667L0.961221 24.674L0.783306 25.8372L0.788082 25.8589L0.803605 25.8722L0.782112 26.0125L0.792858 26.0294L0.808381 26.0197L0.832263 25.871L0.838233 25.8638L0.841815 25.8529L0.915847 25.3728L0.902712 25.732L0.742708 26.7549L0.770171 26.8008L0.81674 26.7755L0.869279 26.6449L0.796441 28.7149L0.810769 28.7294L0.826292 28.7149L0.900324 26.5711L1.04122 26.2241V26.2555L0.939728 26.9508V26.9568L0.927788 27.6739L1.00779 28.3885L0.950475 29.2385L0.964804 29.253L0.981521 29.2385L1.03167 28.5118L1.10451 28.8286L1.14272 28.854L1.17496 28.8189L1.18571 28.7222L1.20123 28.7125L1.21078 28.6968L1.25735 28.5469L1.21197 29.2385L1.22392 29.2506L1.23705 29.2385L1.28959 28.4441L1.62034 27.3861L1.57139 27.6581L1.60124 27.7065L1.64661 27.6799L1.67766 27.565L1.55825 28.6315L1.57019 28.6448L1.58572 28.6315L1.72781 27.3764L2.18991 25.6401L1.94991 26.9375L1.96543 26.981L2.00722 26.9907L1.90811 27.6702L1.91767 27.6847L1.9308 27.6763L2.03468 26.9605L2.39052 25.7441H2.42514L2.44783 25.7162L2.7965 24.3547L2.80127 24.3487L2.80486 24.3414L2.6759 26.1056L2.68664 26.1177L2.69978 26.1056L2.83829 24.2121L2.89083 24.0307L2.88725 24.1443L2.95531 24.2145L3.03053 24.1443L3.0568 23.7876L3.06158 23.7804L3.06636 23.7719L3.10576 24.0778L3.0771 24.622L3.08904 24.634L3.10218 24.622L3.12964 24.125L3.20606 24.1456L3.25144 24.079V22.3052L3.36487 23.3185L3.38039 23.3318L3.39234 23.3185L3.25382 22.0573V21.9243L3.2789 21.6692L3.28726 21.7393L3.28009 21.7454L3.27771 21.7551L3.37562 22.4539L3.39353 22.466L3.40786 22.4503L3.30756 21.6656L3.29442 21.6523L3.28009 21.6595L3.38159 20.6197L3.31592 20.5495L3.23591 20.6197L3.23353 20.6366L3.21681 20.6269L3.1977 20.6221L3.20487 20.5483L3.21442 20.535L3.22039 20.5181L3.38278 19.5883L3.44846 21.5688L3.46517 21.5846L3.4807 21.5688L3.44965 19.8325L3.43771 19.8216L3.42696 19.8325V19.9752L3.41025 19.4286L3.43413 19.2908L3.51652 20.1892L3.53324 20.2049L3.54756 20.1892L3.41622 16.8241C3.43055 16.65 3.44487 16.4759 3.4592 16.3018L3.46159 16.3054L3.50338 16.2861L3.46159 17.0406L3.47234 17.0527L3.48428 17.0406L3.69085 14.3006L3.73742 14.2946L3.75891 14.2462L3.72309 13.9512L3.91414 11.8001L3.87951 11.7602L3.83533 11.7892L3.82817 11.8279C3.89145 11.1 3.96668 10.3709 4.07773 9.65628L4.40132 8.5886L4.38221 8.5499L4.33923 8.57046L4.21743 8.91144C4.2246 8.87879 4.22937 8.84615 4.23654 8.81471L4.75834 7.30569L4.80372 7.32503L4.84671 7.29601L5.40911 6.20294L5.3912 6.33232L5.40195 6.35408L5.42583 6.35892L5.22761 7.1618C4.34042 9.72399 3.86996 12.3648 4.39057 15.0551C4.55774 15.9185 4.72372 16.7806 4.89089 17.6439C4.9876 18.1421 5.08432 18.6439 5.10462 19.1505C5.1297 19.7479 5.0497 20.3428 4.96969 20.9353C4.91477 21.3415 4.8873 21.7127 4.86223 22.0791L4.49207 23.6184L4.48729 23.6135L4.47655 23.6244L4.48729 23.6353L4.32251 24.3197C4.13385 24.5325 3.95713 24.7562 3.79712 24.9907L3.65264 25.1105L3.60488 25.073L3.54637 25.0984L3.39353 25.3329L3.39114 25.339L3.28726 25.5083L3.30517 25.5796L3.3792 25.5627L3.48786 25.4019L3.6001 25.3015C3.501 25.4672 3.41144 25.6364 3.33263 25.8106L3.31353 25.8311L3.12487 26.1818L3.11292 26.1926L3.10815 26.2108V26.2217L3.00785 26.8347L3.01023 26.8444C2.98516 27.0004 2.96844 27.1588 2.96367 27.3196C2.9565 27.5928 2.98516 27.8625 3.02695 28.1309L3.01979 28.1781L3.03889 28.1986C3.08904 28.5045 3.15472 28.8105 3.22517 29.1164L3.25621 29.299L3.30517 29.9579L3.22278 31.9857L3.24905 32.0123L3.27771 31.9857L3.34099 30.3509L3.38159 30.8104L3.39114 30.8394L3.41144 30.8588L3.39472 33.4476C3.31233 34.6374 3.12248 35.832 2.32723 36.6784C2.4144 36.6833 2.50156 36.6893 2.58754 36.6941L2.71172 36.7945L2.93501 36.8707L2.99113 36.8767L3.00546 36.8731L3.01621 36.8658L3.07949 36.8755L3.14636 36.8695L3.26218 36.8163L3.32069 36.7437C3.34338 36.7461 3.36607 36.7485 3.38875 36.751L3.63115 36.8924L3.78638 37.0472C3.81981 37.127 3.8413 37.2141 3.86041 37.2987C3.92847 37.5986 3.99653 37.8997 4.06459 38.1995L4.05146 38.2564V38.2914L4.06698 38.3168L4.04549 38.4462L4.00131 38.5707L4.00608 38.6348L4.06459 38.6578L4.08489 38.7037L4.13863 38.7146L4.51595 38.6215L4.57088 38.659L4.62939 38.6904L4.18519 38.7062L4.16728 38.7255L4.18519 38.7436L6.59601 38.7582L5.40314 38.7727L5.3912 38.7848L5.40314 38.7968L5.85569 38.8005L5.61926 38.8162L5.60732 38.8295L5.61926 38.8416L7.62052 38.8126L7.83784 38.9903L7.91067 38.9964L7.93575 38.9323L7.89157 38.8138H7.96082L7.97396 38.8005L7.96082 38.786L7.87963 38.7823L7.84739 38.6953L8.49218 38.6868L8.56024 38.6167L8.49218 38.5453H8.46472L8.40382 38.4716L8.40143 38.4655L7.75544 37.2153L7.69097 37.1935L7.65873 37.2576L7.65275 37.26L7.64679 37.2636L7.63484 37.2165L7.59783 37.1814L7.55126 37.202L7.51663 37.2056L7.50708 37.2177C7.49275 37.1983 7.4832 37.1754 7.46887 37.156L7.47603 37.0762L7.43782 37.0327L7.39961 37.0569C7.35902 37.0013 7.30767 36.9553 7.26588 36.8997L7.27065 36.8912V36.8683L7.31842 36.9154H7.37454V36.8574L6.76915 36.2673V36.2613L6.76198 36.2576L6.75363 36.254L6.55302 36.0666C6.52675 36.0376 6.50407 36.0061 6.4766 35.9771V35.9723L6.46347 35.9541L6.44795 35.942C6.3775 35.8671 6.32018 35.78 6.24734 35.7075C6.20674 35.6676 6.16853 35.624 6.12913 35.5817L5.97151 35.1875L5.95718 35.1803L5.95002 35.1924L6.08376 35.5346C6.04316 35.4862 6.01569 35.4318 5.98704 35.3762L5.93211 35.219C5.92972 35.2032 5.92494 35.1875 5.92256 35.1706L5.9142 35.0569C5.9142 35.017 5.91181 34.9771 5.9142 34.9384C5.93689 33.959 6.01211 32.9748 6.18525 32.0123L6.25212 31.9385L6.25451 31.8938L6.20316 31.9579L6.2557 31.872L6.26884 31.7451L6.20436 31.895C6.21868 31.8176 6.22704 31.739 6.24257 31.6616L6.96975 29.5299C7.01871 29.4356 7.0808 29.3522 7.13453 29.2615L6.70347 30.4912L7.01393 29.8104L7.23244 29.1019C7.29215 29.0063 7.34469 28.906 7.40917 28.8141L7.38051 28.9822L7.42708 28.8733L7.44857 28.75C7.81992 28.2301 8.27367 27.7694 8.78473 27.3546L8.77159 27.3933L8.77995 27.4078L8.79667 27.3994L8.81816 27.3365C8.92921 27.5529 9.04026 27.7694 9.1525 27.9858L9.17041 28.0547L9.62774 28.958L10.2558 31.2396L10.2809 31.2529L10.2952 31.2288L9.71013 29.0801L9.72684 29.1031C9.77699 29.201 9.82715 29.299 9.87849 29.3969L9.88565 29.4973L9.91073 29.5202L9.92745 29.5033C10.0851 29.8552 10.2439 30.2082 10.4027 30.5613L10.3776 31.0232L10.097 30.0619L10.0839 30.0547L10.0755 30.068L10.4958 31.5226L10.5113 31.5311L10.5197 31.5153L10.3955 31.0897L10.417 31.0849L10.429 31.0631L10.4493 30.6677C10.4887 30.7548 10.5269 30.8418 10.5663 30.9301V30.9785L10.5949 31.0051L10.5973 31.0027C10.669 31.1647 10.7382 31.3267 10.8087 31.4887L10.786 31.8466L10.8111 31.8732L10.8397 31.8466L10.8552 31.5976C10.8899 31.6774 10.9257 31.7572 10.9591 31.8382L11.5478 33.9336C11.6254 34.4632 11.7018 34.9929 11.8212 35.4983L11.8797 37.26L11.9096 37.2878L11.9371 37.26L11.8714 35.7123C11.9 35.8187 11.9383 35.9203 11.9729 36.0231L11.9418 36.8163L11.9538 36.8404L11.9788 36.8441L11.9944 36.9686L12.0397 37.0823L12.0672 37.1899L12.1221 37.2878L12.1245 37.335L12.1532 37.3761L12.1997 37.3652L12.5162 37.4426L12.7263 37.3253C12.7263 37.3253 12.7299 37.3314 12.7335 37.3338C12.798 37.3991 12.872 37.4511 12.9425 37.5079L12.8517 37.5442L12.8445 37.5587L12.8577 37.5659L12.964 37.5272C13.026 37.5756 13.0869 37.6252 13.1538 37.6675C13.1777 37.6965 13.1944 37.7316 13.2159 37.763L13.2123 37.8477L13.2314 37.8815L13.266 37.8634L13.2708 37.8465C13.2947 37.8864 13.3269 37.9214 13.3472 37.9625L13.4332 38.445L13.561 38.6796L13.8177 38.815L14.0852 38.7461L14.1353 38.7521L14.1377 38.7606L14.1461 38.7642L14.6237 38.8077L14.6631 38.8295L14.7061 38.8162L14.8601 38.8319L14.878 38.815L14.8601 38.7944L14.7479 38.7811L15.6984 38.8053L15.7521 38.8416L15.813 38.8102V38.8077L17.3008 38.8307L17.3139 38.8162L17.3008 38.8017L15.8416 38.7618L15.8799 38.6989C16.2142 38.7279 16.5497 38.7569 16.8841 38.7872C16.8781 38.705 16.8578 38.6276 16.8411 38.549H16.9306L16.9951 38.5042L16.9808 38.4256L16.8912 38.3301H16.9497L16.9951 38.3132L17.0166 38.2769L17.0142 38.7303L17.0477 38.763L17.0811 38.7303L17.0787 38.162L17.1396 38.2878L17.1599 38.2938L17.1671 38.2709L17.0787 38.081V38.0411L17.1169 38L17.1074 37.9408L17.0787 37.9021L17.0763 37.422L17.0488 37.3954L17.0214 37.422L17.019 37.8271L16.9175 37.7195L16.8064 37.6228L16.3599 37.1512L16.705 37.5502L16.5258 37.4486L16.336 37.3725L16.3002 37.0883L16.2667 37.052L16.2548 37.0569L16.25 37.0738L16.2715 37.3048H16.2584H16.244L16.1975 37.2564L16.1306 37.283L16.1091 37.3156H16.0984C16.0434 37.2564 15.9885 37.1996 15.9312 37.1439L15.973 37.1234L15.9921 37.0617L15.936 37.0327L15.85 37.0653C15.7366 36.9577 15.6231 36.8501 15.5097 36.7437V36.7256L15.4834 36.7014L15.4739 36.7111C15.3998 36.6409 15.3282 36.5708 15.2566 36.4995C15.21 36.433 15.173 36.3604 15.1276 36.2939L15.4512 36.4571L15.1121 36.2697C13.6064 34.0183 12.7072 31.3207 12.9437 28.6859L13.0643 28.2409L13.5574 26.9689L13.7031 26.9822L13.8595 26.9568L14.232 26.6279L14.2404 26.1515L14.1461 25.8166L14.5138 25.2108L14.5162 25.2048V25.1987L14.8207 25.0911L14.8542 25.0524L14.8494 25.0234C15.1013 25.1371 15.1957 25.4817 15.2577 25.7719C15.327 26.0935 15.5551 26.4804 15.8691 26.3946C15.9336 26.3776 15.9873 26.3377 16.0387 26.2918L16.1593 26.2991L16.2476 26.2543L16.3264 26.1939L16.3718 26.1503L16.41 26.0995L16.5139 25.9012L16.5545 25.6848V25.6788C16.5617 25.6751 16.5676 25.6715 16.5748 25.6691L16.5867 25.6727L16.6202 25.6788L16.6978 25.715L16.7694 25.6703L16.9187 25.6026L17.0262 25.478L17.0632 25.3849L17.0954 25.2374L17.05 24.992C17.1647 24.8203 17.302 24.6594 17.4572 24.5095L17.6077 24.518L18.2142 24.4902H18.2214L18.2286 24.489L18.3635 24.4744V24.4998L18.3862 24.5107L18.4507 24.4938L18.4578 24.5071H18.4734L18.5163 24.4769L19.8024 24.1323L19.8179 24.1032L19.7904 24.0875L19.5134 24.1576L19.6746 24.0041H19.6806L19.6865 24.0174H19.6997L19.7128 24.0138L20.108 24.1153L20.0018 24.1443L19.991 24.1649L20.0101 24.177L20.1749 24.1335L21.3296 24.4249H21.3355L21.3403 24.4237L21.7451 24.5555L21.8227 24.5107L21.7797 24.4261L20.9976 24.1661C21.2543 24.2411 21.5111 24.3112 21.769 24.3801C22.1033 24.5264 22.4448 24.6498 22.7911 24.7586L23.0657 24.894L24.1213 25.0839L24.2658 25.073C24.4891 25.0972 24.7135 25.1165 24.9428 25.1165C25.3977 25.1153 25.8479 25.0573 26.2957 24.9799C26.7864 24.9581 27.276 24.9134 27.7632 24.8118C27.7942 24.8057 27.8241 24.7973 27.8551 24.7912L30.1167 24.6135L31.2976 24.7453C32.1633 24.946 33.0768 25.0331 33.9866 25.044L35.798 25.2447C35.7968 25.2676 35.798 25.2906 35.7968 25.3124L35.7813 25.3378L35.7933 25.4684C35.7622 26.6739 36.0548 27.8758 36.2303 29.0813L36.2351 29.2917L36.2004 29.328V29.357H36.2291L36.241 29.3449L36.296 29.7742C36.3724 31.1175 36.013 32.421 35.7025 33.722L35.5688 33.8756V33.9046H35.5974L35.6822 33.8067C35.4231 34.907 35.2344 36.0073 35.4124 37.1318L35.3789 37.2516L35.3849 37.5599L35.3921 37.5913L35.2703 37.8658L35.2774 37.9081L35.3168 37.913L35.5341 37.7727L35.5712 37.7896L35.6106 37.8005L35.7622 37.8271L35.9127 37.7691L36.0058 37.6687L36.0643 37.5418L36.1383 37.5913L36.2028 37.6518L36.1706 37.7824V37.815L36.1849 37.844L36.1336 37.8997V37.9263H36.1598L36.2136 37.867L36.2446 37.8743L36.2745 37.8646L36.2028 38.0895L36.21 38.1475L36.2554 38.1766L36.2124 38.3507L35.9413 38.4704L35.933 38.4873L35.9485 38.4958L36.198 38.4051L36.1551 38.5744L36.1813 38.6493L36.2566 38.659L36.2506 38.6687L36.2554 38.6796L36.2494 38.7436L36.2661 38.7618L36.2864 38.7436L36.2924 38.6832H36.3521L36.401 38.7219L36.3354 38.7255L36.3234 38.7388L36.3354 38.7509L36.444 38.7473L36.6375 38.7836L36.8357 38.734L37.2417 38.717L37.1748 38.734L37.1497 38.7787L37.1939 38.8065L37.6464 38.6977L37.9915 38.6808L37.9999 38.6771L38.0047 38.6711L39.7217 38.6058L39.7349 38.5925L39.7217 38.5804L37.8411 38.6505L37.9629 38.6215L38.4954 38.6118L39.016 38.5127L39.9582 38.4692L39.9761 38.4643L39.988 38.4534L40.0704 38.5369H40.0955V38.5103L39.988 38.4015C40.0788 38.3966 40.1695 38.3894 40.2603 38.3845C40.1026 38.2697 39.945 38.156 39.7874 38.0411L38.7916 37.231L38.7951 37.2177L38.7856 37.2056L38.7354 37.1863L38.6924 37.1512L38.6769 37.1488L38.6686 37.1597L38.4656 37.0811C38.3187 36.9747 38.1718 36.8683 38.0262 36.7618L38.0094 36.7449L38.0166 36.7377V36.7135H37.9915L37.9844 36.7195L37.8566 36.5889L37.9402 36.5031V36.4801H37.9175L37.8327 36.5648L37.7909 36.5224C37.7909 36.5079 37.7909 36.4934 37.7909 36.4789L37.8268 36.0908L37.8721 36.0412V36.0134H37.8447L37.8327 36.0267L38.0071 34.1501L38.1587 33.9784V33.9482H38.1288L38.013 34.0787L38.0488 33.6954L38.0799 33.6616L38.0823 33.635L38.0596 33.6253L38.1838 32.9385L38.3044 32.791L38.302 32.762H38.2757L38.2017 32.8527L38.2745 32.5443L38.3223 32.4911V32.4633L38.2972 32.4585L38.6471 31.3569L39.0925 30.2905L39.0817 30.2566L39.0507 30.2651L38.6686 31.1441C38.7593 30.8878 38.8513 30.6327 38.9444 30.3775C39.065 30.0982 39.1725 29.8128 39.3086 29.542C39.3169 29.5263 39.3229 29.5094 39.3313 29.4924L39.0411 30.652L39.0495 30.6665L39.0638 30.658L39.4172 29.299C39.4555 29.2192 39.4889 29.1381 39.5259 29.0583L39.5558 29.0269V28.9967H39.5534C39.662 28.7597 39.7683 28.5203 39.859 28.2784L40.3104 27.5844L40.3044 27.5614L40.2794 27.5662L40.0023 27.9931L40.2853 27.4514C40.6197 28.137 40.954 28.8226 41.2883 29.5081C41.2967 29.5251 41.3039 29.542 41.3122 29.5589L41.3683 29.8806L41.3815 29.8902L41.391 29.8781L41.3492 29.6375C41.6525 30.2602 41.9343 30.895 42.1397 31.5552L42.4167 33.1042L42.443 33.1199L42.4609 33.0909L42.2472 31.8648L42.474 33.1489L42.566 34.3133C42.5684 34.404 42.566 34.4935 42.566 34.5842L42.4705 35.89L42.4943 35.9154L42.5218 35.89L42.566 35.2891C42.566 35.3 42.566 35.3109 42.566 35.3217V35.3387C42.5541 35.6531 42.529 35.9602 42.5027 36.2637L42.443 36.2733L42.3845 36.3169L42.3761 36.3507L42.4 36.3749L42.4943 36.3967C42.492 36.4172 42.492 36.4378 42.4908 36.4583L42.48 36.5756L42.4263 36.5273L42.3821 36.468L42.3666 36.4644L42.3618 36.4813L42.4693 36.6155L42.6161 36.6917L42.6078 36.7159L42.6197 36.7522L42.6591 36.7558L42.757 36.7135L42.8299 36.7086L42.8418 36.7244L42.8633 36.7183L42.8788 36.7002L42.9553 36.6748L43.0257 36.6953L43.0997 36.7026L43.12 36.6808L43.0997 36.6591L43.0556 36.6542L43.0138 36.6446L43.0627 36.6119L43.1069 36.572L43.1594 36.5672C43.1869 36.5805 43.2108 36.5986 43.2371 36.6131V36.6276L43.1511 36.6869L43.1475 36.7062L43.1654 36.7111L43.2741 36.6446V36.6409C43.335 36.6796 43.3959 36.7171 43.4484 36.7655L43.3803 37.0593L43.6227 37.3253L43.6359 37.3773L43.6036 37.387L43.5953 37.4184L43.735 37.7594L43.7386 37.7654L43.7421 37.7703L43.7541 37.9601L43.6454 38.0411L43.6383 38.0762L43.6693 38.0835L43.7589 38.0182V38.1633L43.7111 38.1935L43.7027 38.2273L43.735 38.2358L43.7589 38.2225V38.2455L43.7015 38.3084L43.6968 38.3458L43.7278 38.364L43.6777 38.4027L43.6705 38.4389L43.7027 38.4462L43.7589 38.4063L43.7565 38.6155L43.7732 38.6542L43.8114 38.6711L44.5995 38.6929L44.6962 38.717L44.7953 38.7316L44.7475 38.7461L44.7057 38.8138L44.7643 38.8658L47.5858 38.815L47.6443 38.7521L47.5858 38.6917L46.104 38.7158L46.1828 38.6022H46.2234H46.2401L46.2831 38.6578L46.35 38.63L46.3619 38.6106L46.7142 38.6397L46.7369 38.6203L46.7201 38.5925H46.8467L46.8037 38.601L46.7858 38.6324L46.8181 38.653L47.0103 38.6131L47.0198 38.6312L47.0891 38.6578L47.1321 38.601V38.5889L47.2133 38.5707C47.39 38.5973 47.5679 38.6191 47.7411 38.653C47.7017 38.584 47.6515 38.5224 47.6097 38.4559L47.6145 38.4474L47.5954 38.4353C47.5584 38.3773 47.5202 38.3204 47.4819 38.2648L47.2682 37.5865L46.6521 36.9505L46.6031 36.8852H46.5876L46.584 36.9009L46.621 36.9553L46.6127 36.9771L46.6246 36.9988L46.6807 37.0412L47.0915 37.6191L46.8324 37.358L46.4646 36.9009H46.4491L46.4455 36.9154L46.6401 37.1705L46.3142 36.867H46.2771V36.9045L46.2807 36.9082L46.2652 36.8961C46.2043 36.8404 46.1446 36.7824 46.0849 36.7244L46.1315 36.7679H46.153V36.7461L45.8712 36.4862C45.7697 36.3773 45.6586 36.2758 45.5726 36.1536C45.2228 35.6531 45.064 35.0461 44.929 34.4487C44.7798 33.7885 44.6735 33.1199 44.5672 32.4512L44.3654 30.9059C44.2998 30.3013 44.2269 29.698 44.1971 29.091C44.1708 28.5662 44.215 27.9774 44.166 27.4248L44.1744 27.328L44.0335 26.5227L44.1362 26.8274L44.2926 27.1116L44.3141 27.1152L44.3189 27.0935L44.0622 26.4986L44.0299 26.0488C44.1075 25.9665 44.1863 25.8867 44.2747 25.8154L44.3654 25.7936L44.6711 25.686L44.6353 25.8154L44.6449 25.8323L44.6628 25.8226L44.7057 25.6715L44.9911 25.5349L45.2634 25.3728L45.2849 25.3644L45.292 25.3595L45.2956 25.3523L46.0144 24.8311L46.3727 24.4152L46.3691 24.3995L46.3524 24.4031L46.0574 24.7574L45.7016 25.0427L46.1685 24.5675L46.7583 23.7006L47.1894 22.7417L47.4843 22.4165H47.4951L47.5034 22.408L47.513 22.385L47.7208 22.1541L47.7243 22.1432L47.7208 22.1335L48.2342 21.5543L48.1781 21.6547L48.2999 21.5036L48.3333 21.4479L48.4062 21.3681L48.393 21.3875L48.6677 21.0477L48.9244 20.2303L48.8241 20.535L48.7715 20.6257C48.8898 20.3101 48.9733 19.9776 49.0581 19.6487H49.0629H49.0701L48.9733 20.0755L49.2145 19.3089L49.2898 19.1385L49.1513 19.7273L49.1608 19.7418L49.1751 19.7334L49.4569 18.7793L49.8128 18.0176V18.0067L49.8032 18.0006L50.0802 17.1966L50.1602 16.8737L50.9447 15.147L50.9471 15.1192L50.9292 15.1011L51.0546 14.8641L51.1489 14.6223V14.6186H51.1525H51.1561L51.211 14.5848L51.223 14.5932H51.2385L51.7854 14.2414L51.7973 14.2269L51.7949 14.2099L52.2033 13.8182L52.7705 13.5352L52.7931 13.528L52.663 13.6199L52.6522 13.6695L52.6976 13.6803L53.0558 13.4397L53.0642 13.4313L53.069 13.4216L53.1072 13.4083L53.1251 13.395L53.1323 13.3756L53.2003 13.3285L53.2075 13.3394H53.2218L54.4051 12.8472L54.4422 12.8496L54.4266 12.8654L54.435 12.8859L54.7287 12.9899L55.0296 12.921L55.1789 12.9162L55.3222 12.8847L55.7735 12.8968L56.1473 12.8654L56.2667 12.8787L56.3873 12.869L56.6667 12.9234L56.9485 12.8835L57.0942 12.8424L57.136 12.8243C57.2255 12.8146 57.3151 12.8122 57.4046 12.7964L57.524 12.8436L57.5431 12.8339L57.5372 12.8146L57.4727 12.7856C57.4954 12.7807 57.5181 12.7747 57.5407 12.7711L57.9145 12.8037L58.3372 12.713L58.3873 12.7094L58.4029 12.7009L58.4076 12.684L58.4554 12.6622L58.4638 12.6659H58.4733L58.5282 12.6332H58.6059V12.6368L58.6094 12.6405L58.57 12.6586L58.5485 12.6743L58.5593 12.6949L58.9247 12.759L59.2877 12.6913L59.3605 12.7033L59.3665 12.7058H59.3724L59.5766 12.7384L59.5874 12.7578L59.6101 12.7517L59.6148 12.7445L59.9993 12.7892L59.9934 12.794V12.8134L60.0113 12.817L60.0435 12.7928L60.0889 12.7977L60.114 12.7795L60.1092 12.7481L60.1462 12.7408C60.1581 12.7445 60.1701 12.7469 60.1832 12.7505L60.2011 12.7602V12.7626V12.765L60.1498 12.7916L60.0948 12.811L60.0853 12.8279L60.1032 12.8388L60.1677 12.8182L60.2262 12.788H60.2608L60.2966 12.8061L60.1784 12.8847L60.1737 12.9077L60.1951 12.9137L60.3026 12.8448L60.3134 12.863L60.3349 12.8678L60.4041 12.8521L60.4125 12.8557L60.311 12.9282L60.3074 12.9488L60.3265 12.9536L60.3432 12.9415L60.354 12.9585L60.3743 12.9621L60.4149 12.9488L60.3241 12.9984H60.3229L60.2393 12.9476L60.2143 12.9536L60.2202 12.9814L60.3587 13.0733L60.3516 13.1036L60.3814 13.112L60.4065 13.0999L60.5247 13.1556L60.6477 13.1991L60.6537 13.2039H60.662L60.8447 13.2426L60.8543 13.2596H60.8734L60.8877 13.2487L61.1026 13.2511L61.3152 13.2124L61.3307 13.2015L61.3343 13.1846L61.5206 13.0709L61.5289 13.0625V13.0516L61.6089 12.9984L61.6137 12.9935L61.6161 12.9875L61.6316 12.9778C61.6531 12.9754 61.6746 12.9778 61.6961 12.9754L61.2782 13.245L61.2746 13.2632L61.2925 13.268L61.388 13.2064L61.3904 13.2088H61.394L61.431 13.2148L61.4179 13.2245L61.4131 13.2463L61.4322 13.2511L61.4752 13.2209L61.5838 13.2245L61.5241 13.2704V13.2898L61.5421 13.2934L61.6352 13.2221L61.7021 13.2136L61.708 13.2221H61.7176L61.7343 13.2088L62.0113 13.1096L62.243 12.9307L62.2501 12.9149L62.2465 12.9004L62.3039 12.8654L62.3182 12.8617L62.3552 12.8581L62.3636 12.8545L62.3683 12.8472L62.3767 12.8448L62.3922 12.8315L62.397 12.8134H62.4042L62.4113 12.8097L62.5749 12.5715L62.6979 12.4543L62.7755 12.2523L62.7934 12.2451L62.8985 11.9621L62.9057 11.9537L62.9176 11.9283V11.9029L63.0024 11.649L63.0048 11.6357V11.6236V11.6163L63 10.9779L62.9546 10.9344L62.9427 10.9452C62.9367 10.8775 62.926 10.811 62.9152 10.7445L62.9427 10.7614L62.9701 10.7167L62.9081 10.4471L62.871 10.4253L62.8567 10.4483C62.8436 10.3975 62.8233 10.3515 62.8078 10.302L62.8352 10.3092L62.8495 10.2633L62.6573 9.87755L62.6239 9.86788C62.4758 9.56438 62.3063 9.27298 62.1236 8.98762L62.151 8.99487L62.1642 8.9453L61.8955 8.48098L61.8477 8.46889L61.8346 8.51605L61.9289 8.6817C61.64 8.23432 61.3594 7.7833 61.185 7.2815C61.0979 7.03121 61.0394 6.77003 60.9904 6.50523L60.9928 6.45203L61.1074 6.98284L61.1265 7.01065L61.1564 7.0167L61.3868 7.60072L61.4047 7.62007L61.4286 7.62369L61.7152 8.28752L61.763 8.30203L61.7809 8.24883L61.4119 7.41935L61.4 7.40484L61.3844 7.40242L61.1922 6.91271L61.0059 6.14006L61.0083 6.07719L60.9892 5.8015L61.0382 5.49438L61.031 5.18604L61.074 4.94542L61.0644 4.93091L61.0501 4.93938L61.0274 5.05062L61.0226 5.05425L61.0202 5.06029L61.0167 5.09052L60.9677 4.88859L60.8949 4.6915L60.8913 4.65281L60.8853 4.62016L60.8901 4.68062L60.8555 4.61049L60.871 4.60686L60.8758 4.59114L60.8817 4.60444L60.8865 4.62016L60.8758 4.55728L60.8579 4.51134L60.8411 4.5065L60.8364 4.52222L60.871 4.58389L60.662 4.3215L60.7181 4.3747H60.7432V4.35173L60.3193 3.95392L60.176 3.78947L60.1737 3.78705H60.1701L59.7736 3.16555L59.8083 3.14378L59.8142 3.10267L59.8083 3.08575L59.8286 3.11597L59.8942 3.13048L59.9098 3.06761L59.8787 3.01441L59.9468 3.11476L59.9969 3.12807L60.0113 3.07607L59.9289 2.92372L59.9313 2.92009L59.9336 2.91646L59.9468 2.89349L59.9886 2.94065H60.0232L60.0244 2.90316L59.9719 2.84271L59.985 2.81852L60.0925 2.93581L60.2202 3.03133L60.2644 3.01924L60.2537 2.97208L60.1271 2.86931L60.0184 2.75202L60.0423 2.70728L60.0805 2.76169L60.1175 2.76895L60.1259 2.73509L60.0722 2.65045L60.0889 2.6178L60.1414 2.67463H60.1844L60.1928 2.63473L60.1247 2.54646L60.1283 2.53921L60.2728 2.64561L60.3134 2.63594L60.305 2.58999L60.1569 2.48238L60.1749 2.44731L60.1784 2.44489L60.182 2.44127L60.2131 2.39411L60.3158 2.4981H60.3683V2.44489L60.2823 2.35784L60.3898 2.39532L60.4304 2.37235L60.4089 2.32761L60.274 2.28045L60.299 2.21516L60.4256 2.19581L60.5522 2.14865L60.5653 2.12084L60.5462 2.09787L60.4889 2.08819H60.5832L60.6083 2.06401L60.5904 2.03741L60.5438 2.03136L60.5414 2.00718L60.5211 1.99025L60.3325 1.9298L60.3241 1.86208L60.594 1.96123L60.6298 1.94189L60.6107 1.90319L60.4471 1.84515L60.4913 1.81734L60.4662 1.76898L60.2811 1.70973H60.2799L59.8895 1.53803L60.065 0.902016V0.934663L60.0913 0.962474L60.1211 0.934663L60.1354 0.644467L60.1951 0.428028L60.1868 0.412309L60.1725 0.419564L60.1402 0.530806L60.1462 0.353061L60.1677 0.347015L60.182 0.32525L60.1581 0.163224L60.0268 0.0701193L59.979 0.08342C59.9659 0.0507729 59.9647 0.0157074 59.9492 -0.0169397C59.9098 -0.0931163 59.7127 0.44012 59.7139 0.353061C59.5062 0.567081 59.3927 0.871787 59.2351 1.1245L59.179 1.15836L58.8769 1.12813L58.5927 1.18617L58.582 1.18133H58.57L58.2942 1.30104L58.1831 1.22002L58.164 1.22365L58.1676 1.24421L58.262 1.31555H58.2584L57.8285 1.23937L57.8261 1.22728L57.8142 1.22365L57.7891 1.23211L57.6387 1.20551H57.641L57.653 1.18496L57.6351 1.17408L57.567 1.19342L57.4464 1.17166L57.4333 1.18254L57.4452 1.19826L57.5049 1.21035L57.2124 1.2962C57.1527 1.30104 57.0954 1.31555 57.038 1.32643L56.9867 1.31071H56.976L56.97 1.32038L56.5067 1.2563L56.4935 1.26718L56.5043 1.28169L56.6392 1.30225L56.2918 1.41711L56.041 1.40019L55.7902 1.41711L55.7819 1.4147H55.7723L55.7508 1.42316L55.4189 1.50296L55.4105 1.49934L55.3998 1.50296L55.3747 1.51989L55.2995 1.5477L55.2923 1.55496V1.56463H55.284L55.2756 1.56826L55.1992 1.61663L55.1872 1.62025L55.1789 1.62509L55.1741 1.63234L55.069 1.69159C54.8529 1.68434 54.638 1.65895 54.4374 1.57914C54.3442 1.54166 54.2559 1.49208 54.1735 1.43404L53.9992 1.11241L53.9824 1.04711L53.9729 1.03381L53.9574 1.0314L53.9191 0.945546L53.8642 0.870578L53.8165 0.787147L53.6791 0.644467L53.5072 0.685578L53.4463 0.819794L53.4105 1.17166L53.4511 1.36028L53.4463 1.38689L53.4499 1.40502L53.4642 1.4147L53.4678 1.43162L53.4558 1.56221L53.4785 1.58761L53.506 1.56947V1.56221L53.5072 1.55617L53.5538 1.6662L53.6099 1.87538C53.6218 1.99509 53.623 2.10996 53.6433 2.2345C53.4451 2.31189 53.2409 2.35542 53.0332 2.37597L53.0188 2.37839C52.9603 2.38323 52.8994 2.37355 52.8397 2.37597L51.9895 2.01806L51.9764 2.02411L51.9824 2.03862L52.4397 2.25748L52.2415 2.22604L52.2272 2.23813L52.2391 2.25385L52.5388 2.30342L52.6917 2.37235C52.6797 2.37235 52.6666 2.37235 52.6546 2.37235L52.6415 2.36267L52.5902 2.37114C52.2666 2.35421 51.943 2.30342 51.6206 2.22362C51.5513 2.16679 51.4833 2.11721 51.3973 2.07489H51.3997L51.3925 2.05918L51.1453 1.97574C51.1274 1.97091 51.1119 1.96244 51.094 1.95882L51.0665 1.94914L51.0689 1.94431V1.93947L51.2027 1.96728L51.217 1.9564L51.2086 1.93947L51.0677 1.89715L51.0653 1.89352L51.0618 1.8911L50.7274 1.79316L50.7095 1.80283L50.7179 1.82097L50.8671 1.86571L50.7286 1.83548L50.7095 1.84515L50.7179 1.86329L50.8301 1.90078L50.5722 1.93584L50.5877 1.9298L50.6056 1.92738L50.6176 1.91408L50.6056 1.90198L50.4277 1.92738L50.2593 1.983L50.2999 1.9564L50.3107 1.94189V1.92496L50.3584 1.9044L50.3644 1.89836V1.8911L50.4838 1.84153L50.5579 1.81855L50.6438 1.84878H50.6498L50.6546 1.84636L50.6641 1.8512L50.7047 1.8379L50.694 1.80042L50.6617 1.7847V1.7714L50.651 1.76656L50.6355 1.7714L50.491 1.70127L51.0212 1.82339V1.83306L51.0271 1.84032L51.9024 2.12326L51.9179 2.1148L51.9107 2.09908L51.0426 1.81855V1.81009L51.0379 1.80404L50.4253 1.66257H50.4193L50.4146 1.66499L50.1244 1.52594L50.0862 1.5344L50.0886 1.5731L50.1662 1.64564L50.251 1.7061V1.70852L50.2546 1.71094L50.2976 1.74117V1.75568L50.3071 1.76777L50.3429 1.79074L49.931 1.78832L49.9083 1.80404L49.9131 1.83065L49.999 1.89715L50.0946 1.93584L49.9728 1.97333L49.9656 1.98058V1.99025L49.7316 2.03016L49.6838 2.01565L49.6372 1.9963L49.6014 2.00476L49.6038 2.03983L49.6659 2.08457L49.6229 2.0894L49.6157 2.10029L49.6277 2.10875L49.6957 2.1015L49.8701 2.16558L50.0552 2.17284L49.3602 2.51623L49.3459 2.5513C48.7321 2.61539 48.1399 2.60934 47.5524 2.58032L47.4139 2.538L47.3996 2.54646L47.4079 2.56097L47.4533 2.57548C46.3786 2.51503 45.3195 2.35904 44.1971 2.23692C43.4771 2.15833 42.7535 2.1414 42.0287 2.1547L41.3301 2.06764L38.7581 2.4461L38.148 2.59725L38.7629 2.5114C38.185 2.63352 37.6118 2.78225 37.0494 2.96241C36.6673 3.08454 36.2876 3.21392 35.8971 3.30218L38.1265 2.60208L36.8261 2.92251L35.6762 3.34571C35.5998 3.35901 35.521 3.36385 35.4446 3.37352L37.047 2.81731L38.7116 2.45457L37.2058 2.67584L35.2464 3.39771C34.9228 3.42673 34.5968 3.44003 34.2708 3.44245C33.1986 3.4497 32.1239 3.45937 31.0492 3.46058L29.448 3.32758L29.4325 3.33846L29.4408 3.35297L30.7292 3.46179C29.8982 3.46179 29.0683 3.4497 28.2396 3.43035L29.442 3.28767L29.4528 3.27558L29.442 3.26591L28.2229 3.41101L28.2133 3.4231L28.2205 3.43035C25.7416 3.3699 23.2747 3.18852 20.8436 2.73388L25.8551 3.09542L25.8658 3.08454L25.8551 3.07244L20.6585 2.69882C20.3994 2.64924 20.1391 2.60813 19.8812 2.5513C18.4686 2.24176 17.056 1.931 15.6434 1.62146L15.6219 1.58035L15.2995 1.47274L17.1766 1.91287L17.1909 1.9044L17.1826 1.88868L15.1455 1.42195L14.6619 1.26113L15.0321 1.29015L15.0452 1.27685L15.0321 1.26234L14.5521 1.22486L14.2428 1.12208L14.1974 1.14747L14.2225 1.19705H14.2249L13.4213 1.13417C13.2314 1.09306 13.0428 1.05074 12.8529 1.00963L13.6613 1.06767L13.709 1.02172L13.6613 0.968519L12.3753 0.869369L12.0744 0.817375L11.4164 0.551362L10.7167 0.492113L10.3084 0.49695L10.0588 0.559826C9.82715 0.544107 9.5955 0.529597 9.36504 0.533225L8.80742 0.466721L8.78473 0.488486L8.80742 0.515087H8.81936L8.43009 0.542898L8.95428 0.407473L8.96384 0.389336L8.94593 0.378453L7.40558 0.758127H7.402L6.95542 0.98182L7.40678 0.79682H7.41155H7.41633L8.08381 0.631166L8.91966 0.554989L9.07727 0.557408C8.83607 0.571918 8.59487 0.576754 8.35487 0.619074C7.56201 0.759336 6.9005 1.10153 6.32734 1.56705L5.88793 1.77381L5.28612 2.26715L4.75476 2.83182L4.81447 2.70728L3.92608 4.15464L3.50697 5.43997L3.52607 5.47019L3.55592 5.45327L3.81862 4.65281L4.18161 3.89346L3.98937 4.96356C3.8413 5.30091 3.69563 5.63827 3.57503 5.98408L3.12009 7.02516L2.8968 8.10977L3.15949 7.35768C2.9171 8.34918 2.76665 9.3685 2.66754 10.4023L2.71172 9.0118L2.6747 9.19438L2.65679 10.4966C2.43708 12.8593 2.49082 15.297 2.43231 17.6645C2.40962 18.5835 2.3535 19.5 2.29021 20.4165L1.93319 21.7817L1.57855 22.3802L1.10093 22.8832L0.724797 23.1553L0.705692 23.2447L0.789276 23.2665L1.35287 22.8578L0.684199 23.9448L0.694945 23.9992L0.749872 23.9968L0.944504 23.7937L0.7845 24.0234L0.789276 24.0452L0.813157 24.0404L1.06152 23.6788L0.987491 23.8469L0.00716438 25.2785L0 25.2991ZM0.876443 26.4296L0.863308 26.4599L0.878831 26.3607L0.876443 26.4296ZM60.3217 2.1547L60.4089 2.16558L60.3205 2.17646L60.3241 2.16558V2.15591L60.3217 2.1547ZM60.2692 1.86571L60.2775 1.93705L60.2429 1.92617L60.2537 1.89473L60.2429 1.85846L60.2405 1.85483L60.2692 1.86571ZM60.2262 1.99388L60.2787 2.01081V2.03136L60.2417 2.02895L60.2357 2.02532L60.2298 2.0229L60.2274 2.01806L60.2238 2.01323V1.99267L60.2262 1.99388ZM50.485 1.81855H50.4898H50.4946L50.5089 1.82339L50.448 1.84757L50.4396 1.84999L50.4444 1.83185L50.4337 1.81493L50.4182 1.80404L50.485 1.81855ZM0.335532 24.9388L0.811963 24.252L0.666288 24.5845L0.335532 24.9388ZM1.01854 24.2145L1.0054 24.2217L0.999431 24.2278L1.04958 24.0984L1.03048 24.2169H1.01854V24.2145ZM0.946893 25.1564L1.01257 24.7066L1.04122 24.7006L1.06391 24.6752L1.06869 24.6667L0.934952 25.5216L0.946893 25.1564ZM1.17376 26.4272L1.19287 26.1467L1.206 26.1334L1.21556 26.1153L1.3887 25.5639L1.17376 26.4272ZM1.38034 26.4067L1.06272 28.0668L1.12958 27.0947L1.28839 26.5675L1.32899 26.5626L1.35407 26.5252L1.37914 26.4067H1.38034ZM1.33616 25.0645L1.42213 24.5639L1.49855 24.3789L1.33616 25.0645ZM1.28123 23.7223L1.29198 23.6474L1.34093 23.4878L1.38034 23.4297L1.28004 23.7223H1.28123ZM1.32899 23.2822L1.26929 23.3439L1.35884 23.1843L1.32899 23.2822ZM1.27645 23.7526L1.28839 23.7804L1.31466 23.7973L1.2466 23.9533L1.27645 23.7526ZM1.25018 24.31H1.25377L1.08063 25.0391L1.1666 24.472L1.24899 24.31H1.25018ZM1.14511 24.183L1.07824 24.3342L1.16421 24.0633L1.14511 24.183ZM1.08063 25.3269L1.17974 24.9001L1.23705 24.9218L1.29078 24.8795L1.30272 24.8517L1.07824 26.0814L1.07108 26.0754L1.06272 26.0705V25.3462L1.07346 25.339L1.08063 25.3257V25.3269ZM1.02809 26.0742L1.02092 26.085L0.906295 26.3607L0.913459 26.1358L1.03406 25.3426L1.03884 25.345V26.0693L1.02809 26.0742ZM0.994655 27.4961L1.0066 26.9665L1.03884 26.7815V26.7996L1.05078 26.8105L1.06272 26.7996V26.6473L1.1475 26.1588H1.15466H1.16182L1.13078 26.5989L1.00779 27.0947L1.02928 27.1563L1.09018 27.1624L1.03048 28.0269L0.994655 27.4973V27.4961ZM1.2072 27.9217L1.1869 28.01V28.0269L1.19287 28.0402L1.126 28.611L1.05675 28.2264L1.08302 28.2289L1.10093 28.2071L1.25974 27.4574L1.206 27.9229L1.2072 27.9217ZM1.27765 28.2107L1.25138 28.2929L1.29675 27.8661L1.30153 27.8456L1.27765 28.2119V28.2107ZM1.30989 28.1092L1.33735 27.6932L1.52243 26.9012H1.5296L1.40422 27.5916L1.42213 27.6315H1.46153L1.30989 28.1104V28.1092ZM1.72781 26.7912L1.49616 27.5215L1.76483 26.4236L1.77916 26.4296L1.79348 26.4321L1.72781 26.7912ZM1.79468 25.4103L1.68124 25.6933L1.89259 24.5651L1.8902 24.5325L1.87349 24.5083L1.88184 24.4587L1.94155 24.5119L2.00364 24.4672L2.02752 24.2991C2.04304 24.3027 2.05618 24.3088 2.0717 24.3112L2.03468 24.813L2.00364 24.8916L2.01319 24.7997L2.00245 24.7888L1.98931 24.7997L1.96901 24.975L1.93916 25.0488L1.93438 25.0403L1.92602 25.0343L1.93558 24.9811L1.91528 24.9496L1.88543 24.9678L1.79348 25.414L1.79468 25.4103ZM1.7505 24.4611L1.78871 24.1988L1.79707 24.1867L1.75289 24.4636L1.7493 24.4611H1.7505ZM1.82334 24.4539L1.87587 24.0778L1.89379 24.0524L1.82334 24.4539ZM11.5406 0.755709L11.5323 0.752081L11.5669 0.762964C11.5585 0.761754 11.5502 0.760545 11.5418 0.759336V0.755709H11.5406ZM50.214 2.35058L50.251 2.33244C50.251 2.33244 50.251 2.33365 50.2498 2.33486C50.2378 2.34212 50.2271 2.34937 50.2152 2.35663V2.35179L50.214 2.35058ZM57.6554 1.34336C57.6554 1.34336 57.6446 1.34336 57.6399 1.34215L57.6852 1.32522L57.6554 1.34336ZM59.4871 12.6078L59.4918 12.603C59.4918 12.603 59.4966 12.603 59.499 12.6042L59.4871 12.6078ZM54.9472 12.8194L54.718 12.8085L54.6822 12.8001L54.7478 12.7844L54.9484 12.7977L54.9448 12.8073V12.8182L54.9472 12.8194ZM54.6989 12.7384L54.6619 12.736C54.6917 12.7312 54.7216 12.7324 54.7514 12.7287L54.6989 12.7384ZM46.0491 24.2302C46.0491 24.2302 46.0562 24.2193 46.061 24.2133L46.0431 24.2701L46.0491 24.2302ZM45.9309 38.4595L45.938 38.5103L45.9798 38.5369L45.9607 38.5719L45.7159 38.5768L45.8103 38.4377C45.8485 38.4402 45.8855 38.445 45.9237 38.4462L45.9309 38.4583V38.4595ZM14.1043 25.8093L14.0852 25.842C14.0888 25.8202 14.0923 25.7985 14.0959 25.7779L14.1031 25.8093H14.1043ZM14.3335 38.578L14.1759 38.5889L14.1735 38.5852L14.2034 38.5514C14.2464 38.555 14.2894 38.5586 14.3323 38.5623V38.578H14.3335ZM12.4362 37.1959L12.4326 37.202L12.4254 37.1911C12.4254 37.1911 12.4326 37.1935 12.4362 37.1947V37.1959ZM12.3908 37.3132L12.3192 37.2902L12.2511 37.2564L12.2893 37.1645L12.3908 37.312V37.3132ZM5.60494 5.98408L5.79599 5.56814L5.54762 6.22954L5.61329 6.01915V5.99859L5.60494 5.98408ZM5.60732 5.84503L5.63837 5.74467L5.78166 5.46415L5.60732 5.84503ZM3.46995 31.8188L3.47592 31.8321C3.46995 32.0063 3.46279 32.1792 3.45443 32.3521L3.46279 31.7064L3.46995 31.8176V31.8188ZM13.9144 38.5272C13.9634 38.532 14.0111 38.5357 14.0601 38.5405L14.01 38.6022L13.8153 38.6155L13.9144 38.5272ZM14.4327 38.5732L14.3897 38.5756V38.5683C14.404 38.5695 14.4183 38.5707 14.4327 38.5719V38.5732ZM13.2123 27.0572C13.2493 26.9871 13.3019 26.9302 13.3592 26.8782L13.432 26.9278L13.4034 27.0149L13.161 27.4187C13.1896 27.2966 13.1992 27.1721 13.235 27.0499C13.2278 27.0536 13.2195 27.0536 13.2135 27.0572H13.2123ZM17.9145 24.1492L17.9981 24.1165L18.0065 24.0984L17.9957 24.0923C18.0829 24.0367 18.1713 23.9884 18.262 23.9412L18.5366 23.859L18.5414 23.8396L18.5223 23.8336L18.4077 23.8674C18.4996 23.8263 18.5928 23.7937 18.6859 23.7635L18.6943 23.7756L18.754 23.7973L18.797 23.7598L18.8662 23.8445L18.8758 23.8529L18.8865 23.8578L18.2525 24.177L17.8954 24.1637C17.9026 24.1589 17.9098 24.154 17.9169 24.1492H17.9145ZM18.9856 23.836L19.0537 23.8529L18.5892 24.1927L18.311 24.1806L18.9856 23.836ZM19.0214 23.8179L19.068 23.7937L19.1241 23.8433L19.0202 23.8167L19.0214 23.8179ZM19.0489 23.7768L18.9844 23.8094L18.9617 23.8034L18.9593 23.7901L18.9522 23.7768L18.8925 23.6994C18.9116 23.6945 18.9307 23.6957 18.9498 23.6909L19.0477 23.778L19.0489 23.7768ZM59.6148 2.86568C59.6148 2.85842 59.6113 2.85238 59.6101 2.84512L59.6124 2.84996L59.616 2.86205V2.86447L59.6148 2.86568ZM43.8854 37.9746L43.8771 37.9529L43.8854 37.9468C43.8854 37.9565 43.8854 37.9662 43.8854 37.9758V37.9746ZM35.287 25.0113C35.2965 25.0222 35.3025 25.0367 35.3144 25.0452C35.3646 25.0839 35.4207 25.1092 35.4792 25.131L34.7687 25.0476C34.9431 25.0403 35.115 25.0246 35.287 25.0125V25.0113ZM36.4488 37.9045L36.4237 37.8803L36.4404 37.8271C36.444 37.8537 36.4464 37.8779 36.4488 37.9045ZM36.444 38.0302L36.4607 38.0133C36.4655 38.0593 36.4655 38.1004 36.4703 38.1463L36.4345 38.1403L36.4142 38.15L36.444 38.0302ZM37.859 36.6409L37.8638 36.6458C37.8638 36.6458 37.8602 36.6421 37.859 36.6409ZM43.8854 37.8815L43.8604 37.8997L43.8568 37.89L43.8627 37.8827V37.8718L43.852 37.8283L43.8484 37.6276C43.8639 37.7122 43.8783 37.7945 43.8842 37.8803L43.8854 37.8815ZM43.8842 38.0641C43.8842 38.0774 43.8842 38.0907 43.8842 38.104L43.858 38.1209V37.9916L43.8854 38.0641H43.8842ZM43.8269 26.3063C43.8365 26.2906 43.852 26.2809 43.8615 26.2652L43.8783 26.403C43.8604 26.3716 43.8472 26.3365 43.8269 26.3051V26.3063ZM44.855 25.4152L44.9123 25.4055L44.7989 25.4539C44.818 25.4418 44.8359 25.4285 44.855 25.4164V25.4152ZM46.5912 23.4116L46.4873 23.7127L46.5363 23.495C46.5542 23.4672 46.5733 23.4382 46.5912 23.4104V23.4116ZM58.5999 12.5691L58.5688 12.5861L58.5641 12.5764C58.576 12.574 58.5879 12.5715 58.5999 12.5691ZM58.8447 12.551L58.6799 12.6247L58.7754 12.5546C58.7981 12.5522 58.822 12.5534 58.8447 12.551ZM50.1029 2.41225C50.0814 2.42071 50.0587 2.42676 50.0372 2.43522L50.1196 2.39532L50.1029 2.41225ZM1.93916 26.2773L1.91767 26.2712L1.89617 26.2785L2.0323 25.5639V25.5518L2.03946 25.5276L2.06692 25.5772L2.12305 25.5857L1.93797 26.2773H1.93916ZM2.37499 25.4877L2.17558 26.1648L2.41559 24.8215L2.37499 25.4877ZM2.67112 24.3221L2.67709 24.3378L2.4944 24.9992L2.50753 24.7864L2.68306 24.1516L2.66993 24.3039V24.3221H2.67112ZM3.35293 19.078L3.34338 19.0852L3.35771 18.9172L3.36248 19.0744L3.35174 19.0792L3.35293 19.078ZM3.40308 19.0744L3.39472 19.0719L3.38517 18.7914L3.41144 19.0768L3.40308 19.0732V19.0744ZM3.48905 19.581L3.45084 19.1747L3.45443 19.1554V19.1288L3.44487 19.1058L3.36726 18.2812L3.35174 18.2667L3.33741 18.2812L3.34696 18.5677L3.29084 18.5653L3.26815 18.5931C3.30875 18.0937 3.35054 17.5944 3.39114 17.0962L3.48786 19.5798L3.48905 19.581ZM6.1745 4.7048L6.12197 4.82692V4.81725L6.11958 4.80879L6.16973 4.71206C6.16973 4.71206 6.17212 4.70843 6.17331 4.70722L6.1745 4.7048ZM5.51538 5.99134L5.47717 6.13523L5.4712 6.14732L5.49031 6.0397L5.51538 5.99134ZM5.51777 6.33595L5.52374 6.34441L5.52852 6.34804C5.50344 6.41212 5.48075 6.47742 5.45687 6.5415L5.51896 6.33595H5.51777ZM4.787 23.1504C4.7667 23.3959 4.74163 23.6486 4.70581 23.9158C4.65565 23.9654 4.6067 24.0186 4.55774 24.0706L4.787 23.1504ZM3.25502 36.7594L3.25741 36.7522V36.7449L3.26576 36.7413C3.26815 36.7413 3.26935 36.7413 3.27173 36.7413L3.25502 36.7594ZM4.15415 38.5236L4.1649 38.4873C4.19594 38.4861 4.22699 38.4861 4.25684 38.4837V38.5018L4.15415 38.5224V38.5236ZM4.30102 38.4946V38.4825C4.32132 38.4825 4.34162 38.4813 4.36192 38.4801H4.36311L4.29982 38.4946H4.30102ZM4.93148 38.5478L4.93507 38.5429L4.93865 38.5466H4.93148V38.5478ZM4.97686 38.5466L4.95298 38.5187L4.95775 38.5127L5.22761 38.5357L4.97686 38.5453V38.5466ZM6.46227 38.7207L7.4832 38.7062L7.50708 38.7255L6.46227 38.7207ZM7.43902 38.7666L7.54887 38.7594L7.56559 38.7727L7.44021 38.7666H7.43902ZM7.71126 38.7412V38.7267L7.69813 38.7195H7.685L7.66589 38.7037H7.72321L7.74828 38.7715L7.71007 38.74L7.71126 38.7412ZM7.23364 36.8392H7.21215C7.17394 36.7897 7.12856 36.7449 7.09035 36.6966L7.23483 36.8392H7.23364ZM6.38466 31.1417C6.43123 30.9615 6.46944 30.779 6.52675 30.6C6.58407 30.4211 6.66526 30.259 6.73571 30.0897L6.38466 31.1417ZM11.3173 32.7221C11.3269 32.7475 11.3364 32.7716 11.346 32.7958C11.3567 32.8418 11.3651 32.8877 11.3747 32.9337L11.3173 32.7209V32.7221ZM12.1221 36.8852L12.1126 36.8973L12.109 36.9154L12.1209 37.15L12.0935 37.1137L12.0815 36.9638L12.1209 36.8187V36.8852H12.1221ZM12.0636 36.8852L12.0421 37.0206L12.0147 36.9299L12.0075 36.832V36.8296L12.0063 36.8271V36.8235L12.0075 36.8199L12.0266 36.3253V36.3326L12.0565 36.3519L12.0803 36.3253V36.3145C12.0923 36.3459 12.109 36.3761 12.1221 36.4064V36.7618L12.0624 36.8852H12.0636ZM12.1938 36.9154L12.1902 36.9021L12.183 36.8912L12.1783 36.8404V36.7328L12.1842 36.7256L12.1866 36.7135L12.1783 36.705V36.5091C12.189 36.5321 12.2021 36.5551 12.2141 36.5781C12.2212 36.7377 12.2415 36.8961 12.2403 37.0581L12.238 37.0605L12.2117 37.1282L12.195 36.9166L12.1938 36.9154ZM12.3872 37.3834L12.232 37.3181L12.2427 37.2915L12.3681 37.3471L12.5042 37.3664L12.5138 37.37L12.5233 37.3664L12.5413 37.364L12.546 37.37L12.552 37.3749L12.3872 37.3821V37.3834ZM12.5436 37.3023L12.5365 37.3144L12.5138 37.3314H12.4792L12.4851 37.3241L12.5413 37.231C12.5556 37.237 12.5723 37.2395 12.5866 37.2455L12.5568 37.2927L12.546 37.3035L12.5436 37.3023ZM12.706 37.3023L12.6666 37.3289L12.6798 37.3072L12.6893 37.283H12.6965C12.6965 37.283 12.7048 37.2939 12.7108 37.2987L12.706 37.3023ZM13.6446 38.6445L13.641 38.6614L13.5395 38.5175L13.5323 38.497C13.5622 38.4994 13.592 38.5018 13.6207 38.5042L13.6183 38.5067V38.5756H13.6876L13.7341 38.5308L13.6553 38.6239L13.6458 38.6409L13.6446 38.6445ZM13.9276 38.7255L13.9825 38.7328L13.8702 38.7533L13.7568 38.734L13.7102 38.7122L13.7186 38.7074L13.7282 38.7013L13.7711 38.6626L13.9944 38.6481L14.0016 38.6832L14.0255 38.7074L13.9311 38.6989L13.9192 38.7098L13.9276 38.7231V38.7255ZM14.6213 38.7388V38.7436L14.6177 38.7485L14.121 38.7183L14.1473 38.682L14.1688 38.6397L14.1855 38.6711L14.2058 38.6759L14.2117 38.6554L14.201 38.636L14.3407 38.6264V38.6505L14.3718 38.6784L14.398 38.6505V38.6227L14.7097 38.6022L14.6225 38.7388H14.6213ZM14.7753 38.7497L14.8924 38.6179H14.9019C15.0118 38.6276 15.1216 38.6372 15.2303 38.6469L15.247 38.7134L15.3318 38.6941L15.3569 38.6578C15.4178 38.6626 15.4786 38.6687 15.5407 38.6735L15.5431 38.7376L15.5467 38.7521L15.5563 38.7618L14.7742 38.7497H14.7753ZM15.7031 38.7557L15.7007 38.7642L15.5921 38.7618L15.6016 38.7521L15.6052 38.7376L15.6028 38.6796C15.647 38.6832 15.6912 38.6868 15.7354 38.6917L15.7031 38.7569V38.7557ZM16.619 37.8211L16.6369 37.8283L16.7026 37.815L16.7288 37.7497L16.8662 37.8755L17.0035 38.0423L17.0238 38.0532V38.2527L17.013 38.2237L16.9915 38.1995L16.5318 37.8392C16.5139 37.8126 16.4996 37.7848 16.4817 37.7594L16.619 37.8223V37.8211ZM12.9938 28.2784C13.0248 28.0535 13.0798 27.831 13.1275 27.6086L13.3186 27.2833L12.9938 28.2784ZM13.2135 27.7222L13.4046 27.137L13.5073 26.9605L13.5228 26.9653L13.2135 27.7234V27.7222ZM13.5252 26.8226L13.487 26.8117V26.8033V26.7912C13.5144 26.7779 13.5407 26.7622 13.5693 26.7501L13.5252 26.8226ZM13.678 26.8395H13.6267L13.6505 26.7875L13.6899 26.8129L13.7305 26.8335L13.6768 26.8395H13.678ZM14.0768 26.5917L13.8177 26.8141L13.7413 26.7875L13.6684 26.7464L13.6983 26.6836C13.6983 26.6836 13.709 26.6787 13.715 26.6751C13.7449 26.657 13.7604 26.6267 13.7855 26.6038H13.7879L13.8822 26.6848L13.9729 26.6158L14.035 26.1939L14.1091 26.2676L14.0768 26.5892V26.5917ZM14.1712 26.0209L14.1329 25.9762L14.0888 25.9351L14.1246 25.871L14.1712 26.0209ZM14.1365 25.7646L14.1186 25.68C14.1413 25.5603 14.1903 25.4406 14.2512 25.3281L14.3825 25.2543L14.4732 25.2217L14.1353 25.7646H14.1365ZM14.4362 25.102C14.5079 25.0427 14.5879 25.0101 14.6774 25.0028L14.6679 25.0113L14.4362 25.1032V25.102ZM16.8781 25.5941L16.7873 25.6352V25.6256L16.7861 25.6147L16.8721 25.5796L16.9485 25.5288L16.8781 25.5941ZM18.2238 24.4672L17.6268 24.495L17.4966 24.489C17.6089 24.3825 17.7283 24.2846 17.8548 24.1951L18.1916 24.2108L17.9862 24.3148L17.9802 24.3342L18.0005 24.3402L18.2525 24.2121L18.551 24.2241L18.2238 24.466V24.4672ZM18.2871 24.4611L19.0871 23.8699L19.0895 23.8674L19.0919 23.865L19.1731 23.8856L19.2459 23.9509L18.5534 24.4285L18.2883 24.4611H18.2871ZM19.4704 24.1746L19.468 24.1782V24.1818L18.6393 24.4067L19.271 23.9666H19.3164L19.3474 23.934L19.4692 24.0428L19.5456 24.0524L19.5826 23.9908L19.6507 24.0077L19.4692 24.1746H19.4704ZM19.5444 23.9279L19.6041 23.9654L19.5719 23.9569L19.5635 23.9473L19.5444 23.9279ZM19.7474 23.9073L19.8441 23.9388L19.7415 23.9799L19.7546 23.9448L19.7474 23.9073ZM20.1749 24.1093L19.7665 24.0065L19.8979 23.9569L20.2752 24.0815L20.1749 24.1093ZM20.243 24.1262L20.3361 24.1008L20.9881 24.316L20.243 24.1262ZM29.9364 24.5712L29.7907 24.5663L29.774 24.576V24.5954L28.1548 24.7344C28.7065 24.6026 29.2581 24.4587 29.8217 24.4781C29.9388 24.4817 30.0534 24.5095 30.1692 24.5252L29.9376 24.5724L29.9364 24.5712ZM30.4653 24.5651C30.5262 24.5772 30.5859 24.5869 30.6468 24.6002L30.3638 24.5857L30.4653 24.5651ZM35.3777 37.8053L35.4303 37.676L35.4529 37.7086L35.4792 37.7376L35.3765 37.8041L35.3777 37.8053ZM35.5759 37.5974L35.5736 37.5817C35.6261 37.5889 35.6822 37.5659 35.7383 37.5357L35.7873 37.5393L35.6285 37.6421L35.5759 37.5974ZM35.8554 37.6119L35.835 37.6494L35.7992 37.653L35.7562 37.6433L35.8697 37.5696L35.8554 37.6107V37.6119ZM35.8458 37.4583C35.8637 37.4426 35.8828 37.4281 35.8971 37.4112C35.9151 37.3918 35.9365 37.3713 35.9568 37.3519L35.9533 37.4136L35.8458 37.4583ZM36.2183 37.6216L36.1527 37.5671L36.0786 37.5236L36.0954 37.4462L36.1407 37.4716L36.1945 37.4547L36.2792 37.3809L36.2183 37.6228V37.6216ZM36.2995 38.6699L36.3019 38.6397L36.327 38.6699H36.2995ZM36.401 37.4632C36.401 37.4704 36.4046 37.4777 36.4046 37.4849V37.4885L36.3903 37.5079L36.401 37.4644V37.4632ZM36.3975 38.4631L36.4834 38.3132C36.4858 38.3398 36.4858 38.3664 36.487 38.393L36.3975 38.4631ZM36.4297 38.5042L36.4333 38.5018L36.4452 38.5067L36.4584 38.503L36.4918 38.4825C36.4918 38.5079 36.4954 38.5345 36.4954 38.5599L36.4703 38.5429L36.4297 38.5067V38.5042ZM36.7294 38.6312H36.69L36.7748 38.6203C36.7772 38.6203 36.7784 38.6203 36.7808 38.6203L36.7676 38.6252L36.7306 38.6312H36.7294ZM38.2566 38.5647L38.2781 38.5599H38.29L38.302 38.5538L38.3892 38.5333L38.4047 38.5502L38.4274 38.555L38.2578 38.5647H38.2566ZM38.4298 38.555L38.4369 38.5526L38.4441 38.5478L38.4524 38.5381L38.4644 38.5478L38.4811 38.5514H38.4895L38.4298 38.5562V38.555ZM37.7623 38.5804L37.7647 38.5901L37.7682 38.5985L37.4196 38.6856L36.9228 38.7062L37.0828 38.601C37.1796 38.5949 37.2763 38.5889 37.3718 38.5828H37.7623V38.5804ZM38.7223 37.2225L39.1868 37.6155L38.8071 37.3314V37.3289L38.7999 37.289L38.7593 37.2915L38.7569 37.2951L38.6542 37.2177L38.6423 37.2201C38.6124 37.1984 38.5826 37.1766 38.5527 37.1548L38.7223 37.2225ZM37.7933 36.2407C37.7933 36.2093 37.7933 36.179 37.7933 36.1476L37.8029 36.1367L37.7933 36.2407ZM37.9127 34.8901L37.8076 36.0726L37.7909 36.0908C37.7873 35.4947 37.8136 34.8997 37.8841 34.3085L37.9497 34.2335L37.9103 34.8901H37.9127ZM37.9581 34.161L37.8912 34.2359C37.9044 34.1368 37.902 34.0364 37.9175 33.9373C37.9235 33.9022 37.9318 33.8696 37.9378 33.8345L38.0011 33.7656L37.9569 34.161H37.9581ZM38.013 33.6918L37.9557 33.7547C37.9879 33.5721 38.0238 33.3919 38.0644 33.2118L38.013 33.693V33.6918ZM38.1229 32.9699L38.1253 32.9409C38.1444 32.8635 38.1683 32.7874 38.1886 32.7112L38.136 32.953L38.1217 32.9699H38.1229ZM38.3151 32.2565C38.3342 32.1925 38.3521 32.1284 38.3724 32.0643L38.3151 32.2565ZM39.914 28.137C40.0155 27.8468 40.1182 27.5566 40.1862 27.2494C40.2161 27.3099 40.2447 27.3704 40.2746 27.4308L39.914 28.1382V28.137ZM42.64 36.6651L42.5923 36.6506L42.5469 36.6313V36.6288L42.5708 36.4777C42.5911 36.4753 42.6114 36.4789 42.6317 36.4777L42.6269 36.497L42.6305 36.5369L42.6651 36.549L42.6854 36.5406L42.64 36.6663V36.6651ZM42.8597 36.5744L42.8406 36.5563L42.8908 36.4934C42.917 36.4995 42.9421 36.5116 42.9684 36.5188L42.8609 36.5732L42.8597 36.5744ZM43.4484 37.0533L43.4854 36.8102C43.4854 36.8102 43.4854 36.8114 43.4866 36.8126L43.5917 37.2528L43.4472 37.052L43.4484 37.0533ZM43.6932 37.2383L43.6836 37.2298L43.6717 37.2334L43.6024 36.971C43.6323 37.0121 43.6693 37.0484 43.6932 37.0932C43.7027 37.1125 43.7027 37.1355 43.7123 37.156L43.7218 37.3374L43.6944 37.2395L43.6932 37.2383ZM43.8532 38.2757L43.8866 38.2418C43.8866 38.2503 43.8866 38.2588 43.8866 38.2672L43.8532 38.2926V38.2745V38.2757ZM44.0968 38.5985L43.9869 38.5804L43.8842 38.5018L43.8532 38.3652L43.8854 38.3422C43.883 38.37 43.8878 38.399 43.8854 38.4256L43.8759 38.4389L43.8866 38.4909L43.9392 38.4885L43.9714 38.4522C44.0311 38.4486 44.0932 38.4486 44.1529 38.445L44.1995 38.4897L44.1816 38.5284V38.5756L44.2162 38.6022L44.0968 38.5973V38.5985ZM44.2377 38.6034L44.2532 38.5961L44.2663 38.5816L44.2819 38.5562L44.3511 38.601L44.2365 38.6034H44.2377ZM44.3905 38.5768L44.3034 38.5224L44.3559 38.4389C44.3643 38.4389 44.3738 38.4389 44.3822 38.4389L44.3857 38.4801L44.4347 38.4994L44.3917 38.578L44.3905 38.5768ZM44.5613 38.5453L44.5553 38.5707L44.5613 38.5937H44.5063L44.6078 38.4293C44.6114 38.4293 44.615 38.4293 44.6186 38.4293L44.5613 38.5453ZM45.4986 38.7473L45.1989 38.7533L45.2885 38.7255L45.3279 38.6844L45.3171 38.63H45.5082L45.4855 38.6747L45.4807 38.7158L45.4986 38.7473ZM45.1141 38.5937L45.1046 38.5961L45.0986 38.6034L44.7463 38.5961L44.8299 38.4208C44.8932 38.4208 44.9565 38.4244 45.0198 38.4244L45.0329 38.4716L45.1082 38.4522L45.1237 38.4268C45.1404 38.4268 45.1571 38.4268 45.1738 38.4268L45.1464 38.4873L45.169 38.5635L45.2419 38.5441L45.3088 38.4293C45.3088 38.4293 45.3123 38.4293 45.3135 38.4293L45.3434 38.4692L45.3971 38.4655L45.4437 38.4982L45.4974 38.4716L45.5213 38.4341C45.5464 38.4341 45.5714 38.4341 45.5953 38.4353L45.5261 38.5828L45.1117 38.5913L45.1141 38.5937ZM45.9786 38.7219V38.7364L45.6001 38.7436L45.6109 38.7352L45.6204 38.7243L45.6873 38.6239L45.9392 38.6215L45.9416 38.6759L45.9834 38.705L45.9786 38.7207V38.7219ZM46.2664 38.5526H46.2365L46.2855 38.4813C46.2891 38.4813 46.2927 38.4813 46.2962 38.4813L46.2664 38.5514V38.5526ZM46.4168 38.5526L46.4539 38.4946C46.51 38.4994 46.5661 38.503 46.6222 38.5091V38.5139L46.6198 38.5357L46.6258 38.555H46.4168V38.5526ZM46.9745 38.5562H46.7309L46.7464 38.52C46.8228 38.5284 46.8957 38.5417 46.9709 38.5514L46.9733 38.5562H46.9745ZM46.7858 37.1391L47.1393 37.549L47.3602 38.0351L47.113 37.7207L47.1249 37.6989V37.6735L47.1846 37.7558L47.2169 37.7618L47.2228 37.7328L46.7858 37.1379V37.1391ZM44.0836 26.9036C44.0825 26.8964 44.0789 26.8903 44.0777 26.8843V26.8565L44.0836 26.9048V26.9036ZM43.9881 26.2192L43.9738 26.1419C43.9786 26.1358 43.9845 26.1298 43.9893 26.1237V26.2192H43.9881ZM44.6914 25.6546L44.3965 25.7694L44.3475 25.7827C44.3702 25.7646 44.3929 25.7465 44.4156 25.7295L44.701 25.6195L44.6914 25.6546ZM44.7141 25.5724L44.5159 25.6497C44.5159 25.6497 44.5195 25.6473 44.5207 25.6461L44.7165 25.5639L44.7141 25.5724ZM44.7261 25.6389L44.7356 25.6062L44.9935 25.5022L44.7261 25.6389ZM45.1631 25.3994L44.7487 25.5603L44.7511 25.5506L45.2705 25.3293L45.1631 25.4007V25.3994ZM45.2837 25.3196L45.2873 25.3112V25.3015L45.3374 25.2822L45.2837 25.3196ZM47.1285 22.7139L47.0628 22.7853V22.8058H47.0843L47.0998 22.7889L47.076 22.8493L46.984 22.9521V22.9703H47.0007L47.0497 22.9171L46.3977 24.177L45.4258 25.2157L45.2777 25.2785L45.2658 25.2701H45.2502L45.0568 25.3511L44.9075 25.3861C45.0222 25.3088 45.1308 25.2265 45.2395 25.1419L45.2443 25.1504L45.2634 25.1443L45.2765 25.1153C45.2896 25.1044 45.3052 25.0947 45.3183 25.0839C45.3434 25.0621 45.3613 25.0343 45.3864 25.0113L45.3899 25.0282L45.4246 25.0222L45.6073 24.7767C45.6073 24.7767 45.618 24.7658 45.6228 24.7598L45.5786 24.894L45.5882 24.9134L45.6073 24.9073L45.7243 24.6522C45.821 24.5385 45.9165 24.4237 46.0037 24.3003L45.9715 24.495L45.9846 24.5156L46.0049 24.5035L46.1255 24.1226C46.2497 23.9388 46.3762 23.7562 46.4957 23.5664L46.4001 23.9751L46.4109 23.9932L46.4288 23.9835L46.6545 23.3209C46.793 23.1069 46.9434 22.905 47.1022 22.7103H47.1046L47.1404 22.6728L47.1261 22.7127L47.1285 22.7139ZM47.2169 22.6934L47.2384 22.6426L47.4664 22.4165L47.2169 22.6934ZM48.7202 20.8059L48.4623 21.3004L48.4491 21.2944L48.4348 21.3004L48.43 21.3053L48.4491 21.2726L48.4659 21.2557L48.4706 21.2472V21.2424C48.4862 21.2194 48.5053 21.2001 48.5196 21.1771C48.5721 21.0949 48.6127 21.0066 48.6545 20.9195L48.7202 20.8047V20.8059ZM49.2014 19.2195V19.1771C49.211 19.1505 49.2181 19.1239 49.2265 19.0973L49.2444 19.1022L49.2014 19.2207V19.2195ZM49.8247 17.8567L49.568 18.448L50.0277 17.2425L49.8259 17.8555L49.8247 17.8567ZM49.2981 18.9547L49.2396 19.0538C49.5071 18.176 49.8378 17.3175 50.1925 16.4699L50.1614 16.6403L49.2981 18.9547ZM50.2522 16.4239L50.2761 16.2716C50.3573 16.0781 50.4385 15.8846 50.5208 15.6912C50.5304 15.667 50.5435 15.644 50.5531 15.6198L50.5626 15.6114L50.2522 16.4239ZM50.7119 15.4747L50.7382 15.4058L50.7656 15.3695L50.7119 15.4759V15.4747ZM50.854 15.0987L50.9459 14.8448C50.9818 14.7831 51.0247 14.7263 51.0653 14.6682L51.0725 14.6646L50.854 15.0987ZM51.1071 14.6053C51.1549 14.54 51.1883 14.4651 51.2421 14.4046C51.3233 14.3139 51.4307 14.2535 51.5239 14.1761L51.6218 14.1713L51.6349 14.1567L51.6218 14.1434L51.5621 14.1459C51.7173 14.0213 51.8701 13.8944 52.0445 13.7952L51.2719 14.5062L51.1071 14.6065V14.6053ZM51.8737 14.0794L51.5501 14.349L51.5036 14.378L52.1687 13.7807L51.8737 14.0806V14.0794ZM52.2737 13.7614L52.3155 13.7106L52.4146 13.6779L52.2749 13.7614H52.2737ZM52.866 13.43L52.5567 13.5244C52.5937 13.5062 52.6296 13.4845 52.6666 13.4663C52.7478 13.4264 52.8302 13.3889 52.9126 13.3502L53.1621 13.2499L53.1657 13.2596L53.1717 13.268L52.866 13.43ZM53.2672 13.3055L53.3663 13.2366L53.7556 13.031L53.7711 13.0431L53.7902 13.0383L53.863 12.973L53.9932 12.9016C54.0159 12.8944 54.0397 12.8896 54.0624 12.8823L54.1114 12.8847L54.0278 12.9041L54.0099 12.9355L54.0409 12.9548L54.2296 12.9125L53.2672 13.3055ZM54.4505 12.794L54.4947 12.765C54.5066 12.7626 54.5174 12.7578 54.5281 12.7553V12.7614L54.5448 12.7747H54.5389L54.5293 12.7807L54.5245 12.7892L54.4875 12.7977L54.4517 12.7928L54.4505 12.794ZM54.7371 12.973L54.5221 12.9149H54.7645L54.9532 12.9428L54.7371 12.973ZM55.0774 12.7735L54.8923 12.759L54.909 12.7553L54.9257 12.7263L54.9174 12.7215C54.9317 12.7215 54.946 12.7191 54.9604 12.7179L55.1001 12.7638V12.7662L55.1037 12.7686L55.0762 12.7735H55.0774ZM55.3413 12.8255L55.3138 12.8182H55.3055L55.2995 12.823L55.2469 12.8182L55.2505 12.8025L55.241 12.788L55.3914 12.8037L55.3401 12.8255H55.3413ZM55.4738 12.8327L55.4977 12.8146L55.6434 12.8303H55.4738V12.8327ZM55.9467 12.8218L55.5025 12.7698L55.4834 12.7578L55.4619 12.7614L55.4571 12.765L55.1896 12.736L55.0965 12.7046C55.1287 12.7046 55.161 12.6949 55.1944 12.6961C55.4129 12.7009 55.6302 12.7336 55.8464 12.7686L55.8547 12.7819L55.8726 12.7856L55.8762 12.7735C55.8762 12.7735 55.8834 12.7735 55.887 12.7747L55.9574 12.8218H55.9467ZM56.0541 12.817L56.0052 12.7928C56.0362 12.7977 56.0685 12.8013 56.0995 12.8073L56.0744 12.8158H56.0529L56.0541 12.817ZM56.5509 12.863C56.5771 12.8654 56.6034 12.8666 56.6297 12.8678L56.521 12.8654L56.5509 12.863ZM58.2285 12.6925L58.1652 12.6949C58.1867 12.6888 58.2154 12.6864 58.2345 12.6779L58.2942 12.6707L58.2285 12.6925ZM58.6094 12.6356H58.6047H58.57L58.687 12.5667C58.6966 12.5667 58.7062 12.5667 58.7145 12.5655L58.613 12.6393L58.6094 12.6368V12.6356ZM58.7479 12.7227L58.625 12.7009L58.7384 12.6526L58.7491 12.6646H58.7659L58.8566 12.6078L58.8614 12.6042L58.8638 12.5994L58.8745 12.5921L58.9712 12.5522C58.9891 12.5522 59.0082 12.5498 59.0262 12.5498L58.773 12.684L58.7659 12.707L58.7862 12.7179L58.8256 12.7058L58.8351 12.7263L58.859 12.7287L58.8685 12.7251V12.7287L58.8721 12.7324L58.7491 12.7227H58.7479ZM58.8757 12.6683L59.093 12.5474C59.1062 12.5474 59.1193 12.5449 59.1324 12.5462L58.8757 12.6707V12.6683ZM59.0381 12.7227L58.9103 12.7324L59.1085 12.6368L59.0393 12.7009L59.0333 12.713L59.0369 12.7239L59.0381 12.7227ZM59.1396 12.6755L59.136 12.6828L59.1229 12.6913L59.1157 12.6997V12.7094L59.0703 12.7179L59.2196 12.5812L59.2686 12.557C59.2805 12.5595 59.2912 12.5619 59.3032 12.5655L59.2733 12.5861L59.1444 12.6707L59.1384 12.6767L59.1396 12.6755ZM59.3462 12.6405H59.345H59.3426L59.2495 12.6755H59.2387L59.2315 12.6767L59.2268 12.6816L59.1897 12.6913L59.3677 12.5788C59.3832 12.5824 59.3999 12.5861 59.4154 12.5897L59.3462 12.6393V12.6405ZM59.5623 12.6792L59.5539 12.6864L59.5504 12.6961L59.5217 12.6937H59.5241L59.5265 12.69L59.5336 12.6779L59.6029 12.6586L59.5623 12.6779V12.6792ZM59.653 12.707L59.6578 12.6997L59.6924 12.69L59.702 12.7046L59.7211 12.707L59.7474 12.6997V12.7082L59.7486 12.7166L59.653 12.707ZM59.9456 12.742L59.7784 12.7203L59.8047 12.6852L59.8142 12.6828C59.8214 12.684 59.8274 12.6852 59.8345 12.6876L59.8321 12.6973L59.8525 12.7046L59.8704 12.6961C59.8704 12.6961 59.8727 12.6961 59.8751 12.6961L59.8787 12.7166L59.9026 12.7251L59.9468 12.7179V12.7227V12.7275L59.9432 12.7348V12.742H59.9456ZM61.1743 13.0383L61.0764 13.1012L61.0561 13.1084L61.0537 13.0999L61.0465 13.0927L61.0382 13.0891L61.0716 13.0709L61.0799 13.06L61.0776 13.0467L61.0955 13.054L61.1122 13.0455L61.1038 13.0274L61.0931 13.0226L61.0991 13.0189C61.1241 13.025 61.1492 13.0322 61.1743 13.0383ZM61.025 13.0238L60.9928 13.0455H60.9868L60.9796 13.048L60.9653 13.0588L60.9522 13.0528L61.0226 13.0238H61.025ZM60.951 12.9984H60.9367L60.8937 13.0262L60.8686 13.0153L60.9116 12.979H60.9211H60.9426L60.945 12.9851L60.9498 12.9899L60.9773 13.002L60.9546 13.0105L60.9498 12.9972L60.951 12.9984ZM60.8352 13.002L60.7993 12.9875L60.8149 12.9754V12.973L60.8674 12.9766L60.834 13.002H60.8352ZM60.8567 13.0492L60.8065 13.0685L60.8387 13.0419L60.8567 13.0492ZM60.4149 13.0528V13.0588L60.3993 13.0685L60.3683 13.0528L60.459 13.0165L60.4184 13.048L60.4149 13.0528ZM60.4996 13.112L60.4578 13.0951L60.5546 13.048L60.5653 13.0322L60.5581 13.0153L60.6465 12.9585L60.6871 12.9766L60.5307 13.0637L60.5235 13.0782L60.5331 13.0903L60.4996 13.1108V13.112ZM60.5498 13.1314L60.6059 13.0951L60.5558 13.1326H60.551L60.5498 13.1314ZM60.588 13.1435L60.7659 13.0117L60.8017 13.0274L60.6871 13.1157L60.6799 13.1411L60.7014 13.1519L60.7265 13.1423L60.6859 13.1713L60.5868 13.1447L60.588 13.1435ZM60.7898 13.1737L60.7826 13.181L60.7802 13.1894L60.7277 13.1797L60.8459 13.0963L60.9068 13.0721L60.9331 13.083L60.7886 13.1749L60.7898 13.1737ZM60.8423 13.1967L60.8531 13.187L60.9988 13.1084L61.0334 13.1229H61.037H61.0405L61.0226 13.1338L61.0131 13.129L61.0011 13.1326L60.9056 13.2027L60.8399 13.1967H60.8423ZM61.0549 13.1991L61.0513 13.2027L61.0477 13.2064H60.9904L61.16 13.1024L61.2435 13.0794L61.0537 13.2003L61.0549 13.1991ZM61.4059 13.0721C61.4059 13.0721 61.4035 13.0685 61.4035 13.0661L61.4226 13.0528L61.431 13.0395L61.4262 13.0262L61.4895 13.008C61.511 13.008 61.5337 13.0068 61.5552 13.0056L61.4059 13.0721ZM61.9409 12.9343L61.8358 12.979L61.868 12.9548C61.8931 12.9488 61.917 12.9428 61.9409 12.9355V12.9343ZM61.4238 13.2039L61.5791 13.1024L61.5815 13.112L61.5874 13.1193L61.4728 13.2039H61.4238ZM61.6638 13.1822L61.5325 13.2003L61.6949 13.083L61.9289 12.9827L61.665 13.1822H61.6638ZM61.8059 13.1471L61.7331 13.1677L61.9289 13.0153L61.9325 13.0298L61.9445 13.0371H61.9528L61.8059 13.1471ZM62.003 13.0008H61.9934L62.0579 12.9258L62.0627 12.9174V12.9089L62.108 12.9065H62.1307H62.1295H62.1271L62.003 12.9996V13.0008ZM62.0459 13.008L62.0328 13.0056L62.1379 12.927L62.1427 12.9162L62.1367 12.9077L62.2107 12.9053H62.2131L62.2155 12.9077L62.0448 13.0068L62.0459 13.008ZM62.4376 12.6925H62.4364L62.2668 12.8303L62.1582 12.8363C62.2251 12.8001 62.2955 12.7662 62.354 12.7203L62.3707 12.7166L62.3791 12.6997C62.3958 12.6852 62.4077 12.6659 62.4245 12.6501L62.4495 12.6562L62.44 12.6913H62.4388L62.4376 12.6925ZM60.9402 6.27912C60.9367 6.25735 60.9331 6.23559 60.9295 6.21382L60.9414 6.26823V6.28033L60.9402 6.27912ZM60.9534 6.06147V6.06389L60.951 6.06631V6.11709L60.945 6.11346L60.9331 6.13402L60.9522 6.03487V6.06268L60.9534 6.06147ZM60.4041 4.12683L60.4113 4.13045L60.4184 4.12803L60.5044 4.21026L60.7874 4.56938L60.7707 4.58026L60.7683 4.60081L60.8746 4.98653L60.8614 5.21506L60.8829 5.36742L60.902 5.37346L60.908 5.35532L60.8782 5.21264V5.00346L60.9152 5.25376L60.9307 5.50647L60.9235 5.54516L60.8268 5.24529L60.8137 5.24045L60.8077 5.25496L60.8782 5.47745L60.9235 5.70356L60.8996 5.99859L60.8961 6.02036C60.828 5.57902 60.7623 5.13889 60.6322 4.72898L60.6358 4.72294L60.6262 4.70722C60.5928 4.60444 60.551 4.50529 60.508 4.40614L60.5808 4.51375L60.6107 4.51738L60.6155 4.48353L60.3026 4.02042L60.4017 4.12683H60.4041ZM59.7486 2.62385L59.7008 2.57186L59.6936 2.54767L59.7068 2.53921L59.7187 2.5247L59.7486 2.46787L59.7354 2.50414L59.739 2.54646L59.7701 2.57306L59.7462 2.62506L59.7486 2.62385ZM59.9145 1.71215L59.8345 1.70368H59.8274L59.8214 1.70731L59.7951 1.70247C59.7987 1.69159 59.8023 1.68071 59.8059 1.66983L59.9145 1.71094V1.71215ZM59.8728 1.47757H59.8692L59.8656 1.4812L59.8632 1.48362C59.8883 1.40865 59.911 1.33368 59.9336 1.25872L59.8716 1.47757H59.8728ZM60.0662 0.800447L59.9719 1.13296C59.9993 1.03019 60.022 0.928617 60.0375 0.827049L60.0698 0.721852L60.0662 0.800447ZM60.0793 0.516297V0.518715L60.0519 0.599728C60.0554 0.498159 60.0495 0.3978 60.0304 0.298649L60.0901 0.322832L60.0793 0.517506V0.516297ZM60.0065 0.178943L60.0602 0.207963L60.0937 0.259956V0.287767L60.0172 0.25512C60.0113 0.229727 60.0017 0.204335 59.9945 0.180152H60.0065V0.178943ZM58.7181 1.48845L58.7348 1.49571H58.7563L58.773 1.4945L58.7706 1.50901V1.52473L58.6799 1.50176L58.7193 1.48966L58.7181 1.48845ZM58.6261 1.51747L58.7551 1.55012C58.6644 1.5743 58.5712 1.58761 58.4769 1.59244C58.4423 1.57068 58.4064 1.55133 58.3694 1.53319L58.4697 1.54287L58.4852 1.5344V1.51627L58.533 1.55133L58.5545 1.5477L58.5509 1.52594L58.4996 1.48725L58.5676 1.50417L58.5939 1.51989H58.6261V1.51747ZM58.5079 1.39535L58.5927 1.3881L58.5736 1.39656L58.5449 1.42679V1.4679L58.5044 1.45823L58.4888 1.46306L58.4852 1.47757L58.4064 1.41832L58.502 1.43525L58.5223 1.41953L58.5067 1.39535H58.5079ZM58.3742 1.3494L58.3909 1.36633H58.4184L58.4411 1.35787L58.4494 1.37359L58.4614 1.38568L58.3432 1.3627L58.3754 1.3494H58.3742ZM57.7306 1.3095L57.7712 1.29378L58.2011 1.37842L58.2082 1.40261L58.2309 1.40865L58.2703 1.39172L58.3348 1.40381L58.4721 1.50538L57.8822 1.376H57.8727C57.8142 1.36512 57.7557 1.35787 57.6972 1.3494L57.7294 1.32764L57.7354 1.31796L57.7318 1.30829L57.7306 1.3095ZM57.5682 1.25388L57.7199 1.28411L57.5634 1.33852C57.5634 1.33852 57.5598 1.33852 57.5587 1.33852L57.6434 1.30708L57.6518 1.29136L57.6375 1.2829L57.4942 1.33368C57.4404 1.33006 57.3867 1.32038 57.333 1.32038L57.5694 1.25509L57.5682 1.25388ZM56.6392 1.37238L56.5747 1.37479L56.6428 1.35303L56.65 1.34698V1.33852L56.8422 1.37963L56.5604 1.43767L56.644 1.40261L56.6547 1.38447L56.6392 1.37117V1.37238ZM56.4458 1.42316L56.5533 1.40623L56.3897 1.47274L56.3765 1.47515L56.3729 1.46306L56.3622 1.45581L56.3431 1.45339L56.4458 1.42316ZM56.2941 1.49329L56.2595 1.50055C56.2595 1.50055 56.25 1.50055 56.2452 1.50055L56.2643 1.48966L56.2941 1.49329ZM56.2058 1.48483L56.1807 1.50055C56.1568 1.50055 56.1329 1.50055 56.1091 1.50055L56.1043 1.47878L56.2058 1.48483ZM56.0398 1.47757L55.9037 1.49329C55.8894 1.49329 55.8762 1.49208 55.8619 1.49087L55.8583 1.48241L56.0398 1.47757ZM55.2267 1.71094L55.3687 1.66257C55.3998 1.66741 55.4308 1.67708 55.4619 1.68192L55.4296 1.69643H55.4189L55.4117 1.70489L55.389 1.71457C55.3329 1.71578 55.278 1.71457 55.2231 1.71457L55.229 1.71094H55.2267ZM51.0355 1.95519L51.0259 1.95882L50.9829 1.94431L51.0355 1.95519ZM50.8791 1.94189L50.9782 1.97453L50.971 1.97695C50.8803 1.96728 50.7895 1.95519 50.7035 1.97091V1.96607L50.8779 1.94189H50.8791ZM50.4205 1.983L50.2593 2.04104L50.251 2.05797L50.2665 2.06643L50.4599 1.9963L50.4647 1.99872H50.4695L50.657 1.97333L50.6331 1.98663L50.2832 2.07127L50.2749 2.0761L50.2725 2.08457H50.2689L50.2653 2.08699L50.1698 2.13293L50.0707 2.14019L50.239 2.04708L50.4193 1.98421L50.4205 1.983ZM50.0695 1.91045L49.9847 1.85966H50.4014L50.1626 1.93463L50.0695 1.91166V1.91045ZM50.1387 1.96607H50.1483L50.1017 1.98542L50.0372 1.9963L50.1387 1.96486V1.96607ZM50.0707 2.01081L50.0755 2.02048H50.079L49.9823 2.05555L49.7746 2.06159L50.0719 2.0096L50.0707 2.01081ZM49.9811 2.14623L49.8044 2.10875L49.8307 2.10512L49.9704 2.1027L50.1065 2.07368H50.1196L50.0552 2.11359L50.0516 2.13414L50.0683 2.13898L49.9799 2.14502L49.9811 2.14623ZM50.3011 2.14623L50.3179 2.12205L50.3083 2.09545L50.5411 2.03741L50.4062 2.1148L50.3979 2.11721L50.3931 2.11963L50.3907 2.12447L50.3274 2.16074L50.3226 2.18009L50.3417 2.18614C50.3179 2.21636 50.2999 2.25022 50.2808 2.28408L50.0934 2.37718L50.0898 2.36872H50.0814L49.9656 2.44006L49.8557 2.49447C49.7531 2.51865 49.6468 2.53558 49.5405 2.54888H49.4856L50.3023 2.14502L50.3011 2.14623ZM15.13 1.52594C14.9461 1.48604 14.7622 1.44493 14.5795 1.40502L14.6667 1.4147H14.6727L14.675 1.40744L14.8315 1.42437L15.13 1.52594ZM14.3228 1.24904L14.7156 1.38447L14.3192 1.34819C14.084 1.2962 13.8476 1.24421 13.6123 1.19342L14.3228 1.24904ZM11.5227 0.748454L11.5191 0.755709C11.4941 0.750872 11.4678 0.748454 11.4427 0.743617L11.3555 0.694042L11.5227 0.748454ZM11.1693 0.657767L11.3305 0.72548C11.1346 0.691624 10.9376 0.657767 10.7406 0.631166H10.7442L11.1681 0.657767H11.1693ZM10.3012 0.56829L10.2427 0.586427C10.2367 0.586427 10.2307 0.586427 10.2248 0.586427L10.3012 0.569499V0.56829ZM4.56132 3.30339L5.19895 2.55009L5.91062 1.94793C5.30164 2.55372 4.80133 3.31065 4.36192 4.1365C4.22221 4.39888 4.12071 4.67215 4.00131 4.94179L4.56132 3.3046V3.30339ZM2.28186 20.4588C2.26514 20.7043 2.252 20.9498 2.2329 21.194H2.21499L2.17678 21.2412L2.14454 21.3464L2.12305 21.3488L2.10394 21.3572L2.28186 20.4576V20.4588ZM1.96304 22.9437L1.95826 23.0307L1.89379 23.281H1.8699L1.85558 23.3028L1.80781 23.6135L1.79826 23.6498L1.78513 23.6002L1.74214 23.5809L1.96424 22.9449L1.96304 22.9437ZM1.72303 22.4286L1.71468 22.4527L1.71109 22.4552L1.72184 22.4286H1.72303ZM1.68005 24.2471L1.70751 24.2556L1.69796 24.3173L1.66094 24.3257L1.63587 24.3608L1.60721 24.4539L1.66094 24.2266L1.68005 24.2471ZM1.60721 22.6873L1.64184 22.6619L1.48661 23.1166L1.43646 23.1686L1.53915 22.8312L1.60602 22.6885L1.60721 22.6873ZM0.949281 23.6764L1.47467 22.8082L1.41735 22.9932L1.16182 23.4551L0.949281 23.6764ZM1.22153 23.5144L1.05675 23.755L1.11048 23.6317L1.22272 23.5144H1.22153ZM1.19287 23.6982L1.10451 23.998H1.10331V24.0017L1.08182 24.079L1.06749 24.0766L1.05436 24.0827L1.07943 24.0186L1.06152 23.9835L1.02212 24.0029L0.878831 24.3559L0.724797 24.5216L0.894354 24.1323L1.19526 23.6982H1.19287Z" fill="#A1A1A1"/>
</g>
<defs>
<clipPath id="clip0_602_8540">
<rect width="63" height="39" fill="white"/>
</clipPath>
</defs>
</svg>
