<svg width="40" height="39" viewBox="0 0 40 39" fill="none" xmlns="http://www.w3.org/2000/svg">
<g id="Sun">
<path id="Vector" d="M18.3721 6.09375V2.4375C18.3721 2.11427 18.5005 1.80427 18.729 1.57571C18.9576 1.34715 19.2676 1.21875 19.5908 1.21875C19.9141 1.21875 20.224 1.34715 20.4526 1.57571C20.6812 1.80427 20.8096 2.11427 20.8096 2.4375V6.09375C20.8096 6.41698 20.6812 6.72698 20.4526 6.95554C20.224 7.1841 19.9141 7.3125 19.5908 7.3125C19.2676 7.3125 18.9576 7.1841 18.729 6.95554C18.5005 6.72698 18.3721 6.41698 18.3721 6.09375ZM29.3408 19.5C29.3408 21.4284 28.769 23.3134 27.6976 24.9168C26.6263 26.5202 25.1036 27.7699 23.322 28.5078C21.5404 29.2458 19.58 29.4389 17.6887 29.0627C15.7974 28.6865 14.0601 27.7579 12.6965 26.3943C11.333 25.0307 10.4044 23.2934 10.0282 21.4021C9.65196 19.5108 9.84504 17.5504 10.583 15.7688C11.3209 13.9873 12.5706 12.4645 14.174 11.3932C15.7774 10.3218 17.6625 9.75 19.5908 9.75C22.1758 9.75282 24.6541 10.781 26.482 12.6088C28.3099 14.4367 29.338 16.915 29.3408 19.5ZM26.9033 19.5C26.9033 18.0537 26.4744 16.6399 25.6709 15.4374C24.8674 14.2349 23.7254 13.2976 22.3892 12.7441C21.053 12.1907 19.5827 12.0459 18.1642 12.328C16.7457 12.6102 15.4428 13.3066 14.4201 14.3293C13.3974 15.352 12.701 16.6549 12.4188 18.0734C12.1367 19.4919 12.2815 20.9622 12.835 22.2984C13.3884 23.6346 14.3257 24.7766 15.5282 25.5801C16.7307 26.3836 18.1445 26.8125 19.5908 26.8125C21.5296 26.8105 23.3884 26.0394 24.7593 24.6685C26.1302 23.2976 26.9013 21.4388 26.9033 19.5ZM8.97855 10.6123C9.20724 10.841 9.51741 10.9694 9.84082 10.9694C10.1642 10.9694 10.4744 10.841 10.7031 10.6123C10.9318 10.3836 11.0602 10.0734 11.0602 9.75C11.0602 9.42659 10.9318 9.11642 10.7031 8.88773L8.26559 6.45023C8.0369 6.22155 7.72673 6.09307 7.40332 6.09307C7.07991 6.09307 6.76974 6.22155 6.54105 6.45023C6.31237 6.67892 6.18389 6.98909 6.18389 7.3125C6.18389 7.63591 6.31237 7.94608 6.54105 8.17477L8.97855 10.6123ZM8.97855 28.3877L6.54105 30.8252C6.31237 31.0539 6.18389 31.3641 6.18389 31.6875C6.18389 32.0109 6.31237 32.3211 6.54105 32.5498C6.76974 32.7785 7.07991 32.9069 7.40332 32.9069C7.72673 32.9069 8.0369 32.7785 8.26559 32.5498L10.7031 30.1123C10.8163 29.999 10.9061 29.8646 10.9674 29.7167C11.0287 29.5687 11.0602 29.4101 11.0602 29.25C11.0602 29.0899 11.0287 28.9313 10.9674 28.7833C10.9061 28.6354 10.8163 28.501 10.7031 28.3877C10.5899 28.2745 10.4554 28.1847 10.3075 28.1234C10.1595 28.0621 10.001 28.0306 9.84082 28.0306C9.68068 28.0306 9.52211 28.0621 9.37417 28.1234C9.22622 28.1847 9.09179 28.2745 8.97855 28.3877ZM29.3408 10.9688C29.5009 10.9689 29.6595 10.9375 29.8074 10.8763C29.9554 10.8151 30.0898 10.7254 30.2031 10.6123L32.6406 8.17477C32.8693 7.94608 32.9977 7.63591 32.9977 7.3125C32.9977 6.98909 32.8693 6.67892 32.6406 6.45023C32.4119 6.22155 32.1017 6.09307 31.7783 6.09307C31.4549 6.09307 31.1447 6.22155 30.9161 6.45023L28.4786 8.88773C28.3079 9.05818 28.1917 9.27543 28.1446 9.51197C28.0975 9.74851 28.1216 9.99371 28.2139 10.2165C28.3063 10.4393 28.4626 10.6298 28.6632 10.7637C28.8638 10.8976 29.0996 10.9689 29.3408 10.9688ZM30.2031 28.3877C29.9744 28.159 29.6642 28.0306 29.3408 28.0306C29.0174 28.0306 28.7072 28.159 28.4786 28.3877C28.2499 28.6164 28.1214 28.9266 28.1214 29.25C28.1214 29.5734 28.2499 29.8836 28.4786 30.1123L30.9161 32.5498C31.0293 32.663 31.1637 32.7528 31.3117 32.8141C31.4596 32.8754 31.6182 32.9069 31.7783 32.9069C31.9385 32.9069 32.097 32.8754 32.245 32.8141C32.3929 32.7528 32.5274 32.663 32.6406 32.5498C32.7538 32.4365 32.8436 32.3021 32.9049 32.1542C32.9662 32.0062 32.9977 31.8476 32.9977 31.6875C32.9977 31.5274 32.9662 31.3688 32.9049 31.2208C32.8436 31.0729 32.7538 30.9385 32.6406 30.8252L30.2031 28.3877ZM7.40332 19.5C7.40332 19.1768 7.27492 18.8668 7.04636 18.6382C6.8178 18.4097 6.5078 18.2812 6.18457 18.2812H2.52832C2.20509 18.2812 1.89509 18.4097 1.66653 18.6382C1.43797 18.8668 1.30957 19.1768 1.30957 19.5C1.30957 19.8232 1.43797 20.1332 1.66653 20.3618C1.89509 20.5903 2.20509 20.7188 2.52832 20.7188H6.18457C6.5078 20.7188 6.8178 20.5903 7.04636 20.3618C7.27492 20.1332 7.40332 19.8232 7.40332 19.5ZM19.5908 31.6875C19.2676 31.6875 18.9576 31.8159 18.729 32.0445C18.5005 32.273 18.3721 32.583 18.3721 32.9062V36.5625C18.3721 36.8857 18.5005 37.1957 18.729 37.4243C18.9576 37.6528 19.2676 37.7812 19.5908 37.7812C19.9141 37.7812 20.224 37.6528 20.4526 37.4243C20.6812 37.1957 20.8096 36.8857 20.8096 36.5625V32.9062C20.8096 32.583 20.6812 32.273 20.4526 32.0445C20.224 31.8159 19.9141 31.6875 19.5908 31.6875ZM36.6533 18.2812H32.9971C32.6738 18.2812 32.3638 18.4097 32.1353 18.6382C31.9067 18.8668 31.7783 19.1768 31.7783 19.5C31.7783 19.8232 31.9067 20.1332 32.1353 20.3618C32.3638 20.5903 32.6738 20.7188 32.9971 20.7188H36.6533C36.9766 20.7188 37.2865 20.5903 37.5151 20.3618C37.7437 20.1332 37.8721 19.8232 37.8721 19.5C37.8721 19.1768 37.7437 18.8668 37.5151 18.6382C37.2865 18.4097 36.9766 18.2812 36.6533 18.2812Z" fill="#AEADA9"/>
</g>
</svg>
