<svg width="38" height="39" viewBox="0 0 38 39" fill="none" xmlns="http://www.w3.org/2000/svg">
<path id="Vector" d="M37.1753 19.2056L19.7039 1.73417C19.4435 1.47165 19.1335 1.26352 18.7919 1.12187C18.4503 0.980225 18.084 0.90789 17.7142 0.909072H1.40744C1.03417 0.909072 0.676182 1.05735 0.412239 1.3213C0.148296 1.58524 1.42413e-05 1.94322 1.42413e-05 2.31649V18.6232C-0.00116717 18.993 0.0711678 19.3594 0.212815 19.7009C0.354462 20.0425 0.562595 20.3526 0.825116 20.613L18.2965 38.0844C18.5579 38.3458 18.8682 38.5532 19.2098 38.6947C19.5513 38.8362 19.9174 38.9091 20.2871 38.9091C20.6568 38.9091 21.0229 38.8362 21.3645 38.6947C21.706 38.5532 22.0164 38.3458 22.2778 38.0844L37.1753 23.1868C37.4368 22.9254 37.6442 22.6151 37.7857 22.2735C37.9272 21.932 38 21.5659 38 21.1962C38 20.8265 37.9272 20.4604 37.7857 20.1188C37.6442 19.7773 37.4368 19.467 37.1753 19.2056ZM20.2863 36.0946L2.81486 18.6232V3.72392H17.7142L35.1856 21.1953L20.2863 36.0946ZM11.2594 10.0573C11.2594 10.4749 11.1356 10.883 10.9036 11.2302C10.6716 11.5774 10.3419 11.848 9.95616 12.0078C9.5704 12.1675 9.14592 12.2093 8.7364 12.1279C8.32688 12.0464 7.95071 11.8454 7.65546 11.5501C7.36022 11.2549 7.15915 10.8787 7.07769 10.4692C6.99623 10.0597 7.03804 9.63518 7.19783 9.24942C7.35761 8.86366 7.6282 8.53395 7.97538 8.30197C8.32255 8.07 8.73072 7.94619 9.14826 7.94619C9.70817 7.94619 10.2451 8.16861 10.6411 8.56452C11.037 8.96044 11.2594 9.49741 11.2594 10.0573Z" fill="#AEADA9"/>
</svg>
