<svg width="24" height="25" viewBox="0 0 24 25" fill="none" xmlns="http://www.w3.org/2000/svg">
<g id="Media/Youtube">
<path id="Vector" d="M15 12.3203L10.5 9.32031V15.3203L15 12.3203Z" stroke="white" stroke-width="1.5" stroke-linecap="round" stroke-linejoin="round"/>
<path id="Vector_2" d="M2.25 12.3204C2.25 15.1245 2.53781 16.7688 2.75719 17.6145C2.8152 17.8445 2.92694 18.0574 3.08322 18.2359C3.23951 18.4144 3.43589 18.5532 3.65625 18.641C6.79875 19.8532 12 19.8204 12 19.8204C12 19.8204 17.2012 19.8532 20.3438 18.641C20.5648 18.5537 20.7619 18.4151 20.9189 18.2366C21.0759 18.0581 21.1882 17.8449 21.2466 17.6145C21.4659 16.7707 21.7537 15.1245 21.7537 12.3204C21.7537 9.51634 21.4659 7.87196 21.2466 7.02634C21.1888 6.79508 21.0768 6.58091 20.9198 6.40157C20.7628 6.22223 20.5653 6.08289 20.3438 5.99509C17.2012 4.78759 12 4.8204 12 4.8204C12 4.8204 6.79875 4.78759 3.65625 5.99977C3.43466 6.08757 3.23718 6.22692 3.08017 6.40625C2.92317 6.58559 2.81116 6.79977 2.75344 7.03102C2.53781 7.87102 2.25 9.51634 2.25 12.3204Z" stroke="white" stroke-width="1.5" stroke-linecap="round" stroke-linejoin="round"/>
</g>
</svg>
